<ttFont>
    <TTGlyph name="A" xMin="-78" yMin="0" xMax="585" yMax="700">
      <contour>
        <pt x="-78" y="0" on="1"/>
        <pt x="-68" y="41" on="1"/>
        <pt x="24" y="63" on="1"/>
        <pt x="404" y="700" on="1"/>
        <pt x="459" y="700" on="1"/>
        <pt x="506" y="62" on="1"/>
        <pt x="585" y="41" on="1"/>
        <pt x="575" y="0" on="1"/>
        <pt x="325" y="0" on="1"/>
        <pt x="335" y="41" on="1"/>
        <pt x="411" y="59" on="1"/>
        <pt x="399" y="201" on="1"/>
        <pt x="170" y="201" on="1"/>
        <pt x="85" y="62" on="1"/>
        <pt x="164" y="41" on="1"/>
        <pt x="154" y="0" on="1"/>
      </contour>
      <contour>
        <pt x="204" y="255" on="1"/>
        <pt x="394" y="255" on="1"/>
        <pt x="376" y="546" on="1"/>
      </contour>
    </TTGlyph>
    <TTGlyph name="AE" xMin="-82" yMin="0" xMax="1059" yMax="700">
      <contour>
        <pt x="-82" y="0" on="1"/>
        <pt x="-72" y="41" on="1"/>
        <pt x="46" y="69" on="1"/>
        <pt x="681" y="700" on="1"/>
        <pt x="1059" y="700" on="1"/>
        <pt x="1008" y="495" on="1"/>
        <pt x="970" y="495" on="1"/>
        <pt x="964" y="638" on="1"/>
        <pt x="762" y="638" on="1"/>
        <pt x="697" y="381" on="1"/>
        <pt x="900" y="401" on="1"/>
        <pt x="880" y="317" on="1"/>
        <pt x="686" y="335" on="1"/>
        <pt x="618" y="62" on="1"/>
        <pt x="819" y="62" on="1"/>
        <pt x="928" y="216" on="1"/>
        <pt x="966" y="216" on="1"/>
        <pt x="885" y="0" on="1"/>
        <pt x="420" y="0" on="1"/>
        <pt x="430" y="41" on="1"/>
        <pt x="522" y="63" on="1"/>
        <pt x="556" y="201" on="1"/>
        <pt x="260" y="201" on="1"/>
        <pt x="115" y="58" on="1"/>
        <pt x="180" y="41" on="1"/>
        <pt x="170" y="0" on="1"/>
      </contour>
      <contour>
        <pt x="315" y="255" on="1"/>
        <pt x="570" y="255" on="1"/>
        <pt x="653" y="587" on="1"/>
      </contour>
    </TTGlyph>
    <TTGlyph name="Aacute" xMin="-78" yMin="0" xMax="588" yMax="890">
      <component glyphName="A" x="0" y="0" flags="0x204"/>
      <component glyphName="acute.case" x="363" y="0" flags="0x4"/>
    </TTGlyph>
    <TTGlyph name="Acircumflex" xMin="-78" yMin="0" xMax="599" yMax="894">
      <component glyphName="A" x="0" y="0" flags="0x204"/>
      <component glyphName="circumflex.case" x="254" y="-9" flags="0x4"/>
    </TTGlyph>
    <TTGlyph name="Adieresis" xMin="-78" yMin="0" xMax="601" yMax="893">
      <component glyphName="A" x="0" y="0" flags="0x204"/>
      <component glyphName="dieresis.case" x="261" y="0" flags="0x4"/>
    </TTGlyph>
    <TTGlyph name="Agrave" xMin="-78" yMin="0" xMax="585" yMax="890">
      <component glyphName="A" x="0" y="0" flags="0x204"/>
      <component glyphName="grave.case" x="276" y="0" flags="0x4"/>
    </TTGlyph>
    <TTGlyph name="Aring" xMin="-78" yMin="0" xMax="585" yMax="907">
      <contour>
        <pt x="-78" y="0" on="1"/>
        <pt x="-68" y="41" on="1"/>
        <pt x="24" y="63" on="1"/>
        <pt x="402" y="697" on="1"/>
        <pt x="384" y="705" on="0"/>
        <pt x="369" y="720" on="1"/>
        <pt x="337" y="752" on="0"/>
        <pt x="337" y="798" on="1"/>
        <pt x="337" y="845" on="0"/>
        <pt x="402" y="907" on="0"/>
        <pt x="445" y="907" on="1"/>
        <pt x="488" y="907" on="0"/>
        <pt x="554" y="845" on="0"/>
        <pt x="554" y="798" on="1"/>
        <pt x="554" y="752" on="0"/>
        <pt x="522" y="720" on="1"/>
        <pt x="495" y="694" on="0"/>
        <pt x="460" y="690" on="1"/>
        <pt x="506" y="62" on="1"/>
        <pt x="585" y="41" on="1"/>
        <pt x="575" y="0" on="1"/>
        <pt x="325" y="0" on="1"/>
        <pt x="335" y="41" on="1"/>
        <pt x="411" y="59" on="1"/>
        <pt x="399" y="201" on="1"/>
        <pt x="170" y="201" on="1"/>
        <pt x="85" y="62" on="1"/>
        <pt x="164" y="41" on="1"/>
        <pt x="154" y="0" on="1"/>
      </contour>
      <contour>
        <pt x="204" y="255" on="1"/>
        <pt x="394" y="255" on="1"/>
        <pt x="376" y="546" on="1"/>
      </contour>
      <contour>
        <pt x="445" y="743" on="1"/>
        <pt x="468" y="743" on="0"/>
        <pt x="501" y="776" on="0"/>
        <pt x="501" y="798" on="1"/>
        <pt x="501" y="820" on="0"/>
        <pt x="467" y="853" on="0"/>
        <pt x="445" y="853" on="1"/>
        <pt x="423" y="853" on="0"/>
        <pt x="390" y="820" on="0"/>
        <pt x="390" y="798" on="1"/>
        <pt x="390" y="776" on="0"/>
        <pt x="423" y="743" on="0"/>
      </contour>
    </TTGlyph>
    <TTGlyph name="Atilde" xMin="-78" yMin="0" xMax="623" yMax="890">
      <component glyphName="A" x="0" y="0" flags="0x204"/>
      <component glyphName="tilde.case" x="234" y="-14" flags="0x4"/>
    </TTGlyph>
    <TTGlyph name="B" xMin="-20" yMin="0" xMax="580" yMax="700">
      <contour>
        <pt x="-20" y="0" on="1"/>
        <pt x="-10" y="41" on="1"/>
        <pt x="82" y="63" on="1"/>
        <pt x="225" y="637" on="1"/>
        <pt x="144" y="659" on="1"/>
        <pt x="154" y="700" on="1"/>
        <pt x="387" y="700" on="1"/>
        <pt x="475" y="700" on="0"/>
        <pt x="580" y="627" on="0"/>
        <pt x="580" y="553" on="1"/>
        <pt x="580" y="486" on="0"/>
        <pt x="497" y="384" on="0"/>
        <pt x="429" y="367" on="1"/>
        <pt x="428" y="364" on="1"/>
        <pt x="482" y="349" on="0"/>
        <pt x="545" y="270" on="0"/>
        <pt x="545" y="216" on="1"/>
        <pt x="545" y="112" on="0"/>
        <pt x="383" y="0" on="0"/>
        <pt x="269" y="0" on="1"/>
      </contour>
      <contour>
        <pt x="176" y="56" on="1"/>
        <pt x="263" y="56" on="1"/>
        <pt x="340" y="58" on="0"/>
        <pt x="445" y="146" on="0"/>
        <pt x="445" y="222" on="1"/>
        <pt x="445" y="272" on="0"/>
        <pt x="381" y="334" on="0"/>
        <pt x="323" y="334" on="1"/>
        <pt x="246" y="334" on="1"/>
      </contour>
      <contour>
        <pt x="260" y="392" on="1"/>
        <pt x="315" y="392" on="1"/>
        <pt x="383" y="394" on="0"/>
        <pt x="478" y="483" on="0"/>
        <pt x="478" y="551" on="1"/>
        <pt x="478" y="644" on="0"/>
        <pt x="372" y="644" on="1"/>
        <pt x="323" y="644" on="1"/>
      </contour>
    </TTGlyph>
    <TTGlyph name="C" xMin="55" yMin="-7" xMax="648" yMax="708">
      <contour>
        <pt x="55" y="239" on="1"/>
        <pt x="55" y="355" on="0"/>
        <pt x="153" y="569" on="0"/>
        <pt x="339" y="708" on="0"/>
        <pt x="454" y="708" on="1"/>
        <pt x="510" y="708" on="0"/>
        <pt x="607" y="688" on="0"/>
        <pt x="628" y="678" on="1"/>
        <pt x="648" y="668" on="1"/>
        <pt x="602" y="483" on="1"/>
        <pt x="563" y="483" on="1"/>
        <pt x="557" y="640" on="1"/>
        <pt x="515" y="650" on="0"/>
        <pt x="483" y="650" on="1"/>
        <pt x="390" y="650" on="0"/>
        <pt x="238" y="537" on="0"/>
        <pt x="155" y="352" on="0"/>
        <pt x="155" y="245" on="1"/>
        <pt x="155" y="164" on="0"/>
        <pt x="223" y="55" on="0"/>
        <pt x="304" y="55" on="1"/>
        <pt x="348" y="55" on="0"/>
        <pt x="392" y="64" on="1"/>
        <pt x="506" y="226" on="1"/>
        <pt x="545" y="226" on="1"/>
        <pt x="474" y="42" on="1"/>
        <pt x="380" y="-7" on="0"/>
        <pt x="289" y="-7" on="1"/>
        <pt x="225" y="-7" on="0"/>
        <pt x="131" y="33" on="0"/>
        <pt x="79" y="103" on="0"/>
        <pt x="55" y="188" on="0"/>
      </contour>
    </TTGlyph>
    <TTGlyph name="Ccedilla" xMin="55" yMin="-239" xMax="648" yMax="708">
      <contour>
        <pt x="143" y="-229" on="1"/>
        <pt x="155" y="-190" on="1"/>
        <pt x="168" y="-194" on="0"/>
        <pt x="192" y="-194" on="1"/>
        <pt x="229" y="-194" on="0"/>
        <pt x="288" y="-162" on="0"/>
        <pt x="288" y="-125" on="1"/>
        <pt x="288" y="-76" on="0"/>
        <pt x="229" y="-76" on="1"/>
        <pt x="265" y="-6" on="1"/>
        <pt x="216" y="-3" on="0"/>
        <pt x="178" y="13" on="1"/>
        <pt x="131" y="33" on="0"/>
        <pt x="79" y="103" on="0"/>
        <pt x="55" y="188" on="0"/>
        <pt x="55" y="239" on="1"/>
        <pt x="55" y="355" on="0"/>
        <pt x="153" y="569" on="0"/>
        <pt x="339" y="708" on="0"/>
        <pt x="454" y="708" on="1"/>
        <pt x="510" y="708" on="0"/>
        <pt x="607" y="688" on="0"/>
        <pt x="628" y="678" on="1"/>
        <pt x="648" y="668" on="1"/>
        <pt x="602" y="483" on="1"/>
        <pt x="563" y="483" on="1"/>
        <pt x="557" y="640" on="1"/>
        <pt x="515" y="650" on="0"/>
        <pt x="483" y="650" on="1"/>
        <pt x="390" y="650" on="0"/>
        <pt x="238" y="537" on="0"/>
        <pt x="155" y="352" on="0"/>
        <pt x="155" y="245" on="1"/>
        <pt x="155" y="164" on="0"/>
        <pt x="223" y="55" on="0"/>
        <pt x="304" y="55" on="1"/>
        <pt x="348" y="55" on="0"/>
        <pt x="392" y="64" on="1"/>
        <pt x="506" y="226" on="1"/>
        <pt x="545" y="226" on="1"/>
        <pt x="474" y="42" on="1"/>
        <pt x="390" y="-1" on="0"/>
        <pt x="309" y="-6" on="1"/>
        <pt x="293" y="-41" on="1"/>
        <pt x="367" y="-45" on="0"/>
        <pt x="367" y="-110" on="1"/>
        <pt x="367" y="-166" on="0"/>
        <pt x="273" y="-239" on="0"/>
        <pt x="212" y="-239" on="1"/>
        <pt x="176" y="-239" on="0"/>
      </contour>
    </TTGlyph>
    <TTGlyph name="D" xMin="-20" yMin="0" xMax="668" yMax="700">
      <contour>
        <pt x="-20" y="0" on="1"/>
        <pt x="-10" y="41" on="1"/>
        <pt x="82" y="63" on="1"/>
        <pt x="225" y="637" on="1"/>
        <pt x="144" y="659" on="1"/>
        <pt x="154" y="700" on="1"/>
        <pt x="370" y="700" on="1"/>
        <pt x="517" y="700" on="0"/>
        <pt x="668" y="575" on="0"/>
        <pt x="668" y="453" on="1"/>
        <pt x="668" y="343" on="0"/>
        <pt x="592" y="167" on="0"/>
        <pt x="460" y="57" on="0"/>
        <pt x="292" y="0" on="0"/>
        <pt x="196" y="0" on="1"/>
      </contour>
      <contour>
        <pt x="178" y="62" on="1"/>
        <pt x="211" y="62" on="1"/>
        <pt x="368" y="62" on="0"/>
        <pt x="569" y="292" on="0"/>
        <pt x="569" y="457" on="1"/>
        <pt x="569" y="638" on="0"/>
        <pt x="355" y="638" on="1"/>
        <pt x="322" y="638" on="1"/>
      </contour>
    </TTGlyph>
    <TTGlyph name="E" xMin="-20" yMin="0" xMax="619" yMax="700">
      <contour>
        <pt x="-20" y="0" on="1"/>
        <pt x="-10" y="41" on="1"/>
        <pt x="82" y="63" on="1"/>
        <pt x="225" y="637" on="1"/>
        <pt x="144" y="659" on="1"/>
        <pt x="154" y="700" on="1"/>
        <pt x="619" y="700" on="1"/>
        <pt x="568" y="495" on="1"/>
        <pt x="530" y="495" on="1"/>
        <pt x="524" y="638" on="1"/>
        <pt x="322" y="638" on="1"/>
        <pt x="257" y="381" on="1"/>
        <pt x="460" y="401" on="1"/>
        <pt x="440" y="317" on="1"/>
        <pt x="246" y="335" on="1"/>
        <pt x="178" y="62" on="1"/>
        <pt x="379" y="62" on="1"/>
        <pt x="488" y="216" on="1"/>
        <pt x="526" y="216" on="1"/>
        <pt x="445" y="0" on="1"/>
      </contour>
    </TTGlyph>
    <TTGlyph name="Eacute" xMin="-20" yMin="0" xMax="619" yMax="890">
      <component glyphName="E" x="0" y="0" flags="0x204"/>
      <component glyphName="acute.case" x="351" y="0" flags="0x4"/>
    </TTGlyph>
    <TTGlyph name="Ecircumflex" xMin="-20" yMin="0" xMax="619" yMax="903">
      <component glyphName="E" x="0" y="0" flags="0x204"/>
      <component glyphName="circumflex.case" x="251" y="0" flags="0x4"/>
    </TTGlyph>
    <TTGlyph name="Edieresis" xMin="-20" yMin="0" xMax="622" yMax="893">
      <component glyphName="E" x="0" y="0" flags="0x204"/>
      <component glyphName="dieresis.case" x="282" y="0" flags="0x4"/>
    </TTGlyph>
    <TTGlyph name="Egrave" xMin="-20" yMin="0" xMax="619" yMax="890">
      <component glyphName="E" x="0" y="0" flags="0x204"/>
      <component glyphName="grave.case" x="268" y="0" flags="0x4"/>
    </TTGlyph>
    <TTGlyph name="Eth" xMin="-19" yMin="0" xMax="669" yMax="700">
      <contour>
        <pt x="51" y="328" on="1"/>
        <pt x="51" y="375" on="1"/>
        <pt x="160" y="375" on="1"/>
        <pt x="226" y="637" on="1"/>
        <pt x="145" y="659" on="1"/>
        <pt x="155" y="700" on="1"/>
        <pt x="371" y="700" on="1"/>
        <pt x="518" y="700" on="0"/>
        <pt x="669" y="575" on="0"/>
        <pt x="669" y="453" on="1"/>
        <pt x="669" y="343" on="0"/>
        <pt x="593" y="167" on="0"/>
        <pt x="461" y="57" on="0"/>
        <pt x="293" y="0" on="0"/>
        <pt x="197" y="0" on="1"/>
        <pt x="-19" y="0" on="1"/>
        <pt x="-9" y="41" on="1"/>
        <pt x="83" y="63" on="1"/>
        <pt x="149" y="328" on="1"/>
      </contour>
      <contour>
        <pt x="179" y="62" on="1"/>
        <pt x="212" y="62" on="1"/>
        <pt x="369" y="62" on="0"/>
        <pt x="570" y="292" on="0"/>
        <pt x="570" y="457" on="1"/>
        <pt x="570" y="638" on="0"/>
        <pt x="356" y="638" on="1"/>
        <pt x="323" y="638" on="1"/>
        <pt x="257" y="375" on="1"/>
        <pt x="419" y="375" on="1"/>
        <pt x="419" y="328" on="1"/>
        <pt x="245" y="328" on="1"/>
      </contour>
    </TTGlyph>
    <TTGlyph name="Euro" xMin="36" yMin="-7" xMax="705" yMax="708">
      <contour>
        <pt x="36" y="243" on="1"/>
        <pt x="47" y="285" on="1"/>
        <pt x="116" y="289" on="1"/>
        <pt x="138" y="385" on="1"/>
        <pt x="71" y="385" on="1"/>
        <pt x="82" y="427" on="1"/>
        <pt x="154" y="431" on="1"/>
        <pt x="204" y="566" on="0"/>
        <pt x="403" y="708" on="0"/>
        <pt x="544" y="708" on="1"/>
        <pt x="635" y="708" on="0"/>
        <pt x="705" y="668" on="1"/>
        <pt x="653" y="484" on="1"/>
        <pt x="613" y="484" on="1"/>
        <pt x="613" y="637" on="1"/>
        <pt x="566" y="646" on="0"/>
        <pt x="527" y="646" on="1"/>
        <pt x="338" y="646" on="0"/>
        <pt x="256" y="437" on="1"/>
        <pt x="516" y="452" on="1"/>
        <pt x="490" y="385" on="1"/>
        <pt x="238" y="385" on="1"/>
        <pt x="224" y="338" on="0"/>
        <pt x="217" y="295" on="1"/>
        <pt x="464" y="310" on="1"/>
        <pt x="438" y="243" on="1"/>
        <pt x="210" y="243" on="1"/>
        <pt x="210" y="222" on="1"/>
        <pt x="210" y="55" on="0"/>
        <pt x="361" y="55" on="1"/>
        <pt x="406" y="55" on="0"/>
        <pt x="450" y="64" on="1"/>
        <pt x="565" y="226" on="1"/>
        <pt x="603" y="226" on="1"/>
        <pt x="532" y="42" on="1"/>
        <pt x="438" y="-7" on="0"/>
        <pt x="346" y="-7" on="1"/>
        <pt x="231" y="-7" on="0"/>
        <pt x="110" y="104" on="0"/>
        <pt x="110" y="212" on="1"/>
        <pt x="110" y="232" on="0"/>
        <pt x="111" y="243" on="1"/>
      </contour>
    </TTGlyph>
    <TTGlyph name="F" xMin="-20" yMin="0" xMax="619" yMax="700">
      <contour>
        <pt x="-20" y="0" on="1"/>
        <pt x="-10" y="41" on="1"/>
        <pt x="82" y="63" on="1"/>
        <pt x="225" y="637" on="1"/>
        <pt x="144" y="659" on="1"/>
        <pt x="154" y="700" on="1"/>
        <pt x="619" y="700" on="1"/>
        <pt x="568" y="495" on="1"/>
        <pt x="530" y="495" on="1"/>
        <pt x="524" y="638" on="1"/>
        <pt x="322" y="638" on="1"/>
        <pt x="257" y="381" on="1"/>
        <pt x="460" y="401" on="1"/>
        <pt x="440" y="317" on="1"/>
        <pt x="246" y="335" on="1"/>
        <pt x="178" y="63" on="1"/>
        <pt x="279" y="41" on="1"/>
        <pt x="269" y="0" on="1"/>
      </contour>
    </TTGlyph>
    <TTGlyph name="G" xMin="54" yMin="-7" xMax="666" yMax="708">
      <contour>
        <pt x="54" y="236" on="1"/>
        <pt x="54" y="364" on="0"/>
        <pt x="163" y="579" on="0"/>
        <pt x="362" y="708" on="0"/>
        <pt x="485" y="708" on="1"/>
        <pt x="572" y="708" on="0"/>
        <pt x="666" y="669" on="1"/>
        <pt x="620" y="484" on="1"/>
        <pt x="582" y="484" on="1"/>
        <pt x="575" y="644" on="1"/>
        <pt x="532" y="653" on="0"/>
        <pt x="493" y="653" on="1"/>
        <pt x="344" y="653" on="0"/>
        <pt x="155" y="413" on="0"/>
        <pt x="155" y="242" on="1"/>
        <pt x="155" y="145" on="0"/>
        <pt x="259" y="51" on="0"/>
        <pt x="344" y="51" on="1"/>
        <pt x="370" y="51" on="0"/>
        <pt x="415" y="60" on="1"/>
        <pt x="465" y="261" on="1"/>
        <pt x="366" y="296" on="1"/>
        <pt x="374" y="327" on="1"/>
        <pt x="648" y="327" on="1"/>
        <pt x="640" y="296" on="1"/>
        <pt x="561" y="261" on="1"/>
        <pt x="506" y="42" on="1"/>
        <pt x="403" y="-7" on="0"/>
        <pt x="307" y="-7" on="1"/>
        <pt x="198" y="-7" on="0"/>
        <pt x="54" y="113" on="0"/>
      </contour>
    </TTGlyph>
    <TTGlyph name="H" xMin="-20" yMin="0" xMax="819" yMax="700">
      <contour>
        <pt x="-20" y="0" on="1"/>
        <pt x="-10" y="41" on="1"/>
        <pt x="82" y="63" on="1"/>
        <pt x="225" y="637" on="1"/>
        <pt x="144" y="659" on="1"/>
        <pt x="154" y="700" on="1"/>
        <pt x="424" y="700" on="1"/>
        <pt x="414" y="659" on="1"/>
        <pt x="321" y="637" on="1"/>
        <pt x="258" y="385" on="1"/>
        <pt x="557" y="385" on="1"/>
        <pt x="620" y="637" on="1"/>
        <pt x="540" y="659" on="1"/>
        <pt x="550" y="700" on="1"/>
        <pt x="819" y="700" on="1"/>
        <pt x="809" y="659" on="1"/>
        <pt x="717" y="637" on="1"/>
        <pt x="574" y="63" on="1"/>
        <pt x="655" y="41" on="1"/>
        <pt x="645" y="0" on="1"/>
        <pt x="376" y="0" on="1"/>
        <pt x="386" y="41" on="1"/>
        <pt x="477" y="63" on="1"/>
        <pt x="542" y="323" on="1"/>
        <pt x="243" y="323" on="1"/>
        <pt x="178" y="63" on="1"/>
        <pt x="260" y="41" on="1"/>
        <pt x="250" y="0" on="1"/>
      </contour>
    </TTGlyph>
    <TTGlyph name="I" xMin="-20" yMin="0" xMax="424" yMax="700">
      <contour>
        <pt x="-20" y="0" on="1"/>
        <pt x="-10" y="41" on="1"/>
        <pt x="82" y="63" on="1"/>
        <pt x="225" y="637" on="1"/>
        <pt x="144" y="659" on="1"/>
        <pt x="154" y="700" on="1"/>
        <pt x="424" y="700" on="1"/>
        <pt x="414" y="659" on="1"/>
        <pt x="321" y="637" on="1"/>
        <pt x="178" y="63" on="1"/>
        <pt x="260" y="41" on="1"/>
        <pt x="250" y="0" on="1"/>
      </contour>
    </TTGlyph>
    <TTGlyph name="Iacute" xMin="-20" yMin="0" xMax="442" yMax="890">
      <component glyphName="I" x="0" y="0" flags="0x204"/>
      <component glyphName="acute.case" x="217" y="0" flags="0x4"/>
    </TTGlyph>
    <TTGlyph name="Icircumflex" xMin="-20" yMin="0" xMax="467" yMax="903">
      <component glyphName="I" x="0" y="0" flags="0x204"/>
      <component glyphName="circumflex.case" x="122" y="0" flags="0x4"/>
    </TTGlyph>
    <TTGlyph name="Idieresis" xMin="-20" yMin="0" xMax="489" yMax="893">
      <component glyphName="I" x="0" y="0" flags="0x204"/>
      <component glyphName="dieresis.case" x="149" y="0" flags="0x4"/>
    </TTGlyph>
    <TTGlyph name="Igrave" xMin="-20" yMin="0" xMax="424" yMax="890">
      <component glyphName="I" x="0" y="0" flags="0x204"/>
      <component glyphName="grave.case" x="174" y="0" flags="0x4"/>
    </TTGlyph>
    <TTGlyph name="J" xMin="-83" yMin="-149" xMax="418" yMax="700">
      <contour>
        <pt x="-83" y="-116" on="1"/>
        <pt x="52" y="-28" on="0"/>
        <pt x="97" y="150" on="1"/>
        <pt x="218" y="637" on="1"/>
        <pt x="138" y="659" on="1"/>
        <pt x="148" y="700" on="1"/>
        <pt x="418" y="700" on="1"/>
        <pt x="408" y="659" on="1"/>
        <pt x="315" y="637" on="1"/>
        <pt x="194" y="150" on="1"/>
        <pt x="168" y="45" on="0"/>
        <pt x="10" y="-115" on="0"/>
        <pt x="-71" y="-149" on="1"/>
      </contour>
    </TTGlyph>
    <TTGlyph name="K" xMin="-20" yMin="-7" xMax="742" yMax="700">
      <contour>
        <pt x="-20" y="0" on="1"/>
        <pt x="-10" y="41" on="1"/>
        <pt x="82" y="63" on="1"/>
        <pt x="225" y="637" on="1"/>
        <pt x="144" y="659" on="1"/>
        <pt x="154" y="700" on="1"/>
        <pt x="424" y="700" on="1"/>
        <pt x="414" y="659" on="1"/>
        <pt x="321" y="637" on="1"/>
        <pt x="178" y="63" on="1"/>
        <pt x="260" y="41" on="1"/>
        <pt x="250" y="0" on="1"/>
      </contour>
      <contour>
        <pt x="274" y="364" on="1"/>
        <pt x="555" y="637" on="1"/>
        <pt x="494" y="659" on="1"/>
        <pt x="504" y="700" on="1"/>
        <pt x="742" y="700" on="1"/>
        <pt x="732" y="659" on="1"/>
        <pt x="651" y="639" on="1"/>
        <pt x="371" y="373" on="1"/>
        <pt x="422" y="256" on="1"/>
        <pt x="476" y="132" on="0"/>
        <pt x="536" y="55" on="0"/>
        <pt x="604" y="34" on="1"/>
        <pt x="593" y="-7" on="1"/>
        <pt x="524" y="-4" on="0"/>
        <pt x="435" y="44" on="0"/>
        <pt x="374" y="133" on="0"/>
        <pt x="336" y="221" on="1"/>
      </contour>
    </TTGlyph>
    <TTGlyph name="L" xMin="-20" yMin="0" xMax="526" yMax="700">
      <contour>
        <pt x="-20" y="0" on="1"/>
        <pt x="-10" y="41" on="1"/>
        <pt x="82" y="63" on="1"/>
        <pt x="225" y="637" on="1"/>
        <pt x="144" y="659" on="1"/>
        <pt x="154" y="700" on="1"/>
        <pt x="424" y="700" on="1"/>
        <pt x="414" y="659" on="1"/>
        <pt x="321" y="637" on="1"/>
        <pt x="178" y="62" on="1"/>
        <pt x="379" y="62" on="1"/>
        <pt x="488" y="216" on="1"/>
        <pt x="526" y="216" on="1"/>
        <pt x="445" y="0" on="1"/>
      </contour>
    </TTGlyph>
    <TTGlyph name="M" xMin="-39" yMin="-5" xMax="967" yMax="700">
      <contour>
        <pt x="-39" y="0" on="1"/>
        <pt x="-29" y="41" on="1"/>
        <pt x="66" y="64" on="1"/>
        <pt x="241" y="638" on="1"/>
        <pt x="163" y="659" on="1"/>
        <pt x="173" y="700" on="1"/>
        <pt x="353" y="700" on="1"/>
        <pt x="433" y="168" on="1"/>
        <pt x="771" y="700" on="1"/>
        <pt x="967" y="700" on="1"/>
        <pt x="957" y="659" on="1"/>
        <pt x="868" y="638" on="1"/>
        <pt x="755" y="63" on="1"/>
        <pt x="841" y="41" on="1"/>
        <pt x="831" y="0" on="1"/>
        <pt x="560" y="0" on="1"/>
        <pt x="570" y="41" on="1"/>
        <pt x="658" y="62" on="1"/>
        <pt x="757" y="561" on="1"/>
        <pt x="396" y="-5" on="1"/>
        <pt x="365" y="-5" on="1"/>
        <pt x="280" y="562" on="1"/>
        <pt x="131" y="62" on="1"/>
        <pt x="210" y="41" on="1"/>
        <pt x="200" y="0" on="1"/>
      </contour>
    </TTGlyph>
    <TTGlyph name="N" xMin="-20" yMin="0" xMax="801" yMax="700">
      <contour>
        <pt x="-20" y="0" on="1"/>
        <pt x="-10" y="41" on="1"/>
        <pt x="82" y="63" on="1"/>
        <pt x="225" y="637" on="1"/>
        <pt x="144" y="659" on="1"/>
        <pt x="154" y="700" on="1"/>
        <pt x="290" y="700" on="1"/>
        <pt x="525" y="200" on="1"/>
        <pt x="634" y="637" on="1"/>
        <pt x="554" y="659" on="1"/>
        <pt x="564" y="700" on="1"/>
        <pt x="801" y="700" on="1"/>
        <pt x="791" y="659" on="1"/>
        <pt x="698" y="637" on="1"/>
        <pt x="540" y="0" on="1"/>
        <pt x="514" y="0" on="1"/>
        <pt x="263" y="532" on="1"/>
        <pt x="146" y="63" on="1"/>
        <pt x="227" y="41" on="1"/>
        <pt x="217" y="0" on="1"/>
      </contour>
    </TTGlyph>
    <TTGlyph name="Ntilde" xMin="-20" yMin="0" xMax="801" yMax="885">
      <component glyphName="N" x="0" y="0" flags="0x204"/>
      <component glyphName="tilde.case" x="296" y="-19" flags="0x4"/>
    </TTGlyph>
    <TTGlyph name="O" xMin="54" yMin="-7" xMax="693" yMax="708">
      <contour>
        <pt x="54" y="233" on="1"/>
        <pt x="54" y="354" on="0"/>
        <pt x="152" y="570" on="0"/>
        <pt x="339" y="708" on="0"/>
        <pt x="455" y="708" on="1"/>
        <pt x="572" y="708" on="0"/>
        <pt x="693" y="573" on="0"/>
        <pt x="693" y="467" on="1"/>
        <pt x="693" y="378" on="0"/>
        <pt x="635" y="208" on="0"/>
        <pt x="534" y="74" on="0"/>
        <pt x="381" y="-7" on="0"/>
        <pt x="293" y="-7" on="1"/>
        <pt x="176" y="-7" on="0"/>
        <pt x="54" y="128" on="0"/>
      </contour>
      <contour>
        <pt x="156" y="224" on="1"/>
        <pt x="156" y="142" on="0"/>
        <pt x="229" y="46" on="0"/>
        <pt x="301" y="46" on="1"/>
        <pt x="369" y="46" on="0"/>
        <pt x="482" y="130" on="0"/>
        <pt x="552" y="261" on="0"/>
        <pt x="591" y="409" on="0"/>
        <pt x="591" y="478" on="1"/>
        <pt x="591" y="559" on="0"/>
        <pt x="517" y="653" on="0"/>
        <pt x="445" y="653" on="1"/>
        <pt x="379" y="653" on="0"/>
        <pt x="265" y="569" on="0"/>
        <pt x="195" y="439" on="0"/>
        <pt x="156" y="292" on="0"/>
      </contour>
    </TTGlyph>
    <TTGlyph name="OE" xMin="54" yMin="-7" xMax="1040" yMax="706">
      <contour>
        <pt x="54" y="233" on="1"/>
        <pt x="54" y="354" on="0"/>
        <pt x="148" y="567" on="0"/>
        <pt x="338" y="706" on="0"/>
        <pt x="461" y="706" on="1"/>
        <pt x="589" y="706" on="0"/>
        <pt x="634" y="593" on="1"/>
        <pt x="661" y="700" on="1"/>
        <pt x="1040" y="700" on="1"/>
        <pt x="989" y="495" on="1"/>
        <pt x="951" y="495" on="1"/>
        <pt x="945" y="638" on="1"/>
        <pt x="743" y="638" on="1"/>
        <pt x="678" y="381" on="1"/>
        <pt x="881" y="401" on="1"/>
        <pt x="861" y="317" on="1"/>
        <pt x="667" y="335" on="1"/>
        <pt x="599" y="62" on="1"/>
        <pt x="800" y="62" on="1"/>
        <pt x="909" y="216" on="1"/>
        <pt x="947" y="216" on="1"/>
        <pt x="866" y="0" on="1"/>
        <pt x="487" y="0" on="1"/>
        <pt x="514" y="109" on="1"/>
        <pt x="425" y="-7" on="0"/>
        <pt x="283" y="-7" on="1"/>
        <pt x="166" y="-7" on="0"/>
        <pt x="54" y="126" on="0"/>
      </contour>
      <contour>
        <pt x="156" y="213" on="1"/>
        <pt x="156" y="47" on="0"/>
        <pt x="296" y="47" on="1"/>
        <pt x="366" y="47" on="0"/>
        <pt x="483" y="140" on="0"/>
        <pt x="553" y="280" on="0"/>
        <pt x="591" y="426" on="0"/>
        <pt x="591" y="487" on="1"/>
        <pt x="591" y="652" on="0"/>
        <pt x="451" y="652" on="1"/>
        <pt x="381" y="652" on="0"/>
        <pt x="264" y="559" on="0"/>
        <pt x="194" y="420" on="0"/>
        <pt x="156" y="274" on="0"/>
      </contour>
    </TTGlyph>
    <TTGlyph name="Oacute" xMin="54" yMin="-7" xMax="693" yMax="890">
      <component glyphName="O" x="0" y="0" flags="0x204"/>
      <component glyphName="acute.case" x="378" y="0" flags="0x4"/>
    </TTGlyph>
    <TTGlyph name="Ocircumflex" xMin="54" yMin="-7" xMax="693" yMax="899">
      <component glyphName="O" x="0" y="0" flags="0x204"/>
      <component glyphName="circumflex.case" x="303" y="-4" flags="0x4"/>
    </TTGlyph>
    <TTGlyph name="Odieresis" xMin="54" yMin="-7" xMax="693" yMax="893">
      <component glyphName="O" x="0" y="0" flags="0x204"/>
      <component glyphName="dieresis.case" x="301" y="0" flags="0x4"/>
    </TTGlyph>
    <TTGlyph name="Ograve" xMin="54" yMin="-7" xMax="693" yMax="890">
      <component glyphName="O" x="0" y="0" flags="0x204"/>
      <component glyphName="grave.case" x="331" y="0" flags="0x4"/>
    </TTGlyph>
    <TTGlyph name="Oslash" xMin="54" yMin="-40" xMax="693" yMax="739">
      <contour>
        <pt x="150" y="-40" on="1"/>
        <pt x="178" y="14" on="1"/>
        <pt x="141" y="30" on="0"/>
        <pt x="114" y="60" on="1"/>
        <pt x="54" y="127" on="0"/>
        <pt x="54" y="233" on="1"/>
        <pt x="54" y="353" on="0"/>
        <pt x="152" y="569" on="0"/>
        <pt x="339" y="708" on="0"/>
        <pt x="455" y="708" on="1"/>
        <pt x="500" y="708" on="0"/>
        <pt x="537" y="698" on="1"/>
        <pt x="559" y="739" on="1"/>
        <pt x="623" y="739" on="1"/>
        <pt x="590" y="675" on="1"/>
        <pt x="614" y="661" on="0"/>
        <pt x="632" y="640" on="1"/>
        <pt x="693" y="573" on="0"/>
        <pt x="693" y="467" on="1"/>
        <pt x="693" y="378" on="0"/>
        <pt x="635" y="208" on="0"/>
        <pt x="534" y="74" on="0"/>
        <pt x="381" y="-7" on="0"/>
        <pt x="293" y="-7" on="1"/>
        <pt x="262" y="-7" on="0"/>
        <pt x="234" y="-2" on="1"/>
        <pt x="215" y="-40" on="1"/>
      </contour>
      <contour>
        <pt x="156" y="223" on="1"/>
        <pt x="156" y="141" on="0"/>
        <pt x="192" y="94" on="1"/>
        <pt x="200" y="83" on="0"/>
        <pt x="210" y="75" on="1"/>
        <pt x="508" y="641" on="1"/>
        <pt x="481" y="653" on="0"/>
        <pt x="445" y="653" on="1"/>
        <pt x="379" y="653" on="0"/>
        <pt x="265" y="569" on="0"/>
        <pt x="195" y="439" on="0"/>
        <pt x="156" y="291" on="0"/>
      </contour>
      <contour>
        <pt x="301" y="47" on="1"/>
        <pt x="368" y="47" on="0"/>
        <pt x="482" y="131" on="0"/>
        <pt x="552" y="261" on="0"/>
        <pt x="591" y="408" on="0"/>
        <pt x="591" y="477" on="1"/>
        <pt x="591" y="559" on="0"/>
        <pt x="554" y="606" on="1"/>
        <pt x="553" y="606" on="1"/>
        <pt x="262" y="51" on="1"/>
        <pt x="280" y="47" on="0"/>
      </contour>
    </TTGlyph>
    <TTGlyph name="Otilde" xMin="54" yMin="-7" xMax="693" yMax="895">
      <component glyphName="O" x="0" y="0" flags="0x204"/>
      <component glyphName="tilde.case" x="284" y="-9" flags="0x4"/>
    </TTGlyph>
    <TTGlyph name="P" xMin="-20" yMin="0" xMax="601" yMax="700">
      <contour>
        <pt x="-20" y="0" on="1"/>
        <pt x="-10" y="41" on="1"/>
        <pt x="82" y="63" on="1"/>
        <pt x="225" y="637" on="1"/>
        <pt x="144" y="659" on="1"/>
        <pt x="154" y="700" on="1"/>
        <pt x="387" y="700" on="1"/>
        <pt x="484" y="700" on="0"/>
        <pt x="601" y="611" on="0"/>
        <pt x="601" y="526" on="1"/>
        <pt x="601" y="402" on="0"/>
        <pt x="433" y="264" on="0"/>
        <pt x="301" y="264" on="1"/>
        <pt x="266" y="264" on="0"/>
        <pt x="230" y="270" on="1"/>
        <pt x="178" y="63" on="1"/>
        <pt x="288" y="41" on="1"/>
        <pt x="278" y="0" on="1"/>
      </contour>
      <contour>
        <pt x="244" y="328" on="1"/>
        <pt x="272" y="324" on="0"/>
        <pt x="307" y="324" on="1"/>
        <pt x="395" y="324" on="0"/>
        <pt x="501" y="431" on="0"/>
        <pt x="501" y="522" on="1"/>
        <pt x="501" y="579" on="0"/>
        <pt x="436" y="642" on="0"/>
        <pt x="373" y="642" on="1"/>
        <pt x="323" y="642" on="1"/>
      </contour>
    </TTGlyph>
    <TTGlyph name="Q" xMin="54" yMin="-210" xMax="781" yMax="708">
      <contour>
        <pt x="54" y="233" on="1"/>
        <pt x="54" y="354" on="0"/>
        <pt x="152" y="570" on="0"/>
        <pt x="339" y="708" on="0"/>
        <pt x="455" y="708" on="1"/>
        <pt x="572" y="708" on="0"/>
        <pt x="693" y="573" on="0"/>
        <pt x="693" y="467" on="1"/>
        <pt x="693" y="378" on="0"/>
        <pt x="636" y="208" on="0"/>
        <pt x="534" y="77" on="0"/>
        <pt x="421" y="12" on="0"/>
        <pt x="372" y="1" on="1"/>
        <pt x="423" y="-10" on="0"/>
        <pt x="470" y="-38" on="1"/>
        <pt x="560" y="-94" on="1"/>
        <pt x="601" y="-118" on="0"/>
        <pt x="644" y="-118" on="1"/>
        <pt x="709" y="-118" on="0"/>
        <pt x="755" y="-53" on="1"/>
        <pt x="781" y="-68" on="1"/>
        <pt x="744" y="-143" on="0"/>
        <pt x="667" y="-210" on="0"/>
        <pt x="620" y="-210" on="1"/>
        <pt x="586" y="-210" on="0"/>
        <pt x="525" y="-180" on="0"/>
        <pt x="498" y="-156" on="1"/>
        <pt x="442" y="-104" on="1"/>
        <pt x="413" y="-77" on="0"/>
        <pt x="331" y="-23" on="0"/>
        <pt x="283" y="-7" on="1"/>
        <pt x="173" y="-4" on="0"/>
        <pt x="54" y="128" on="0"/>
      </contour>
      <contour>
        <pt x="156" y="224" on="1"/>
        <pt x="156" y="142" on="0"/>
        <pt x="229" y="46" on="0"/>
        <pt x="301" y="46" on="1"/>
        <pt x="369" y="46" on="0"/>
        <pt x="482" y="130" on="0"/>
        <pt x="552" y="261" on="0"/>
        <pt x="591" y="409" on="0"/>
        <pt x="591" y="478" on="1"/>
        <pt x="591" y="559" on="0"/>
        <pt x="517" y="653" on="0"/>
        <pt x="445" y="653" on="1"/>
        <pt x="379" y="653" on="0"/>
        <pt x="265" y="569" on="0"/>
        <pt x="195" y="439" on="0"/>
        <pt x="156" y="292" on="0"/>
      </contour>
    </TTGlyph>
    <TTGlyph name="R" xMin="-20" yMin="-7" xMax="606" yMax="700">
      <contour>
        <pt x="-20" y="0" on="1"/>
        <pt x="-10" y="41" on="1"/>
        <pt x="82" y="63" on="1"/>
        <pt x="225" y="637" on="1"/>
        <pt x="144" y="659" on="1"/>
        <pt x="154" y="700" on="1"/>
        <pt x="396" y="700" on="1"/>
        <pt x="492" y="700" on="0"/>
        <pt x="606" y="620" on="0"/>
        <pt x="606" y="543" on="1"/>
        <pt x="606" y="450" on="0"/>
        <pt x="494" y="337" on="0"/>
        <pt x="408" y="327" on="1"/>
        <pt x="436" y="233" on="1"/>
        <pt x="460" y="148" on="0"/>
        <pt x="523" y="53" on="0"/>
        <pt x="587" y="34" on="1"/>
        <pt x="576" y="-7" on="1"/>
        <pt x="480" y="-3" on="0"/>
        <pt x="381" y="100" on="0"/>
        <pt x="351" y="198" on="1"/>
        <pt x="315" y="312" on="1"/>
        <pt x="240" y="311" on="1"/>
        <pt x="178" y="63" on="1"/>
        <pt x="260" y="41" on="1"/>
        <pt x="250" y="0" on="1"/>
      </contour>
      <contour>
        <pt x="254" y="366" on="1"/>
        <pt x="313" y="366" on="1"/>
        <pt x="395" y="367" on="0"/>
        <pt x="506" y="459" on="0"/>
        <pt x="506" y="541" on="1"/>
        <pt x="506" y="589" on="0"/>
        <pt x="442" y="642" on="0"/>
        <pt x="382" y="642" on="1"/>
        <pt x="323" y="642" on="1"/>
      </contour>
    </TTGlyph>
    <TTGlyph name="S" xMin="-1" yMin="-7" xMax="549" yMax="708">
      <contour>
        <pt x="-1" y="40" on="1"/>
        <pt x="55" y="224" on="1"/>
        <pt x="94" y="224" on="1"/>
        <pt x="94" y="63" on="1"/>
        <pt x="138" y="46" on="0"/>
        <pt x="191" y="46" on="1"/>
        <pt x="264" y="46" on="0"/>
        <pt x="369" y="105" on="0"/>
        <pt x="369" y="167" on="1"/>
        <pt x="369" y="207" on="0"/>
        <pt x="318" y="276" on="0"/>
        <pt x="281" y="302" on="1"/>
        <pt x="208" y="356" on="1"/>
        <pt x="172" y="384" on="0"/>
        <pt x="120" y="465" on="0"/>
        <pt x="120" y="514" on="1"/>
        <pt x="120" y="607" on="0"/>
        <pt x="260" y="708" on="0"/>
        <pt x="369" y="708" on="1"/>
        <pt x="473" y="708" on="0"/>
        <pt x="549" y="676" on="1"/>
        <pt x="494" y="492" on="1"/>
        <pt x="456" y="492" on="1"/>
        <pt x="456" y="645" on="1"/>
        <pt x="427" y="653" on="0"/>
        <pt x="379" y="653" on="1"/>
        <pt x="310" y="653" on="0"/>
        <pt x="216" y="600" on="0"/>
        <pt x="216" y="539" on="1"/>
        <pt x="216" y="510" on="0"/>
        <pt x="254" y="454" on="0"/>
        <pt x="283" y="432" on="1"/>
        <pt x="346" y="382" on="1"/>
        <pt x="380" y="355" on="0"/>
        <pt x="437" y="302" on="0"/>
        <pt x="475" y="228" on="0"/>
        <pt x="475" y="187" on="1"/>
        <pt x="475" y="90" on="0"/>
        <pt x="332" y="-7" on="0"/>
        <pt x="208" y="-7" on="1"/>
        <pt x="90" y="-7" on="0"/>
      </contour>
    </TTGlyph>
    <TTGlyph name="T" xMin="80" yMin="0" xMax="663" yMax="700">
      <contour>
        <pt x="80" y="488" on="1"/>
        <pt x="133" y="700" on="1"/>
        <pt x="663" y="700" on="1"/>
        <pt x="610" y="488" on="1"/>
        <pt x="572" y="488" on="1"/>
        <pt x="567" y="638" on="1"/>
        <pt x="432" y="638" on="1"/>
        <pt x="288" y="63" on="1"/>
        <pt x="369" y="41" on="1"/>
        <pt x="359" y="0" on="1"/>
        <pt x="89" y="0" on="1"/>
        <pt x="99" y="41" on="1"/>
        <pt x="191" y="63" on="1"/>
        <pt x="335" y="638" on="1"/>
        <pt x="199" y="638" on="1"/>
        <pt x="119" y="488" on="1"/>
      </contour>
    </TTGlyph>
    <TTGlyph name="Thorn" xMin="-20" yMin="0" xMax="565" yMax="700">
      <contour>
        <pt x="-20" y="0" on="1"/>
        <pt x="-10" y="41" on="1"/>
        <pt x="82" y="63" on="1"/>
        <pt x="225" y="637" on="1"/>
        <pt x="144" y="659" on="1"/>
        <pt x="154" y="700" on="1"/>
        <pt x="424" y="700" on="1"/>
        <pt x="414" y="659" on="1"/>
        <pt x="321" y="637" on="1"/>
        <pt x="299" y="548" on="1"/>
        <pt x="351" y="548" on="1"/>
        <pt x="446" y="548" on="0"/>
        <pt x="565" y="471" on="0"/>
        <pt x="565" y="390" on="1"/>
        <pt x="565" y="276" on="0"/>
        <pt x="404" y="152" on="0"/>
        <pt x="265" y="152" on="1"/>
        <pt x="200" y="152" on="1"/>
        <pt x="178" y="63" on="1"/>
        <pt x="260" y="41" on="1"/>
        <pt x="250" y="0" on="1"/>
      </contour>
      <contour>
        <pt x="215" y="212" on="1"/>
        <pt x="271" y="212" on="1"/>
        <pt x="364" y="212" on="0"/>
        <pt x="464" y="302" on="0"/>
        <pt x="464" y="383" on="1"/>
        <pt x="464" y="435" on="0"/>
        <pt x="398" y="490" on="0"/>
        <pt x="337" y="490" on="1"/>
        <pt x="284" y="490" on="1"/>
      </contour>
    </TTGlyph>
    <TTGlyph name="U" xMin="97" yMin="-7" xMax="807" yMax="700">
      <contour>
        <pt x="97" y="169" on="1"/>
        <pt x="97" y="214" on="0"/>
        <pt x="111" y="269" on="1"/>
        <pt x="203" y="637" on="1"/>
        <pt x="122" y="659" on="1"/>
        <pt x="132" y="700" on="1"/>
        <pt x="402" y="700" on="1"/>
        <pt x="392" y="659" on="1"/>
        <pt x="299" y="637" on="1"/>
        <pt x="207" y="269" on="1"/>
        <pt x="193" y="211" on="0"/>
        <pt x="193" y="184" on="1"/>
        <pt x="193" y="123" on="0"/>
        <pt x="271" y="64" on="0"/>
        <pt x="338" y="64" on="1"/>
        <pt x="414" y="64" on="0"/>
        <pt x="524" y="172" on="0"/>
        <pt x="548" y="269" on="1"/>
        <pt x="640" y="637" on="1"/>
        <pt x="560" y="659" on="1"/>
        <pt x="570" y="700" on="1"/>
        <pt x="807" y="700" on="1"/>
        <pt x="797" y="659" on="1"/>
        <pt x="704" y="637" on="1"/>
        <pt x="612" y="269" on="1"/>
        <pt x="578" y="131" on="0"/>
        <pt x="419" y="-7" on="0"/>
        <pt x="301" y="-7" on="1"/>
        <pt x="210" y="-7" on="0"/>
        <pt x="97" y="81" on="0"/>
      </contour>
    </TTGlyph>
    <TTGlyph name="Uacute" xMin="97" yMin="-7" xMax="807" yMax="890">
      <component glyphName="U" x="0" y="0" flags="0x204"/>
      <component glyphName="acute.case" x="407" y="0" flags="0x4"/>
    </TTGlyph>
    <TTGlyph name="Ucircumflex" xMin="97" yMin="-7" xMax="807" yMax="903">
      <component glyphName="U" x="0" y="0" flags="0x204"/>
      <component glyphName="circumflex.case" x="331" y="0" flags="0x4"/>
    </TTGlyph>
    <TTGlyph name="Udieresis" xMin="97" yMin="-7" xMax="807" yMax="893">
      <component glyphName="U" x="0" y="0" flags="0x204"/>
      <component glyphName="dieresis.case" x="334" y="0" flags="0x4"/>
    </TTGlyph>
    <TTGlyph name="Ugrave" xMin="97" yMin="-7" xMax="807" yMax="890">
      <component glyphName="U" x="0" y="0" flags="0x204"/>
      <component glyphName="grave.case" x="345" y="0" flags="0x4"/>
    </TTGlyph>
    <TTGlyph name="V" xMin="85" yMin="-7" xMax="743" yMax="700">
      <contour>
        <pt x="85" y="659" on="1"/>
        <pt x="95" y="700" on="1"/>
        <pt x="347" y="700" on="1"/>
        <pt x="337" y="659" on="1"/>
        <pt x="260" y="642" on="1"/>
        <pt x="298" y="146" on="1"/>
        <pt x="571" y="637" on="1"/>
        <pt x="501" y="659" on="1"/>
        <pt x="511" y="700" on="1"/>
        <pt x="743" y="700" on="1"/>
        <pt x="733" y="659" on="1"/>
        <pt x="641" y="637" on="1"/>
        <pt x="283" y="-7" on="1"/>
        <pt x="213" y="-7" on="1"/>
        <pt x="163" y="637" on="1"/>
      </contour>
    </TTGlyph>
    <TTGlyph name="W" xMin="84" yMin="-7" xMax="1039" yMax="700">
      <contour>
        <pt x="84" y="659" on="1"/>
        <pt x="94" y="700" on="1"/>
        <pt x="344" y="700" on="1"/>
        <pt x="334" y="659" on="1"/>
        <pt x="257" y="641" on="1"/>
        <pt x="279" y="166" on="1"/>
        <pt x="550" y="700" on="1"/>
        <pt x="611" y="700" on="1"/>
        <pt x="639" y="167" on="1"/>
        <pt x="869" y="637" on="1"/>
        <pt x="790" y="659" on="1"/>
        <pt x="800" y="700" on="1"/>
        <pt x="1039" y="700" on="1"/>
        <pt x="1029" y="659" on="1"/>
        <pt x="937" y="637" on="1"/>
        <pt x="622" y="-7" on="1"/>
        <pt x="553" y="-7" on="1"/>
        <pt x="524" y="516" on="1"/>
        <pt x="260" y="-7" on="1"/>
        <pt x="191" y="-7" on="1"/>
        <pt x="161" y="638" on="1"/>
      </contour>
    </TTGlyph>
    <TTGlyph name="X" xMin="-74" yMin="0" xMax="747" yMax="700">
      <contour>
        <pt x="-74" y="0" on="1"/>
        <pt x="-64" y="41" on="1"/>
        <pt x="28" y="63" on="1"/>
        <pt x="296" y="362" on="1"/>
        <pt x="200" y="636" on="1"/>
        <pt x="120" y="659" on="1"/>
        <pt x="130" y="700" on="1"/>
        <pt x="371" y="700" on="1"/>
        <pt x="361" y="659" on="1"/>
        <pt x="298" y="643" on="1"/>
        <pt x="375" y="424" on="1"/>
        <pt x="561" y="639" on="1"/>
        <pt x="488" y="659" on="1"/>
        <pt x="498" y="700" on="1"/>
        <pt x="747" y="700" on="1"/>
        <pt x="737" y="659" on="1"/>
        <pt x="644" y="637" on="1"/>
        <pt x="398" y="359" on="1"/>
        <pt x="502" y="62" on="1"/>
        <pt x="582" y="41" on="1"/>
        <pt x="572" y="0" on="1"/>
        <pt x="330" y="0" on="1"/>
        <pt x="340" y="41" on="1"/>
        <pt x="403" y="56" on="1"/>
        <pt x="319" y="296" on="1"/>
        <pt x="112" y="61" on="1"/>
        <pt x="185" y="41" on="1"/>
        <pt x="175" y="0" on="1"/>
      </contour>
    </TTGlyph>
    <TTGlyph name="Y" xMin="77" yMin="0" xMax="714" yMax="700">
      <contour>
        <pt x="77" y="659" on="1"/>
        <pt x="87" y="700" on="1"/>
        <pt x="324" y="700" on="1"/>
        <pt x="314" y="659" on="1"/>
        <pt x="250" y="646" on="1"/>
        <pt x="343" y="385" on="1"/>
        <pt x="547" y="639" on="1"/>
        <pt x="473" y="659" on="1"/>
        <pt x="483" y="700" on="1"/>
        <pt x="714" y="700" on="1"/>
        <pt x="704" y="659" on="1"/>
        <pt x="628" y="637" on="1"/>
        <pt x="369" y="318" on="1"/>
        <pt x="306" y="63" on="1"/>
        <pt x="394" y="41" on="1"/>
        <pt x="384" y="0" on="1"/>
        <pt x="115" y="0" on="1"/>
        <pt x="125" y="41" on="1"/>
        <pt x="209" y="63" on="1"/>
        <pt x="271" y="313" on="1"/>
        <pt x="151" y="639" on="1"/>
      </contour>
    </TTGlyph>
    <TTGlyph name="Yacute" xMin="77" yMin="0" xMax="714" yMax="890">
      <component glyphName="Y" x="0" y="0" flags="0x204"/>
      <component glyphName="acute.case" x="346" y="0" flags="0x4"/>
    </TTGlyph>
    <TTGlyph name="Z" xMin="-20" yMin="0" xMax="632" yMax="700">
      <contour>
        <pt x="-20" y="0" on="1"/>
        <pt x="-5" y="62" on="1"/>
        <pt x="493" y="638" on="1"/>
        <pt x="226" y="638" on="1"/>
        <pt x="149" y="495" on="1"/>
        <pt x="111" y="495" on="1"/>
        <pt x="162" y="700" on="1"/>
        <pt x="632" y="700" on="1"/>
        <pt x="617" y="638" on="1"/>
        <pt x="120" y="62" on="1"/>
        <pt x="404" y="62" on="1"/>
        <pt x="512" y="216" on="1"/>
        <pt x="551" y="216" on="1"/>
        <pt x="470" y="0" on="1"/>
      </contour>
    </TTGlyph>
    <TTGlyph name="a" xMin="24" yMin="-7" xMax="503" yMax="507">
      <contour>
        <pt x="24" y="137" on="1"/>
        <pt x="24" y="291" on="0"/>
        <pt x="209" y="507" on="0"/>
        <pt x="340" y="507" on="1"/>
        <pt x="433" y="507" on="0"/>
        <pt x="503" y="461" on="1"/>
        <pt x="402" y="69" on="1"/>
        <pt x="502" y="69" on="1"/>
        <pt x="502" y="37" on="1"/>
        <pt x="428" y="14" on="0"/>
        <pt x="351" y="-7" on="0"/>
        <pt x="338" y="-7" on="1"/>
        <pt x="303" y="-7" on="0"/>
        <pt x="303" y="23" on="1"/>
        <pt x="303" y="38" on="0"/>
        <pt x="310" y="64" on="1"/>
        <pt x="319" y="100" on="1"/>
        <pt x="235" y="-7" on="0"/>
        <pt x="135" y="-7" on="1"/>
        <pt x="87" y="-7" on="0"/>
        <pt x="24" y="63" on="0"/>
      </contour>
      <contour>
        <pt x="122" y="159" on="1"/>
        <pt x="122" y="62" on="0"/>
        <pt x="184" y="62" on="1"/>
        <pt x="218" y="62" on="0"/>
        <pt x="309" y="138" on="0"/>
        <pt x="343" y="191" on="1"/>
        <pt x="412" y="456" on="1"/>
        <pt x="391" y="463" on="0"/>
        <pt x="362" y="463" on="1"/>
        <pt x="292" y="463" on="0"/>
        <pt x="179" y="368" on="0"/>
        <pt x="122" y="231" on="0"/>
      </contour>
    </TTGlyph>
    <TTGlyph name="aacute" xMin="24" yMin="-7" xMax="526" yMax="767">
      <component glyphName="a" x="0" y="0" flags="0x204"/>
      <component glyphName="acute" x="321" y="0" flags="0x4"/>
    </TTGlyph>
    <TTGlyph name="acircumflex" xMin="24" yMin="-7" xMax="526" yMax="771">
      <component glyphName="a" x="0" y="0" flags="0x204"/>
      <component glyphName="circumflex" x="232" y="0" flags="0x4"/>
    </TTGlyph>
    <TTGlyph name="acute" xMin="10" yMin="564" xMax="205" yMax="767">
      <contour>
        <pt x="10" y="591" on="1"/>
        <pt x="111" y="767" on="1"/>
        <pt x="172" y="756" on="0"/>
        <pt x="205" y="715" on="1"/>
        <pt x="46" y="564" on="1"/>
      </contour>
    </TTGlyph>
    <TTGlyph name="acute.case" xMin="9" yMin="740" xMax="225" yMax="890">
      <contour>
        <pt x="9" y="771" on="1"/>
        <pt x="143" y="890" on="1"/>
        <pt x="168" y="881" on="0"/>
        <pt x="212" y="837" on="0"/>
        <pt x="225" y="811" on="1"/>
        <pt x="36" y="740" on="1"/>
      </contour>
    </TTGlyph>
    <TTGlyph name="adieresis" xMin="24" yMin="-7" xMax="550" yMax="758">
      <component glyphName="a" x="0" y="0" flags="0x204"/>
      <component glyphName="dieresis" x="189" y="0" flags="0x4"/>
    </TTGlyph>
    <TTGlyph name="ae" xMin="8" yMin="-7" xMax="732" yMax="507">
      <contour>
        <pt x="8" y="99" on="1"/>
        <pt x="8" y="186" on="0"/>
        <pt x="93" y="230" on="1"/>
        <pt x="177" y="273" on="0"/>
        <pt x="317" y="274" on="1"/>
        <pt x="323" y="293" on="0"/>
        <pt x="331" y="312" on="1"/>
        <pt x="343" y="354" on="0"/>
        <pt x="343" y="386" on="1"/>
        <pt x="343" y="425" on="0"/>
        <pt x="299" y="470" on="0"/>
        <pt x="258" y="470" on="1"/>
        <pt x="208" y="470" on="0"/>
        <pt x="166" y="405" on="0"/>
        <pt x="165" y="335" on="1"/>
        <pt x="128" y="335" on="0"/>
        <pt x="74" y="369" on="0"/>
        <pt x="74" y="405" on="1"/>
        <pt x="75" y="452" on="0"/>
        <pt x="174" y="507" on="0"/>
        <pt x="241" y="507" on="1"/>
        <pt x="368" y="507" on="0"/>
        <pt x="415" y="430" on="1"/>
        <pt x="435" y="454" on="0"/>
        <pt x="541" y="507" on="0"/>
        <pt x="607" y="507" on="1"/>
        <pt x="663" y="507" on="0"/>
        <pt x="732" y="456" on="0"/>
        <pt x="732" y="407" on="1"/>
        <pt x="732" y="349" on="0"/>
        <pt x="637" y="265" on="0"/>
        <pt x="493" y="226" on="0"/>
        <pt x="404" y="223" on="1"/>
        <pt x="401" y="205" on="0"/>
        <pt x="401" y="187" on="1"/>
        <pt x="401" y="126" on="0"/>
        <pt x="457" y="42" on="0"/>
        <pt x="513" y="42" on="1"/>
        <pt x="565" y="42" on="0"/>
        <pt x="636" y="69" on="1"/>
        <pt x="645" y="38" on="1"/>
        <pt x="555" y="-7" on="0"/>
        <pt x="461" y="-7" on="1"/>
        <pt x="357" y="-7" on="0"/>
        <pt x="320" y="64" on="1"/>
        <pt x="283" y="35" on="0"/>
        <pt x="191" y="-7" on="0"/>
        <pt x="130" y="-7" on="1"/>
        <pt x="73" y="-7" on="0"/>
        <pt x="8" y="54" on="0"/>
      </contour>
      <contour>
        <pt x="412" y="269" on="1"/>
        <pt x="524" y="283" on="0"/>
        <pt x="639" y="361" on="0"/>
        <pt x="639" y="413" on="1"/>
        <pt x="639" y="439" on="0"/>
        <pt x="611" y="470" on="0"/>
        <pt x="588" y="470" on="1"/>
        <pt x="526" y="470" on="0"/>
        <pt x="428" y="359" on="0"/>
      </contour>
      <contour>
        <pt x="300" y="162" on="1"/>
        <pt x="300" y="196" on="0"/>
        <pt x="306" y="229" on="1"/>
        <pt x="223" y="228" on="0"/>
        <pt x="167" y="198" on="1"/>
        <pt x="111" y="168" on="0"/>
        <pt x="111" y="115" on="1"/>
        <pt x="111" y="89" on="0"/>
        <pt x="144" y="53" on="0"/>
        <pt x="179" y="53" on="1"/>
        <pt x="246" y="53" on="0"/>
        <pt x="306" y="103" on="1"/>
        <pt x="300" y="129" on="0"/>
      </contour>
    </TTGlyph>
    <TTGlyph name="agrave" xMin="24" yMin="-7" xMax="503" yMax="767">
      <component glyphName="a" x="0" y="0" flags="0x204"/>
      <component glyphName="grave" x="224" y="0" flags="0x4"/>
    </TTGlyph>
    <TTGlyph name="ampersand" xMin="46" yMin="-7" xMax="769" yMax="708">
      <contour>
        <pt x="46" y="173" on="1"/>
        <pt x="46" y="271" on="0"/>
        <pt x="176" y="398" on="0"/>
        <pt x="283" y="411" on="1"/>
        <pt x="284" y="413" on="1"/>
        <pt x="235" y="423" on="0"/>
        <pt x="177" y="491" on="0"/>
        <pt x="177" y="536" on="1"/>
        <pt x="177" y="616" on="0"/>
        <pt x="303" y="708" on="0"/>
        <pt x="410" y="708" on="1"/>
        <pt x="485" y="708" on="0"/>
        <pt x="570" y="657" on="0"/>
        <pt x="570" y="615" on="1"/>
        <pt x="570" y="579" on="0"/>
        <pt x="515" y="545" on="0"/>
        <pt x="476" y="545" on="1"/>
        <pt x="467" y="545" on="0"/>
        <pt x="463" y="546" on="1"/>
        <pt x="472" y="570" on="0"/>
        <pt x="472" y="592" on="1"/>
        <pt x="472" y="624" on="0"/>
        <pt x="436" y="667" on="0"/>
        <pt x="401" y="667" on="1"/>
        <pt x="349" y="667" on="0"/>
        <pt x="280" y="587" on="0"/>
        <pt x="280" y="530" on="1"/>
        <pt x="280" y="482" on="0"/>
        <pt x="343" y="428" on="0"/>
        <pt x="401" y="428" on="1"/>
        <pt x="395" y="377" on="1"/>
        <pt x="357" y="377" on="0"/>
        <pt x="276" y="355" on="0"/>
        <pt x="201" y="312" on="0"/>
        <pt x="153" y="235" on="0"/>
        <pt x="153" y="186" on="1"/>
        <pt x="153" y="125" on="0"/>
        <pt x="232" y="56" on="0"/>
        <pt x="306" y="56" on="1"/>
        <pt x="398" y="56" on="0"/>
        <pt x="543" y="178" on="0"/>
        <pt x="576" y="254" on="1"/>
        <pt x="547" y="254" on="1"/>
        <pt x="454" y="254" on="0"/>
        <pt x="372" y="232" on="0"/>
        <pt x="333" y="186" on="1"/>
        <pt x="333" y="187" on="0"/>
        <pt x="314" y="200" on="0"/>
        <pt x="313" y="200" on="1"/>
        <pt x="331" y="237" on="0"/>
        <pt x="386" y="287" on="0"/>
        <pt x="457" y="310" on="0"/>
        <pt x="521" y="319" on="0"/>
        <pt x="562" y="319" on="1"/>
        <pt x="596" y="319" on="1"/>
        <pt x="652" y="319" on="0"/>
        <pt x="732" y="344" on="0"/>
        <pt x="746" y="385" on="1"/>
        <pt x="769" y="368" on="0"/>
        <pt x="769" y="330" on="1"/>
        <pt x="769" y="298" on="0"/>
        <pt x="717" y="254" on="0"/>
        <pt x="657" y="254" on="1"/>
        <pt x="627" y="254" on="1"/>
        <pt x="578" y="134" on="0"/>
        <pt x="399" y="-7" on="0"/>
        <pt x="266" y="-7" on="1"/>
        <pt x="162" y="-7" on="0"/>
        <pt x="46" y="88" on="0"/>
      </contour>
    </TTGlyph>
    <TTGlyph name="aring" xMin="24" yMin="-7" xMax="503" yMax="809">
      <component glyphName="a" x="0" y="0" flags="0x204"/>
      <component glyphName="ring" x="206" y="0" flags="0x4"/>
    </TTGlyph>
    <TTGlyph name="asciicircum" xMin="107" yMin="267" xMax="543" yMax="715">
      <contour>
        <pt x="107" y="267" on="1"/>
        <pt x="415" y="715" on="1"/>
        <pt x="456" y="715" on="1"/>
        <pt x="543" y="267" on="1"/>
        <pt x="480" y="267" on="1"/>
        <pt x="416" y="623" on="1"/>
        <pt x="177" y="267" on="1"/>
      </contour>
    </TTGlyph>
    <TTGlyph name="asciitilde" xMin="115" yMin="606" xMax="529" yMax="734">
      <contour>
        <pt x="115" y="643" on="1"/>
        <pt x="125" y="653" on="0"/>
        <pt x="159" y="683" on="0"/>
        <pt x="241" y="734" on="0"/>
        <pt x="270" y="734" on="1"/>
        <pt x="298" y="734" on="0"/>
        <pt x="343" y="702" on="0"/>
        <pt x="381" y="671" on="0"/>
        <pt x="401" y="671" on="1"/>
        <pt x="448" y="671" on="0"/>
        <pt x="513" y="720" on="1"/>
        <pt x="529" y="697" on="1"/>
        <pt x="519" y="687" on="0"/>
        <pt x="486" y="657" on="0"/>
        <pt x="404" y="606" on="0"/>
        <pt x="375" y="606" on="1"/>
        <pt x="347" y="606" on="0"/>
        <pt x="301" y="638" on="0"/>
        <pt x="263" y="669" on="0"/>
        <pt x="243" y="669" on="1"/>
        <pt x="199" y="669" on="0"/>
        <pt x="131" y="620" on="1"/>
      </contour>
    </TTGlyph>
    <TTGlyph name="asterisk" xMin="118" yMin="396" xMax="498" yMax="760">
      <contour>
        <pt x="118" y="595" on="1"/>
        <pt x="141" y="665" on="1"/>
        <pt x="281" y="609" on="1"/>
        <pt x="271" y="760" on="1"/>
        <pt x="345" y="760" on="1"/>
        <pt x="335" y="609" on="1"/>
        <pt x="475" y="664" on="1"/>
        <pt x="498" y="595" on="1"/>
        <pt x="352" y="556" on="1"/>
        <pt x="448" y="440" on="1"/>
        <pt x="389" y="396" on="1"/>
        <pt x="308" y="524" on="1"/>
        <pt x="228" y="396" on="1"/>
        <pt x="167" y="440" on="1"/>
        <pt x="264" y="557" on="1"/>
      </contour>
    </TTGlyph>
    <TTGlyph name="at" xMin="56" yMin="-117" xMax="852" yMax="708">
      <contour>
        <pt x="56" y="232" on="1"/>
        <pt x="56" y="432" on="0"/>
        <pt x="313" y="708" on="0"/>
        <pt x="520" y="708" on="1"/>
        <pt x="664" y="708" on="0"/>
        <pt x="852" y="545" on="0"/>
        <pt x="852" y="416" on="1"/>
        <pt x="852" y="275" on="0"/>
        <pt x="647" y="92" on="0"/>
        <pt x="496" y="92" on="1"/>
        <pt x="469" y="92" on="0"/>
        <pt x="469" y="115" on="1"/>
        <pt x="469" y="132" on="0"/>
        <pt x="488" y="175" on="1"/>
        <pt x="412" y="92" on="0"/>
        <pt x="329" y="92" on="1"/>
        <pt x="292" y="92" on="0"/>
        <pt x="245" y="142" on="0"/>
        <pt x="245" y="195" on="1"/>
        <pt x="245" y="331" on="0"/>
        <pt x="425" y="528" on="0"/>
        <pt x="540" y="528" on="1"/>
        <pt x="618" y="528" on="0"/>
        <pt x="686" y="489" on="1"/>
        <pt x="566" y="145" on="1"/>
        <pt x="660" y="159" on="0"/>
        <pt x="802" y="309" on="0"/>
        <pt x="802" y="416" on="1"/>
        <pt x="802" y="526" on="0"/>
        <pt x="640" y="665" on="0"/>
        <pt x="518" y="665" on="1"/>
        <pt x="407" y="665" on="0"/>
        <pt x="233" y="543" on="0"/>
        <pt x="143" y="351" on="0"/>
        <pt x="143" y="241" on="1"/>
        <pt x="143" y="101" on="0"/>
        <pt x="315" y="-62" on="0"/>
        <pt x="449" y="-62" on="1"/>
        <pt x="544" y="-62" on="0"/>
        <pt x="638" y="-24" on="1"/>
        <pt x="655" y="-58" on="1"/>
        <pt x="549" y="-117" on="0"/>
        <pt x="419" y="-117" on="1"/>
        <pt x="264" y="-117" on="0"/>
        <pt x="56" y="65" on="0"/>
      </contour>
      <contour>
        <pt x="341" y="218" on="1"/>
        <pt x="341" y="156" on="0"/>
        <pt x="381" y="156" on="1"/>
        <pt x="411" y="156" on="0"/>
        <pt x="487" y="218" on="0"/>
        <pt x="519" y="263" on="1"/>
        <pt x="595" y="481" on="1"/>
        <pt x="577" y="487" on="0"/>
        <pt x="553" y="487" on="1"/>
        <pt x="470" y="487" on="0"/>
        <pt x="341" y="324" on="0"/>
      </contour>
    </TTGlyph>
    <TTGlyph name="atilde" xMin="24" yMin="-7" xMax="560" yMax="753">
      <component glyphName="a" x="0" y="0" flags="0x204"/>
      <component glyphName="tilde" x="186" y="0" flags="0x4"/>
    </TTGlyph>
    <TTGlyph name="b" xMin="16" yMin="-7" xMax="495" yMax="807">
      <contour>
        <pt x="16" y="39" on="1"/>
        <pt x="199" y="731" on="1"/>
        <pt x="99" y="731" on="1"/>
        <pt x="99" y="763" on="1"/>
        <pt x="173" y="786" on="0"/>
        <pt x="250" y="807" on="0"/>
        <pt x="263" y="807" on="1"/>
        <pt x="298" y="807" on="0"/>
        <pt x="298" y="777" on="1"/>
        <pt x="298" y="762" on="0"/>
        <pt x="291" y="736" on="1"/>
        <pt x="203" y="403" on="1"/>
        <pt x="286" y="507" on="0"/>
        <pt x="384" y="507" on="1"/>
        <pt x="432" y="507" on="0"/>
        <pt x="495" y="437" on="0"/>
        <pt x="495" y="363" on="1"/>
        <pt x="495" y="209" on="0"/>
        <pt x="310" y="-7" on="0"/>
        <pt x="179" y="-7" on="1"/>
        <pt x="86" y="-7" on="0"/>
      </contour>
      <contour>
        <pt x="107" y="44" on="1"/>
        <pt x="128" y="37" on="0"/>
        <pt x="157" y="37" on="1"/>
        <pt x="227" y="37" on="0"/>
        <pt x="340" y="132" on="0"/>
        <pt x="397" y="269" on="0"/>
        <pt x="397" y="341" on="1"/>
        <pt x="397" y="438" on="0"/>
        <pt x="335" y="438" on="1"/>
        <pt x="301" y="438" on="0"/>
        <pt x="213" y="364" on="0"/>
        <pt x="178" y="312" on="1"/>
      </contour>
    </TTGlyph>
    <TTGlyph name="backslash" xMin="159" yMin="-121" xMax="214" yMax="760">
      <contour>
        <pt x="159" y="-121" on="1"/>
        <pt x="164" y="760" on="1"/>
        <pt x="214" y="760" on="1"/>
        <pt x="214" y="-121" on="1"/>
      </contour>
    </TTGlyph>
    <TTGlyph name="bar" xMin="118" yMin="-240" xMax="183" yMax="760">
      <contour>
        <pt x="118" y="-240" on="1"/>
        <pt x="118" y="760" on="1"/>
        <pt x="183" y="760" on="1"/>
        <pt x="183" y="-240" on="1"/>
      </contour>
    </TTGlyph>
    <TTGlyph name="braceleft" xMin="22" yMin="-128" xMax="446" yMax="760">
      <contour>
        <pt x="22" y="296" on="1"/>
        <pt x="33" y="338" on="1"/>
        <pt x="87" y="341" on="0"/>
        <pt x="156" y="386" on="0"/>
        <pt x="170" y="443" on="1"/>
        <pt x="213" y="617" on="1"/>
        <pt x="249" y="760" on="0"/>
        <pt x="384" y="760" on="1"/>
        <pt x="446" y="760" on="1"/>
        <pt x="435" y="717" on="1"/>
        <pt x="407" y="717" on="1"/>
        <pt x="330" y="717" on="0"/>
        <pt x="304" y="612" on="1"/>
        <pt x="261" y="441" on="1"/>
        <pt x="235" y="336" on="0"/>
        <pt x="127" y="318" on="1"/>
        <pt x="127" y="317" on="1"/>
        <pt x="206" y="302" on="0"/>
        <pt x="206" y="231" on="1"/>
        <pt x="206" y="214" on="0"/>
        <pt x="200" y="193" on="1"/>
        <pt x="156" y="20" on="1"/>
        <pt x="148" y="-9" on="0"/>
        <pt x="148" y="-28" on="1"/>
        <pt x="148" y="-85" on="0"/>
        <pt x="207" y="-85" on="1"/>
        <pt x="235" y="-85" on="1"/>
        <pt x="225" y="-128" on="1"/>
        <pt x="163" y="-128" on="1"/>
        <pt x="111" y="-128" on="0"/>
        <pt x="57" y="-77" on="0"/>
        <pt x="57" y="-31" on="1"/>
        <pt x="57" y="-10" on="0"/>
        <pt x="63" y="16" on="1"/>
        <pt x="107" y="190" on="1"/>
        <pt x="112" y="209" on="0"/>
        <pt x="112" y="228" on="1"/>
        <pt x="112" y="264" on="0"/>
        <pt x="66" y="293" on="0"/>
      </contour>
    </TTGlyph>
    <TTGlyph name="braceright" xMin="-83" yMin="-128" xMax="341" yMax="760">
      <contour>
        <pt x="-83" y="-128" on="1"/>
        <pt x="-73" y="-85" on="1"/>
        <pt x="-45" y="-85" on="1"/>
        <pt x="-4" y="-85" on="0"/>
        <pt x="44" y="-33" on="0"/>
        <pt x="58" y="20" on="1"/>
        <pt x="102" y="193" on="1"/>
        <pt x="129" y="299" on="0"/>
        <pt x="238" y="317" on="1"/>
        <pt x="238" y="318" on="1"/>
        <pt x="158" y="333" on="0"/>
        <pt x="158" y="404" on="1"/>
        <pt x="158" y="419" on="0"/>
        <pt x="163" y="441" on="1"/>
        <pt x="206" y="612" on="1"/>
        <pt x="214" y="642" on="0"/>
        <pt x="214" y="662" on="1"/>
        <pt x="214" y="717" on="0"/>
        <pt x="155" y="717" on="1"/>
        <pt x="127" y="717" on="1"/>
        <pt x="138" y="760" on="1"/>
        <pt x="200" y="760" on="1"/>
        <pt x="306" y="760" on="0"/>
        <pt x="306" y="668" on="1"/>
        <pt x="306" y="644" on="0"/>
        <pt x="299" y="617" on="1"/>
        <pt x="256" y="443" on="1"/>
        <pt x="251" y="420" on="0"/>
        <pt x="251" y="407" on="1"/>
        <pt x="251" y="341" on="0"/>
        <pt x="341" y="338" on="1"/>
        <pt x="330" y="296" on="1"/>
        <pt x="277" y="293" on="0"/>
        <pt x="208" y="248" on="0"/>
        <pt x="193" y="190" on="1"/>
        <pt x="149" y="16" on="1"/>
        <pt x="132" y="-50" on="0"/>
        <pt x="43" y="-128" on="0"/>
        <pt x="-21" y="-128" on="1"/>
      </contour>
    </TTGlyph>
    <TTGlyph name="bracketleft" xMin="-15" yMin="-128" xMax="416" yMax="760">
      <contour>
        <pt x="-15" y="-128" on="1"/>
        <pt x="206" y="760" on="1"/>
        <pt x="416" y="760" on="1"/>
        <pt x="404" y="710" on="1"/>
        <pt x="287" y="710" on="1"/>
        <pt x="90" y="-78" on="1"/>
        <pt x="207" y="-78" on="1"/>
        <pt x="195" y="-128" on="1"/>
      </contour>
    </TTGlyph>
    <TTGlyph name="bracketright" xMin="-85" yMin="-128" xMax="345" yMax="760">
      <contour>
        <pt x="-85" y="-128" on="1"/>
        <pt x="-73" y="-78" on="1"/>
        <pt x="43" y="-78" on="1"/>
        <pt x="240" y="710" on="1"/>
        <pt x="124" y="710" on="1"/>
        <pt x="136" y="760" on="1"/>
        <pt x="345" y="760" on="1"/>
        <pt x="124" y="-128" on="1"/>
      </contour>
    </TTGlyph>
    <TTGlyph name="brokenbar" xMin="115" yMin="-240" xMax="180" yMax="760">
      <contour>
        <pt x="115" y="160" on="1"/>
        <pt x="180" y="160" on="1"/>
        <pt x="180" y="-240" on="1"/>
        <pt x="115" y="-240" on="1"/>
      </contour>
      <contour>
        <pt x="115" y="360" on="1"/>
        <pt x="115" y="760" on="1"/>
        <pt x="180" y="760" on="1"/>
        <pt x="180" y="360" on="1"/>
      </contour>
    </TTGlyph>
    <TTGlyph name="bullet" xMin="94" yMin="207" xMax="394" yMax="507">
      <contour>
        <pt x="94" y="359" on="1"/>
        <pt x="94" y="420" on="0"/>
        <pt x="184" y="507" on="0"/>
        <pt x="246" y="507" on="1"/>
        <pt x="307" y="507" on="0"/>
        <pt x="394" y="420" on="0"/>
        <pt x="394" y="359" on="1"/>
        <pt x="394" y="295" on="0"/>
        <pt x="307" y="207" on="0"/>
        <pt x="246" y="207" on="1"/>
        <pt x="184" y="207" on="0"/>
        <pt x="94" y="295" on="0"/>
      </contour>
    </TTGlyph>
    <TTGlyph name="c" xMin="27" yMin="-7" xMax="455" yMax="507">
      <contour>
        <pt x="27" y="170" on="1"/>
        <pt x="27" y="230" on="0"/>
        <pt x="66" y="348" on="0"/>
        <pt x="137" y="446" on="0"/>
        <pt x="249" y="507" on="0"/>
        <pt x="316" y="507" on="1"/>
        <pt x="378" y="507" on="0"/>
        <pt x="455" y="460" on="0"/>
        <pt x="455" y="426" on="1"/>
        <pt x="455" y="396" on="0"/>
        <pt x="406" y="355" on="0"/>
        <pt x="366" y="354" on="1"/>
        <pt x="362" y="369" on="0"/>
        <pt x="351" y="417" on="0"/>
        <pt x="346" y="435" on="0"/>
        <pt x="335" y="459" on="0"/>
        <pt x="322" y="467" on="0"/>
        <pt x="311" y="467" on="1"/>
        <pt x="241" y="467" on="0"/>
        <pt x="130" y="301" on="0"/>
        <pt x="130" y="178" on="1"/>
        <pt x="130" y="116" on="0"/>
        <pt x="186" y="42" on="0"/>
        <pt x="248" y="42" on="1"/>
        <pt x="297" y="42" on="0"/>
        <pt x="365" y="68" on="1"/>
        <pt x="375" y="37" on="1"/>
        <pt x="287" y="-7" on="0"/>
        <pt x="193" y="-7" on="1"/>
        <pt x="115" y="-7" on="0"/>
        <pt x="27" y="85" on="0"/>
      </contour>
    </TTGlyph>
    <TTGlyph name="caron" xMin="21" yMin="610" xMax="323" yMax="800">
      <contour>
        <pt x="21" y="776" on="1"/>
        <pt x="81" y="800" on="1"/>
        <pt x="142" y="676" on="1"/>
        <pt x="278" y="795" on="1"/>
        <pt x="323" y="771" on="1"/>
        <pt x="167" y="610" on="1"/>
        <pt x="93" y="610" on="1"/>
      </contour>
    </TTGlyph>
    <TTGlyph name="caron.case" xMin="14" yMin="776" xMax="345" yMax="922">
      <contour>
        <pt x="14" y="898" on="1"/>
        <pt x="60" y="922" on="1"/>
        <pt x="161" y="842" on="1"/>
        <pt x="299" y="922" on="1"/>
        <pt x="345" y="898" on="1"/>
        <pt x="190" y="776" on="1"/>
        <pt x="106" y="776" on="1"/>
      </contour>
    </TTGlyph>
    <TTGlyph name="ccedilla" xMin="27" yMin="-239" xMax="455" yMax="507">
      <contour>
        <pt x="85" y="-229" on="1"/>
        <pt x="97" y="-190" on="1"/>
        <pt x="110" y="-194" on="0"/>
        <pt x="134" y="-194" on="1"/>
        <pt x="171" y="-194" on="0"/>
        <pt x="230" y="-162" on="0"/>
        <pt x="230" y="-125" on="1"/>
        <pt x="230" y="-76" on="0"/>
        <pt x="171" y="-76" on="1"/>
        <pt x="206" y="-7" on="1"/>
        <pt x="193" y="-7" on="1"/>
        <pt x="115" y="-7" on="0"/>
        <pt x="27" y="85" on="0"/>
        <pt x="27" y="170" on="1"/>
        <pt x="27" y="230" on="0"/>
        <pt x="66" y="348" on="0"/>
        <pt x="137" y="446" on="0"/>
        <pt x="249" y="507" on="0"/>
        <pt x="316" y="507" on="1"/>
        <pt x="378" y="507" on="0"/>
        <pt x="455" y="460" on="0"/>
        <pt x="455" y="426" on="1"/>
        <pt x="455" y="396" on="0"/>
        <pt x="406" y="355" on="0"/>
        <pt x="366" y="354" on="1"/>
        <pt x="362" y="369" on="0"/>
        <pt x="351" y="417" on="0"/>
        <pt x="346" y="435" on="0"/>
        <pt x="335" y="459" on="0"/>
        <pt x="322" y="467" on="0"/>
        <pt x="311" y="467" on="1"/>
        <pt x="241" y="467" on="0"/>
        <pt x="130" y="301" on="0"/>
        <pt x="130" y="178" on="1"/>
        <pt x="130" y="116" on="0"/>
        <pt x="186" y="42" on="0"/>
        <pt x="248" y="42" on="1"/>
        <pt x="297" y="42" on="0"/>
        <pt x="365" y="68" on="1"/>
        <pt x="375" y="37" on="1"/>
        <pt x="315" y="7" on="0"/>
        <pt x="253" y="-2" on="1"/>
        <pt x="235" y="-41" on="1"/>
        <pt x="309" y="-45" on="0"/>
        <pt x="309" y="-110" on="1"/>
        <pt x="309" y="-166" on="0"/>
        <pt x="215" y="-239" on="0"/>
        <pt x="154" y="-239" on="1"/>
        <pt x="118" y="-239" on="0"/>
      </contour>
    </TTGlyph>
    <TTGlyph name="cedilla" xMin="-1" yMin="-239" xMax="223" yMax="9">
      <contour>
        <pt x="-1" y="-229" on="1"/>
        <pt x="11" y="-190" on="1"/>
        <pt x="24" y="-194" on="0"/>
        <pt x="48" y="-194" on="1"/>
        <pt x="85" y="-194" on="0"/>
        <pt x="144" y="-162" on="0"/>
        <pt x="144" y="-125" on="1"/>
        <pt x="144" y="-76" on="0"/>
        <pt x="85" y="-76" on="1"/>
        <pt x="129" y="9" on="1"/>
        <pt x="173" y="9" on="1"/>
        <pt x="149" y="-41" on="1"/>
        <pt x="223" y="-45" on="0"/>
        <pt x="223" y="-110" on="1"/>
        <pt x="223" y="-166" on="0"/>
        <pt x="129" y="-239" on="0"/>
        <pt x="68" y="-239" on="1"/>
        <pt x="32" y="-239" on="0"/>
      </contour>
    </TTGlyph>
    <TTGlyph name="cent" xMin="33" yMin="-140" xMax="461" yMax="648">
      <contour>
        <pt x="130" y="-140" on="1"/>
        <pt x="164" y="-4" on="1"/>
        <pt x="110" y="4" on="0"/>
        <pt x="77" y="39" on="1"/>
        <pt x="33" y="85" on="0"/>
        <pt x="33" y="170" on="1"/>
        <pt x="33" y="230" on="0"/>
        <pt x="72" y="348" on="0"/>
        <pt x="143" y="446" on="0"/>
        <pt x="199" y="476" on="1"/>
        <pt x="242" y="500" on="0"/>
        <pt x="290" y="505" on="1"/>
        <pt x="326" y="648" on="1"/>
        <pt x="382" y="648" on="1"/>
        <pt x="346" y="506" on="1"/>
        <pt x="393" y="502" on="0"/>
        <pt x="423" y="484" on="1"/>
        <pt x="461" y="461" on="0"/>
        <pt x="461" y="423" on="1"/>
        <pt x="461" y="396" on="0"/>
        <pt x="425" y="367" on="0"/>
        <pt x="399" y="367" on="1"/>
        <pt x="380" y="367" on="0"/>
        <pt x="363" y="374" on="1"/>
        <pt x="367" y="396" on="0"/>
        <pt x="367" y="407" on="1"/>
        <pt x="367" y="454" on="0"/>
        <pt x="336" y="464" on="1"/>
        <pt x="231" y="44" on="1"/>
        <pt x="242" y="43" on="0"/>
        <pt x="307" y="45" on="0"/>
        <pt x="371" y="68" on="1"/>
        <pt x="381" y="37" on="1"/>
        <pt x="302" y="-4" on="0"/>
        <pt x="219" y="-6" on="1"/>
        <pt x="186" y="-140" on="1"/>
      </contour>
      <contour>
        <pt x="191" y="384" on="1"/>
        <pt x="136" y="301" on="0"/>
        <pt x="136" y="178" on="1"/>
        <pt x="136" y="95" on="0"/>
        <pt x="180" y="63" on="1"/>
        <pt x="279" y="460" on="1"/>
        <pt x="231" y="444" on="0"/>
      </contour>
    </TTGlyph>
    <TTGlyph name="circumflex" xMin="-7" yMin="581" xMax="294" yMax="771">
      <contour>
        <pt x="-7" y="610" on="1"/>
        <pt x="148" y="771" on="1"/>
        <pt x="223" y="771" on="1"/>
        <pt x="294" y="605" on="1"/>
        <pt x="255" y="581" on="1"/>
        <pt x="173" y="704" on="1"/>
        <pt x="38" y="586" on="1"/>
      </contour>
    </TTGlyph>
    <TTGlyph name="circumflex.case" xMin="10" yMin="757" xMax="345" yMax="903">
      <contour>
        <pt x="10" y="781" on="1"/>
        <pt x="165" y="903" on="1"/>
        <pt x="249" y="903" on="1"/>
        <pt x="345" y="781" on="1"/>
        <pt x="300" y="757" on="1"/>
        <pt x="194" y="832" on="1"/>
        <pt x="56" y="757" on="1"/>
      </contour>
    </TTGlyph>
    <TTGlyph name="colon" xMin="10" yMin="-7" xMax="231" yMax="460">
      <contour>
        <pt x="10" y="61" on="1"/>
        <pt x="10" y="88" on="0"/>
        <pt x="50" y="127" on="0"/>
        <pt x="78" y="127" on="1"/>
        <pt x="105" y="127" on="0"/>
        <pt x="144" y="88" on="0"/>
        <pt x="144" y="61" on="1"/>
        <pt x="144" y="32" on="0"/>
        <pt x="105" y="-7" on="0"/>
        <pt x="78" y="-7" on="1"/>
        <pt x="50" y="-7" on="0"/>
        <pt x="10" y="32" on="0"/>
      </contour>
      <contour>
        <pt x="97" y="394" on="1"/>
        <pt x="97" y="421" on="0"/>
        <pt x="137" y="460" on="0"/>
        <pt x="165" y="460" on="1"/>
        <pt x="192" y="460" on="0"/>
        <pt x="231" y="421" on="0"/>
        <pt x="231" y="394" on="1"/>
        <pt x="231" y="365" on="0"/>
        <pt x="192" y="326" on="0"/>
        <pt x="165" y="326" on="1"/>
        <pt x="137" y="326" on="0"/>
        <pt x="97" y="365" on="0"/>
      </contour>
    </TTGlyph>
    <TTGlyph name="comma" xMin="-82" yMin="-171" xMax="127" yMax="120">
      <contour>
        <pt x="-82" y="-142" on="1"/>
        <pt x="-4" y="-79" on="0"/>
        <pt x="40" y="3" on="1"/>
        <pt x="-8" y="53" on="1"/>
        <pt x="-8" y="81" on="0"/>
        <pt x="32" y="120" on="0"/>
        <pt x="60" y="120" on="1"/>
        <pt x="88" y="120" on="0"/>
        <pt x="127" y="82" on="0"/>
        <pt x="127" y="53" on="1"/>
        <pt x="127" y="24" on="0"/>
        <pt x="91" y="-41" on="0"/>
        <pt x="36" y="-103" on="0"/>
        <pt x="-30" y="-155" on="0"/>
        <pt x="-59" y="-171" on="1"/>
      </contour>
    </TTGlyph>
    <TTGlyph name="copyright" xMin="78" yMin="-7" xMax="813" yMax="728">
      <contour>
        <pt x="185" y="100" on="1"/>
        <pt x="78" y="207" on="0"/>
        <pt x="78" y="359" on="1"/>
        <pt x="78" y="435" on="0"/>
        <pt x="136" y="569" on="0"/>
        <pt x="237" y="669" on="0"/>
        <pt x="370" y="728" on="0"/>
        <pt x="445" y="728" on="1"/>
        <pt x="520" y="728" on="0"/>
        <pt x="654" y="669" on="0"/>
        <pt x="754" y="569" on="0"/>
        <pt x="813" y="434" on="0"/>
        <pt x="813" y="359" on="1"/>
        <pt x="813" y="284" on="0"/>
        <pt x="755" y="150" on="0"/>
        <pt x="654" y="51" on="0"/>
        <pt x="520" y="-7" on="0"/>
        <pt x="445" y="-7" on="1"/>
        <pt x="294" y="-7" on="0"/>
      </contour>
      <contour>
        <pt x="445" y="51" on="1"/>
        <pt x="509" y="51" on="0"/>
        <pt x="621" y="100" on="0"/>
        <pt x="705" y="184" on="0"/>
        <pt x="753" y="296" on="0"/>
        <pt x="753" y="359" on="1"/>
        <pt x="753" y="423" on="0"/>
        <pt x="705" y="535" on="0"/>
        <pt x="621" y="619" on="0"/>
        <pt x="509" y="668" on="0"/>
        <pt x="445" y="668" on="1"/>
        <pt x="382" y="668" on="0"/>
        <pt x="270" y="620" on="0"/>
        <pt x="187" y="536" on="0"/>
        <pt x="138" y="423" on="0"/>
        <pt x="138" y="359" on="1"/>
        <pt x="138" y="295" on="0"/>
        <pt x="186" y="183" on="0"/>
        <pt x="270" y="99" on="0"/>
        <pt x="382" y="51" on="0"/>
      </contour>
      <contour>
        <pt x="248" y="359" on="1"/>
        <pt x="248" y="465" on="0"/>
        <pt x="356" y="579" on="0"/>
        <pt x="465" y="579" on="1"/>
        <pt x="524" y="579" on="0"/>
        <pt x="579" y="556" on="1"/>
        <pt x="579" y="444" on="1"/>
        <pt x="544" y="444" on="1"/>
        <pt x="518" y="528" on="1"/>
        <pt x="490" y="533" on="0"/>
        <pt x="473" y="533" on="1"/>
        <pt x="330" y="533" on="0"/>
        <pt x="330" y="359" on="1"/>
        <pt x="330" y="187" on="0"/>
        <pt x="470" y="187" on="1"/>
        <pt x="483" y="187" on="0"/>
        <pt x="501" y="188" on="0"/>
        <pt x="507" y="189" on="1"/>
        <pt x="552" y="280" on="1"/>
        <pt x="586" y="280" on="1"/>
        <pt x="571" y="169" on="1"/>
        <pt x="518" y="141" on="0"/>
        <pt x="455" y="141" on="1"/>
        <pt x="353" y="141" on="0"/>
        <pt x="248" y="253" on="0"/>
      </contour>
    </TTGlyph>
    <TTGlyph name="currency" xMin="39" yMin="128" xMax="577" yMax="595">
      <contour>
        <pt x="39" y="172" on="1"/>
        <pt x="116" y="237" on="1"/>
        <pt x="102" y="269" on="0"/>
        <pt x="102" y="309" on="1"/>
        <pt x="102" y="407" on="0"/>
        <pt x="181" y="489" on="1"/>
        <pt x="136" y="553" on="1"/>
        <pt x="182" y="588" on="1"/>
        <pt x="226" y="526" on="1"/>
        <pt x="288" y="570" on="0"/>
        <pt x="361" y="570" on="1"/>
        <pt x="424" y="570" on="0"/>
        <pt x="466" y="532" on="1"/>
        <pt x="543" y="595" on="1"/>
        <pt x="577" y="552" on="1"/>
        <pt x="500" y="488" on="1"/>
        <pt x="512" y="455" on="0"/>
        <pt x="512" y="420" on="1"/>
        <pt x="512" y="368" on="0"/>
        <pt x="466" y="265" on="0"/>
        <pt x="429" y="230" on="1"/>
        <pt x="474" y="165" on="1"/>
        <pt x="429" y="130" on="1"/>
        <pt x="384" y="191" on="1"/>
        <pt x="324" y="149" on="0"/>
        <pt x="258" y="149" on="1"/>
        <pt x="194" y="149" on="0"/>
        <pt x="149" y="191" on="1"/>
        <pt x="74" y="128" on="1"/>
      </contour>
      <contour>
        <pt x="181" y="331" on="1"/>
        <pt x="181" y="276" on="0"/>
        <pt x="235" y="209" on="0"/>
        <pt x="283" y="209" on="1"/>
        <pt x="343" y="209" on="0"/>
        <pt x="428" y="319" on="0"/>
        <pt x="428" y="384" on="1"/>
        <pt x="428" y="437" on="0"/>
        <pt x="375" y="508" on="0"/>
        <pt x="326" y="508" on="1"/>
        <pt x="266" y="508" on="0"/>
        <pt x="181" y="398" on="0"/>
      </contour>
    </TTGlyph>
    <TTGlyph name="d" xMin="24" yMin="-7" xMax="576" yMax="807">
      <contour>
        <pt x="24" y="137" on="1"/>
        <pt x="24" y="291" on="0"/>
        <pt x="209" y="507" on="0"/>
        <pt x="340" y="507" on="1"/>
        <pt x="382" y="507" on="0"/>
        <pt x="419" y="497" on="1"/>
        <pt x="476" y="730" on="1"/>
        <pt x="376" y="730" on="1"/>
        <pt x="376" y="762" on="1"/>
        <pt x="450" y="786" on="0"/>
        <pt x="530" y="807" on="0"/>
        <pt x="541" y="807" on="1"/>
        <pt x="576" y="807" on="0"/>
        <pt x="576" y="776" on="1"/>
        <pt x="576" y="766" on="0"/>
        <pt x="569" y="735" on="1"/>
        <pt x="406" y="69" on="1"/>
        <pt x="506" y="69" on="1"/>
        <pt x="506" y="37" on="1"/>
        <pt x="432" y="14" on="0"/>
        <pt x="355" y="-7" on="0"/>
        <pt x="341" y="-7" on="1"/>
        <pt x="306" y="-7" on="0"/>
        <pt x="306" y="23" on="1"/>
        <pt x="306" y="38" on="0"/>
        <pt x="313" y="64" on="1"/>
        <pt x="323" y="105" on="1"/>
        <pt x="236" y="-7" on="0"/>
        <pt x="135" y="-7" on="1"/>
        <pt x="87" y="-7" on="0"/>
        <pt x="24" y="63" on="0"/>
      </contour>
      <contour>
        <pt x="122" y="159" on="1"/>
        <pt x="122" y="62" on="0"/>
        <pt x="184" y="62" on="1"/>
        <pt x="219" y="62" on="0"/>
        <pt x="311" y="141" on="0"/>
        <pt x="344" y="194" on="1"/>
        <pt x="409" y="457" on="1"/>
        <pt x="386" y="463" on="0"/>
        <pt x="362" y="463" on="1"/>
        <pt x="292" y="463" on="0"/>
        <pt x="179" y="368" on="0"/>
        <pt x="122" y="231" on="0"/>
      </contour>
    </TTGlyph>
    <TTGlyph name="degree" xMin="113" yMin="461" xMax="405" yMax="755">
      <contour>
        <pt x="258" y="461" on="1"/>
        <pt x="199" y="461" on="0"/>
        <pt x="113" y="546" on="0"/>
        <pt x="113" y="608" on="1"/>
        <pt x="113" y="671" on="0"/>
        <pt x="200" y="755" on="0"/>
        <pt x="258" y="755" on="1"/>
        <pt x="316" y="755" on="0"/>
        <pt x="405" y="671" on="0"/>
        <pt x="405" y="608" on="1"/>
        <pt x="405" y="546" on="0"/>
        <pt x="319" y="461" on="0"/>
      </contour>
      <contour>
        <pt x="257" y="525" on="1"/>
        <pt x="292" y="525" on="0"/>
        <pt x="343" y="575" on="0"/>
        <pt x="343" y="608" on="1"/>
        <pt x="343" y="641" on="0"/>
        <pt x="291" y="691" on="0"/>
        <pt x="257" y="691" on="1"/>
        <pt x="226" y="691" on="0"/>
        <pt x="175" y="641" on="0"/>
        <pt x="175" y="608" on="1"/>
        <pt x="175" y="575" on="0"/>
        <pt x="226" y="525" on="0"/>
      </contour>
    </TTGlyph>
    <TTGlyph name="dieresis" xMin="30" yMin="627" xMax="361" yMax="758">
      <contour>
        <pt x="30" y="693" on="1"/>
        <pt x="30" y="720" on="0"/>
        <pt x="69" y="758" on="0"/>
        <pt x="96" y="758" on="1"/>
        <pt x="123" y="758" on="0"/>
        <pt x="161" y="720" on="0"/>
        <pt x="161" y="693" on="1"/>
        <pt x="161" y="665" on="0"/>
        <pt x="123" y="627" on="0"/>
        <pt x="96" y="627" on="1"/>
        <pt x="69" y="627" on="0"/>
        <pt x="30" y="665" on="0"/>
      </contour>
      <contour>
        <pt x="230" y="693" on="1"/>
        <pt x="230" y="720" on="0"/>
        <pt x="269" y="758" on="0"/>
        <pt x="296" y="758" on="1"/>
        <pt x="323" y="758" on="0"/>
        <pt x="361" y="720" on="0"/>
        <pt x="361" y="693" on="1"/>
        <pt x="361" y="665" on="0"/>
        <pt x="323" y="627" on="0"/>
        <pt x="296" y="627" on="1"/>
        <pt x="269" y="627" on="0"/>
        <pt x="230" y="665" on="0"/>
      </contour>
    </TTGlyph>
    <TTGlyph name="dieresis.case" xMin="10" yMin="762" xMax="340" yMax="893">
      <contour>
        <pt x="10" y="828" on="1"/>
        <pt x="10" y="855" on="0"/>
        <pt x="49" y="893" on="0"/>
        <pt x="76" y="893" on="1"/>
        <pt x="103" y="893" on="0"/>
        <pt x="141" y="855" on="0"/>
        <pt x="141" y="828" on="1"/>
        <pt x="141" y="800" on="0"/>
        <pt x="103" y="762" on="0"/>
        <pt x="76" y="762" on="1"/>
        <pt x="49" y="762" on="0"/>
        <pt x="10" y="800" on="0"/>
      </contour>
      <contour>
        <pt x="209" y="828" on="1"/>
        <pt x="209" y="855" on="0"/>
        <pt x="248" y="893" on="0"/>
        <pt x="275" y="893" on="1"/>
        <pt x="302" y="893" on="0"/>
        <pt x="340" y="855" on="0"/>
        <pt x="340" y="828" on="1"/>
        <pt x="340" y="800" on="0"/>
        <pt x="302" y="762" on="0"/>
        <pt x="275" y="762" on="1"/>
        <pt x="248" y="762" on="0"/>
        <pt x="209" y="800" on="0"/>
      </contour>
    </TTGlyph>
    <TTGlyph name="divide" xMin="70" yMin="119" xMax="519" yMax="595">
      <contour>
        <pt x="70" y="323" on="1"/>
        <pt x="70" y="391" on="1"/>
        <pt x="519" y="391" on="1"/>
        <pt x="519" y="323" on="1"/>
      </contour>
      <contour>
        <pt x="228" y="187" on="1"/>
        <pt x="228" y="215" on="0"/>
        <pt x="268" y="254" on="0"/>
        <pt x="295" y="254" on="1"/>
        <pt x="323" y="254" on="0"/>
        <pt x="362" y="215" on="0"/>
        <pt x="362" y="187" on="1"/>
        <pt x="362" y="160" on="0"/>
        <pt x="323" y="119" on="0"/>
        <pt x="295" y="119" on="1"/>
        <pt x="268" y="119" on="0"/>
        <pt x="228" y="160" on="0"/>
      </contour>
      <contour>
        <pt x="228" y="527" on="1"/>
        <pt x="228" y="555" on="0"/>
        <pt x="268" y="595" on="0"/>
        <pt x="295" y="595" on="1"/>
        <pt x="323" y="595" on="0"/>
        <pt x="362" y="555" on="0"/>
        <pt x="362" y="527" on="1"/>
        <pt x="362" y="500" on="0"/>
        <pt x="323" y="459" on="0"/>
        <pt x="295" y="459" on="1"/>
        <pt x="268" y="459" on="0"/>
        <pt x="228" y="500" on="0"/>
      </contour>
    </TTGlyph>
    <TTGlyph name="dollar" xMin="5" yMin="-83" xMax="555" yMax="777">
      <contour>
        <pt x="161" y="-83" on="1"/>
        <pt x="180" y="-6" on="1"/>
        <pt x="82" y="0" on="0"/>
        <pt x="5" y="40" on="1"/>
        <pt x="61" y="224" on="1"/>
        <pt x="100" y="224" on="1"/>
        <pt x="100" y="63" on="1"/>
        <pt x="142" y="46" on="0"/>
        <pt x="193" y="46" on="1"/>
        <pt x="261" y="321" on="1"/>
        <pt x="214" y="356" on="1"/>
        <pt x="177" y="384" on="0"/>
        <pt x="126" y="465" on="0"/>
        <pt x="126" y="514" on="1"/>
        <pt x="126" y="607" on="0"/>
        <pt x="196" y="657" on="1"/>
        <pt x="260" y="704" on="0"/>
        <pt x="357" y="707" on="1"/>
        <pt x="374" y="777" on="1"/>
        <pt x="432" y="777" on="1"/>
        <pt x="414" y="707" on="1"/>
        <pt x="494" y="701" on="0"/>
        <pt x="555" y="676" on="1"/>
        <pt x="500" y="492" on="1"/>
        <pt x="462" y="492" on="1"/>
        <pt x="462" y="645" on="1"/>
        <pt x="438" y="651" on="0"/>
        <pt x="401" y="653" on="1"/>
        <pt x="336" y="394" on="1"/>
        <pt x="352" y="382" on="1"/>
        <pt x="385" y="355" on="0"/>
        <pt x="443" y="302" on="0"/>
        <pt x="481" y="228" on="0"/>
        <pt x="481" y="187" on="1"/>
        <pt x="481" y="90" on="0"/>
        <pt x="409" y="41" on="1"/>
        <pt x="344" y="-2" on="0"/>
        <pt x="236" y="-6" on="1"/>
        <pt x="217" y="-83" on="1"/>
      </contour>
      <contour>
        <pt x="322" y="75" on="1"/>
        <pt x="375" y="105" on="0"/>
        <pt x="375" y="167" on="1"/>
        <pt x="375" y="207" on="0"/>
        <pt x="349" y="241" on="1"/>
        <pt x="332" y="264" on="0"/>
        <pt x="308" y="284" on="1"/>
        <pt x="250" y="50" on="1"/>
        <pt x="290" y="57" on="0"/>
      </contour>
      <contour>
        <pt x="269" y="626" on="1"/>
        <pt x="222" y="600" on="0"/>
        <pt x="222" y="539" on="1"/>
        <pt x="222" y="510" on="0"/>
        <pt x="260" y="454" on="0"/>
        <pt x="288" y="432" on="1"/>
        <pt x="342" y="650" on="1"/>
        <pt x="301" y="644" on="0"/>
      </contour>
    </TTGlyph>
    <TTGlyph name="dotlessi" xMin="45" yMin="-7" xMax="246" yMax="507">
      <contour>
        <pt x="45" y="22" on="1"/>
        <pt x="45" y="33" on="0"/>
        <pt x="52" y="63" on="1"/>
        <pt x="146" y="432" on="1"/>
        <pt x="45" y="432" on="1"/>
        <pt x="45" y="463" on="1"/>
        <pt x="181" y="507" on="0"/>
        <pt x="210" y="507" on="1"/>
        <pt x="246" y="507" on="0"/>
        <pt x="246" y="478" on="1"/>
        <pt x="246" y="465" on="0"/>
        <pt x="238" y="437" on="1"/>
        <pt x="146" y="68" on="1"/>
        <pt x="246" y="68" on="1"/>
        <pt x="246" y="37" on="1"/>
        <pt x="111" y="-7" on="0"/>
        <pt x="81" y="-7" on="1"/>
        <pt x="45" y="-7" on="0"/>
      </contour>
    </TTGlyph>
    <TTGlyph name="e" xMin="24" yMin="-7" xMax="457" yMax="507">
      <contour>
        <pt x="24" y="162" on="1"/>
        <pt x="24" y="210" on="0"/>
        <pt x="50" y="307" on="0"/>
        <pt x="103" y="396" on="0"/>
        <pt x="175" y="465" on="0"/>
        <pt x="275" y="507" on="0"/>
        <pt x="332" y="507" on="1"/>
        <pt x="388" y="507" on="0"/>
        <pt x="457" y="456" on="0"/>
        <pt x="457" y="407" on="1"/>
        <pt x="457" y="370" on="0"/>
        <pt x="414" y="309" on="0"/>
        <pt x="352" y="267" on="0"/>
        <pt x="256" y="231" on="0"/>
        <pt x="177" y="210" on="0"/>
        <pt x="125" y="199" on="1"/>
        <pt x="124" y="190" on="0"/>
        <pt x="124" y="172" on="1"/>
        <pt x="124" y="42" on="0"/>
        <pt x="237" y="42" on="1"/>
        <pt x="289" y="42" on="0"/>
        <pt x="360" y="69" on="1"/>
        <pt x="370" y="38" on="1"/>
        <pt x="280" y="-7" on="0"/>
        <pt x="186" y="-7" on="1"/>
        <pt x="24" y="-7" on="0"/>
      </contour>
      <contour>
        <pt x="130" y="238" on="1"/>
        <pt x="359" y="321" on="0"/>
        <pt x="359" y="417" on="1"/>
        <pt x="359" y="470" on="0"/>
        <pt x="312" y="470" on="1"/>
        <pt x="252" y="470" on="0"/>
        <pt x="147" y="331" on="0"/>
      </contour>
    </TTGlyph>
    <TTGlyph name="eacute" xMin="24" yMin="-7" xMax="483" yMax="767">
      <component glyphName="e" x="0" y="0" flags="0x204"/>
      <component glyphName="acute" x="278" y="0" flags="0x4"/>
    </TTGlyph>
    <TTGlyph name="ecircumflex" xMin="24" yMin="-7" xMax="473" yMax="762">
      <component glyphName="e" x="0" y="0" flags="0x204"/>
      <component glyphName="circumflex" x="179" y="-9" flags="0x4"/>
    </TTGlyph>
    <TTGlyph name="edieresis" xMin="24" yMin="-7" xMax="493" yMax="758">
      <component glyphName="e" x="0" y="0" flags="0x204"/>
      <component glyphName="dieresis" x="132" y="0" flags="0x4"/>
    </TTGlyph>
    <TTGlyph name="egrave" xMin="24" yMin="-7" xMax="457" yMax="767">
      <component glyphName="e" x="0" y="0" flags="0x204"/>
      <component glyphName="grave" x="200" y="0" flags="0x4"/>
    </TTGlyph>
    <TTGlyph name="eight" xMin="46" yMin="-7" xMax="545" yMax="708">
      <contour>
        <pt x="46" y="129" on="1"/>
        <pt x="46" y="203" on="0"/>
        <pt x="154" y="329" on="0"/>
        <pt x="233" y="373" on="1"/>
        <pt x="150" y="447" on="0"/>
        <pt x="150" y="519" on="1"/>
        <pt x="150" y="603" on="0"/>
        <pt x="282" y="708" on="0"/>
        <pt x="375" y="708" on="1"/>
        <pt x="453" y="708" on="0"/>
        <pt x="545" y="639" on="0"/>
        <pt x="545" y="577" on="1"/>
        <pt x="545" y="509" on="0"/>
        <pt x="456" y="413" on="0"/>
        <pt x="384" y="373" on="1"/>
        <pt x="432" y="333" on="0"/>
        <pt x="482" y="257" on="0"/>
        <pt x="482" y="205" on="1"/>
        <pt x="482" y="106" on="0"/>
        <pt x="333" y="-7" on="0"/>
        <pt x="221" y="-7" on="1"/>
        <pt x="149" y="-7" on="0"/>
        <pt x="46" y="65" on="0"/>
      </contour>
      <contour>
        <pt x="139" y="142" on="1"/>
        <pt x="139" y="94" on="0"/>
        <pt x="199" y="41" on="0"/>
        <pt x="244" y="41" on="1"/>
        <pt x="307" y="41" on="0"/>
        <pt x="391" y="115" on="0"/>
        <pt x="391" y="174" on="1"/>
        <pt x="391" y="196" on="0"/>
        <pt x="376" y="238" on="0"/>
        <pt x="358" y="266" on="0"/>
        <pt x="318" y="304" on="0"/>
        <pt x="297" y="322" on="0"/>
        <pt x="271" y="342" on="1"/>
        <pt x="216" y="304" on="0"/>
        <pt x="139" y="200" on="0"/>
      </contour>
      <contour>
        <pt x="243" y="555" on="1"/>
        <pt x="243" y="525" on="0"/>
        <pt x="276" y="467" on="0"/>
        <pt x="312" y="432" on="0"/>
        <pt x="347" y="403" on="1"/>
        <pt x="458" y="478" on="0"/>
        <pt x="458" y="568" on="1"/>
        <pt x="458" y="612" on="0"/>
        <pt x="398" y="659" on="0"/>
        <pt x="357" y="659" on="1"/>
        <pt x="311" y="659" on="0"/>
        <pt x="243" y="602" on="0"/>
      </contour>
    </TTGlyph>
    <TTGlyph name="emdash" xMin="72" yMin="241" xMax="1082" yMax="305">
      <contour>
        <pt x="72" y="241" on="1"/>
        <pt x="72" y="305" on="1"/>
        <pt x="1082" y="305" on="1"/>
        <pt x="1082" y="241" on="1"/>
      </contour>
    </TTGlyph>
    <TTGlyph name="endash" xMin="72" yMin="241" xMax="582" yMax="305">
      <contour>
        <pt x="72" y="241" on="1"/>
        <pt x="72" y="305" on="1"/>
        <pt x="582" y="305" on="1"/>
        <pt x="582" y="241" on="1"/>
      </contour>
    </TTGlyph>
    <TTGlyph name="equal" xMin="69" yMin="241" xMax="528" yMax="473">
      <contour>
        <pt x="69" y="241" on="1"/>
        <pt x="69" y="308" on="1"/>
        <pt x="528" y="308" on="1"/>
        <pt x="528" y="241" on="1"/>
      </contour>
      <contour>
        <pt x="69" y="406" on="1"/>
        <pt x="69" y="473" on="1"/>
        <pt x="528" y="473" on="1"/>
        <pt x="528" y="406" on="1"/>
      </contour>
    </TTGlyph>
    <TTGlyph name="eth" xMin="26" yMin="-7" xMax="523" yMax="766">
      <contour>
        <pt x="26" y="186" on="1"/>
        <pt x="26" y="310" on="0"/>
        <pt x="219" y="477" on="0"/>
        <pt x="358" y="477" on="1"/>
        <pt x="384" y="477" on="0"/>
        <pt x="411" y="474" on="1"/>
        <pt x="407" y="555" on="0"/>
        <pt x="377" y="609" on="1"/>
        <pt x="238" y="524" on="1"/>
        <pt x="238" y="592" on="1"/>
        <pt x="342" y="655" on="1"/>
        <pt x="285" y="709" on="0"/>
        <pt x="185" y="709" on="1"/>
        <pt x="198" y="758" on="1"/>
        <pt x="330" y="758" on="0"/>
        <pt x="408" y="696" on="1"/>
        <pt x="523" y="766" on="1"/>
        <pt x="523" y="698" on="1"/>
        <pt x="450" y="653" on="1"/>
        <pt x="512" y="572" on="0"/>
        <pt x="512" y="437" on="1"/>
        <pt x="512" y="364" on="0"/>
        <pt x="483" y="221" on="0"/>
        <pt x="419" y="80" on="0"/>
        <pt x="293" y="-7" on="0"/>
        <pt x="208" y="-7" on="1"/>
        <pt x="124" y="-7" on="0"/>
        <pt x="26" y="98" on="0"/>
      </contour>
      <contour>
        <pt x="127" y="163" on="1"/>
        <pt x="127" y="99" on="0"/>
        <pt x="176" y="33" on="0"/>
        <pt x="218" y="33" on="1"/>
        <pt x="303" y="33" on="0"/>
        <pt x="405" y="266" on="0"/>
        <pt x="410" y="428" on="1"/>
        <pt x="386" y="430" on="0"/>
        <pt x="377" y="430" on="1"/>
        <pt x="314" y="430" on="0"/>
        <pt x="213" y="378" on="0"/>
        <pt x="156" y="297" on="0"/>
        <pt x="127" y="207" on="0"/>
      </contour>
    </TTGlyph>
    <TTGlyph name="exclam" xMin="18" yMin="-7" xMax="282" yMax="700">
      <contour>
        <pt x="82" y="208" on="1"/>
        <pt x="186" y="700" on="1"/>
        <pt x="282" y="700" on="1"/>
        <pt x="139" y="208" on="1"/>
      </contour>
      <contour>
        <pt x="18" y="61" on="1"/>
        <pt x="18" y="88" on="0"/>
        <pt x="58" y="127" on="0"/>
        <pt x="86" y="127" on="1"/>
        <pt x="113" y="127" on="0"/>
        <pt x="152" y="88" on="0"/>
        <pt x="152" y="61" on="1"/>
        <pt x="152" y="32" on="0"/>
        <pt x="113" y="-7" on="0"/>
        <pt x="86" y="-7" on="1"/>
        <pt x="58" y="-7" on="0"/>
        <pt x="18" y="32" on="0"/>
      </contour>
    </TTGlyph>
    <TTGlyph name="exclamdown" xMin="-33" yMin="-200" xMax="231" yMax="506">
      <component glyphName="exclam" x="249" y="500" scale="-0.999938964844" flags="0x4"/>
    </TTGlyph>
    <TTGlyph name="f" xMin="-307" yMin="-308" xMax="612" yMax="807">
      <contour>
        <pt x="-307" y="-221" on="1"/>
        <pt x="-307" y="-173" on="0"/>
        <pt x="-231" y="-132" on="1"/>
        <pt x="-209" y="-193" on="0"/>
        <pt x="-202" y="-210" on="0"/>
        <pt x="-185" y="-242" on="0"/>
        <pt x="-171" y="-253" on="0"/>
        <pt x="-147" y="-264" on="0"/>
        <pt x="-132" y="-264" on="1"/>
        <pt x="-85" y="-264" on="0"/>
        <pt x="-4" y="-162" on="0"/>
        <pt x="19" y="-66" on="1"/>
        <pt x="144" y="449" on="1"/>
        <pt x="70" y="449" on="1"/>
        <pt x="78" y="482" on="1"/>
        <pt x="153" y="488" on="1"/>
        <pt x="174" y="573" on="1"/>
        <pt x="205" y="697" on="0"/>
        <pt x="355" y="807" on="0"/>
        <pt x="450" y="807" on="1"/>
        <pt x="612" y="807" on="0"/>
        <pt x="612" y="724" on="1"/>
        <pt x="612" y="674" on="0"/>
        <pt x="540" y="641" on="1"/>
        <pt x="509" y="706" on="1"/>
        <pt x="494" y="738" on="0"/>
        <pt x="474" y="752" on="1"/>
        <pt x="464" y="759" on="0"/>
        <pt x="444" y="763" on="0"/>
        <pt x="436" y="763" on="1"/>
        <pt x="312" y="763" on="0"/>
        <pt x="259" y="548" on="1"/>
        <pt x="246" y="495" on="1"/>
        <pt x="392" y="507" on="1"/>
        <pt x="377" y="449" on="1"/>
        <pt x="235" y="449" on="1"/>
        <pt x="109" y="-68" on="1"/>
        <pt x="51" y="-308" on="0"/>
        <pt x="-154" y="-308" on="1"/>
        <pt x="-223" y="-308" on="0"/>
        <pt x="-307" y="-260" on="0"/>
      </contour>
    </TTGlyph>
    <TTGlyph name="five" xMin="-32" yMin="-7" xMax="584" yMax="768">
      <contour>
        <pt x="-32" y="35" on="1"/>
        <pt x="-5" y="76" on="1"/>
        <pt x="49" y="48" on="0"/>
        <pt x="110" y="48" on="1"/>
        <pt x="203" y="48" on="0"/>
        <pt x="341" y="167" on="0"/>
        <pt x="341" y="265" on="1"/>
        <pt x="341" y="316" on="0"/>
        <pt x="276" y="388" on="0"/>
        <pt x="210" y="388" on="1"/>
        <pt x="162" y="388" on="0"/>
        <pt x="120" y="379" on="1"/>
        <pt x="102" y="393" on="1"/>
        <pt x="204" y="700" on="1"/>
        <pt x="407" y="700" on="1"/>
        <pt x="499" y="700" on="0"/>
        <pt x="551" y="760" on="1"/>
        <pt x="557" y="768" on="1"/>
        <pt x="584" y="753" on="1"/>
        <pt x="556" y="711" on="1"/>
        <pt x="547" y="698" on="0"/>
        <pt x="506" y="655" on="0"/>
        <pt x="467" y="635" on="0"/>
        <pt x="403" y="619" on="0"/>
        <pt x="364" y="619" on="1"/>
        <pt x="234" y="619" on="1"/>
        <pt x="175" y="437" on="1"/>
        <pt x="184" y="440" on="1"/>
        <pt x="236" y="453" on="0"/>
        <pt x="278" y="453" on="1"/>
        <pt x="364" y="453" on="0"/>
        <pt x="448" y="354" on="0"/>
        <pt x="448" y="286" on="1"/>
        <pt x="448" y="170" on="0"/>
        <pt x="258" y="-7" on="0"/>
        <pt x="127" y="-7" on="1"/>
        <pt x="78" y="-7" on="0"/>
        <pt x="-2" y="14" on="0"/>
        <pt x="-17" y="24" on="1"/>
      </contour>
    </TTGlyph>
    <TTGlyph name="foundryicon" xMin="51" yMin="138" xMax="1007" yMax="316">
      <contour>
        <pt x="1007" y="251" on="1"/>
        <pt x="991" y="251" on="1"/>
        <pt x="992" y="249" on="0"/>
        <pt x="992" y="246" on="1"/>
        <pt x="992" y="232" on="0"/>
        <pt x="970" y="211" on="0"/>
        <pt x="947" y="211" on="1"/>
        <pt x="938" y="211" on="0"/>
        <pt x="935" y="212" on="1"/>
        <pt x="935" y="197" on="1"/>
        <pt x="953" y="197" on="1"/>
        <pt x="992" y="197" on="0"/>
        <pt x="992" y="161" on="1"/>
        <pt x="992" y="153" on="0"/>
        <pt x="988" y="142" on="0"/>
        <pt x="986" y="138" on="1"/>
        <pt x="959" y="138" on="1"/>
        <pt x="959" y="167" on="1"/>
        <pt x="913" y="167" on="1"/>
        <pt x="908" y="171" on="0"/>
        <pt x="903" y="183" on="0"/>
        <pt x="903" y="189" on="1"/>
        <pt x="903" y="207" on="0"/>
        <pt x="917" y="219" on="1"/>
        <pt x="903" y="227" on="0"/>
        <pt x="903" y="247" on="1"/>
        <pt x="903" y="263" on="0"/>
        <pt x="926" y="284" on="0"/>
        <pt x="946" y="284" on="1"/>
        <pt x="964" y="284" on="0"/>
        <pt x="977" y="274" on="1"/>
        <pt x="985" y="284" on="0"/>
        <pt x="996" y="284" on="1"/>
        <pt x="1000" y="284" on="0"/>
        <pt x="1004" y="283" on="0"/>
        <pt x="1007" y="282" on="1"/>
      </contour>
      <contour>
        <pt x="245" y="175" on="1"/>
        <pt x="239" y="153" on="0"/>
        <pt x="216" y="138" on="0"/>
        <pt x="202" y="138" on="1"/>
        <pt x="183" y="138" on="0"/>
        <pt x="176" y="145" on="1"/>
        <pt x="176" y="171" on="1"/>
        <pt x="193" y="171" on="1"/>
        <pt x="209" y="171" on="0"/>
        <pt x="214" y="182" on="1"/>
        <pt x="200" y="182" on="1"/>
        <pt x="176" y="251" on="1"/>
        <pt x="166" y="251" on="1"/>
        <pt x="166" y="282" on="1"/>
        <pt x="204" y="282" on="1"/>
        <pt x="218" y="233" on="1"/>
        <pt x="223" y="209" on="1"/>
        <pt x="234" y="251" on="1"/>
        <pt x="225" y="251" on="1"/>
        <pt x="225" y="282" on="1"/>
        <pt x="268" y="282" on="1"/>
        <pt x="268" y="251" on="1"/>
      </contour>
      <contour>
        <pt x="158" y="187" on="1"/>
        <pt x="140" y="179" on="0"/>
        <pt x="117" y="179" on="1"/>
        <pt x="86" y="179" on="0"/>
        <pt x="51" y="214" on="0"/>
        <pt x="51" y="245" on="1"/>
        <pt x="51" y="277" on="0"/>
        <pt x="85" y="316" on="0"/>
        <pt x="119" y="316" on="1"/>
        <pt x="128" y="316" on="0"/>
        <pt x="148" y="312" on="0"/>
        <pt x="158" y="309" on="1"/>
        <pt x="158" y="269" on="1"/>
        <pt x="127" y="269" on="1"/>
        <pt x="127" y="284" on="1"/>
        <pt x="124" y="285" on="0"/>
        <pt x="118" y="285" on="1"/>
        <pt x="104" y="285" on="0"/>
        <pt x="89" y="265" on="0"/>
        <pt x="89" y="249" on="1"/>
        <pt x="89" y="212" on="0"/>
        <pt x="126" y="212" on="1"/>
        <pt x="158" y="212" on="1"/>
      </contour>
      <contour>
        <pt x="748" y="179" on="1"/>
        <pt x="699" y="179" on="0"/>
        <pt x="699" y="231" on="1"/>
        <pt x="699" y="256" on="0"/>
        <pt x="726" y="284" on="0"/>
        <pt x="749" y="284" on="1"/>
        <pt x="772" y="284" on="0"/>
        <pt x="799" y="257" on="0"/>
        <pt x="799" y="232" on="1"/>
        <pt x="799" y="207" on="0"/>
        <pt x="772" y="179" on="0"/>
      </contour>
      <contour>
        <pt x="484" y="277" on="1"/>
        <pt x="493" y="280" on="0"/>
        <pt x="510" y="284" on="0"/>
        <pt x="520" y="284" on="1"/>
        <pt x="566" y="284" on="0"/>
        <pt x="566" y="246" on="1"/>
        <pt x="566" y="212" on="1"/>
        <pt x="577" y="212" on="1"/>
        <pt x="577" y="185" on="1"/>
        <pt x="569" y="180" on="0"/>
        <pt x="557" y="180" on="1"/>
        <pt x="541" y="180" on="0"/>
        <pt x="535" y="187" on="1"/>
        <pt x="526" y="179" on="0"/>
        <pt x="510" y="179" on="1"/>
        <pt x="496" y="179" on="0"/>
        <pt x="476" y="195" on="0"/>
        <pt x="476" y="210" on="1"/>
        <pt x="476" y="224" on="0"/>
        <pt x="494" y="240" on="0"/>
        <pt x="515" y="240" on="1"/>
        <pt x="531" y="240" on="1"/>
        <pt x="531" y="241" on="1"/>
        <pt x="531" y="245" on="0"/>
        <pt x="522" y="251" on="0"/>
        <pt x="509" y="251" on="1"/>
        <pt x="484" y="251" on="1"/>
      </contour>
      <contour>
        <pt x="461" y="212" on="1"/>
        <pt x="461" y="186" on="1"/>
        <pt x="453" y="182" on="0"/>
        <pt x="433" y="179" on="0"/>
        <pt x="424" y="179" on="1"/>
        <pt x="398" y="179" on="0"/>
        <pt x="371" y="206" on="0"/>
        <pt x="371" y="230" on="1"/>
        <pt x="371" y="254" on="0"/>
        <pt x="395" y="284" on="0"/>
        <pt x="420" y="284" on="1"/>
        <pt x="440" y="284" on="0"/>
        <pt x="464" y="260" on="0"/>
        <pt x="464" y="242" on="1"/>
        <pt x="464" y="238" on="0"/>
        <pt x="463" y="229" on="0"/>
        <pt x="462" y="224" on="1"/>
        <pt x="407" y="224" on="1"/>
        <pt x="411" y="212" on="0"/>
        <pt x="432" y="212" on="1"/>
      </contour>
      <contour>
        <pt x="811" y="251" on="1"/>
        <pt x="811" y="282" on="1"/>
        <pt x="845" y="282" on="1"/>
        <pt x="855" y="266" on="1"/>
        <pt x="857" y="271" on="0"/>
        <pt x="862" y="276" on="0"/>
        <pt x="865" y="279" on="1"/>
        <pt x="872" y="284" on="0"/>
        <pt x="880" y="284" on="1"/>
        <pt x="886" y="284" on="0"/>
        <pt x="892" y="282" on="1"/>
        <pt x="892" y="251" on="1"/>
        <pt x="858" y="251" on="1"/>
        <pt x="858" y="212" on="1"/>
        <pt x="875" y="212" on="1"/>
        <pt x="875" y="182" on="1"/>
        <pt x="813" y="182" on="1"/>
        <pt x="813" y="212" on="1"/>
        <pt x="822" y="212" on="1"/>
        <pt x="822" y="251" on="1"/>
      </contour>
      <contour>
        <pt x="282" y="251" on="1"/>
        <pt x="282" y="282" on="1"/>
        <pt x="316" y="282" on="1"/>
        <pt x="326" y="266" on="1"/>
        <pt x="328" y="271" on="0"/>
        <pt x="333" y="276" on="0"/>
        <pt x="336" y="279" on="1"/>
        <pt x="343" y="284" on="0"/>
        <pt x="351" y="284" on="1"/>
        <pt x="357" y="284" on="0"/>
        <pt x="363" y="282" on="1"/>
        <pt x="363" y="251" on="1"/>
        <pt x="329" y="251" on="1"/>
        <pt x="329" y="212" on="1"/>
        <pt x="346" y="212" on="1"/>
        <pt x="346" y="182" on="1"/>
        <pt x="284" y="182" on="1"/>
        <pt x="284" y="212" on="1"/>
        <pt x="294" y="212" on="1"/>
        <pt x="294" y="251" on="1"/>
      </contour>
      <contour>
        <pt x="589" y="285" on="1"/>
        <pt x="577" y="285" on="1"/>
        <pt x="577" y="316" on="1"/>
        <pt x="624" y="316" on="1"/>
        <pt x="624" y="212" on="1"/>
        <pt x="638" y="212" on="1"/>
        <pt x="638" y="184" on="1"/>
        <pt x="629" y="180" on="0"/>
        <pt x="616" y="180" on="1"/>
        <pt x="589" y="180" on="0"/>
        <pt x="589" y="208" on="1"/>
      </contour>
      <contour>
        <pt x="651" y="199" on="1"/>
        <pt x="651" y="207" on="0"/>
        <pt x="661" y="219" on="0"/>
        <pt x="671" y="219" on="1"/>
        <pt x="682" y="219" on="0"/>
        <pt x="693" y="207" on="0"/>
        <pt x="693" y="199" on="1"/>
        <pt x="693" y="191" on="0"/>
        <pt x="682" y="180" on="0"/>
        <pt x="671" y="180" on="1"/>
        <pt x="661" y="180" on="0"/>
        <pt x="651" y="191" on="0"/>
      </contour>
      <contour>
        <pt x="749" y="206" on="1"/>
        <pt x="763" y="206" on="0"/>
        <pt x="763" y="232" on="1"/>
        <pt x="763" y="256" on="0"/>
        <pt x="749" y="256" on="1"/>
        <pt x="735" y="256" on="0"/>
        <pt x="735" y="232" on="1"/>
        <pt x="735" y="206" on="0"/>
      </contour>
      <contour>
        <pt x="936" y="247" on="1"/>
        <pt x="936" y="232" on="0"/>
        <pt x="948" y="232" on="1"/>
        <pt x="958" y="232" on="0"/>
        <pt x="958" y="247" on="1"/>
        <pt x="958" y="262" on="0"/>
        <pt x="948" y="262" on="1"/>
        <pt x="936" y="262" on="0"/>
      </contour>
      <contour>
        <pt x="520" y="204" on="1"/>
        <pt x="527" y="204" on="0"/>
        <pt x="531" y="207" on="1"/>
        <pt x="531" y="222" on="1"/>
        <pt x="523" y="222" on="1"/>
        <pt x="510" y="222" on="0"/>
        <pt x="510" y="213" on="1"/>
        <pt x="510" y="204" on="0"/>
      </contour>
      <contour>
        <pt x="419" y="258" on="1"/>
        <pt x="409" y="258" on="0"/>
        <pt x="406" y="242" on="1"/>
        <pt x="431" y="242" on="1"/>
        <pt x="431" y="258" on="0"/>
      </contour>
    </TTGlyph>
    <TTGlyph name="four" xMin="-19" yMin="0" xMax="526" yMax="707">
      <contour>
        <pt x="-19" y="177" on="1"/>
        <pt x="-10" y="212" on="1"/>
        <pt x="476" y="707" on="1"/>
        <pt x="526" y="707" on="1"/>
        <pt x="411" y="243" on="1"/>
        <pt x="485" y="243" on="1"/>
        <pt x="468" y="177" on="1"/>
        <pt x="394" y="177" on="1"/>
        <pt x="350" y="0" on="1"/>
        <pt x="253" y="0" on="1"/>
        <pt x="297" y="177" on="1"/>
      </contour>
      <contour>
        <pt x="96" y="243" on="1"/>
        <pt x="314" y="243" on="1"/>
        <pt x="386" y="534" on="1"/>
      </contour>
    </TTGlyph>
    <TTGlyph name="foursuperior" xMin="48" yMin="286" xMax="370" yMax="710">
      <contour>
        <pt x="48" y="398" on="1"/>
        <pt x="55" y="430" on="1"/>
        <pt x="331" y="710" on="1"/>
        <pt x="370" y="710" on="1"/>
        <pt x="304" y="443" on="1"/>
        <pt x="347" y="443" on="1"/>
        <pt x="336" y="398" on="1"/>
        <pt x="292" y="398" on="1"/>
        <pt x="264" y="286" on="1"/>
        <pt x="197" y="286" on="1"/>
        <pt x="226" y="398" on="1"/>
      </contour>
      <contour>
        <pt x="126" y="443" on="1"/>
        <pt x="237" y="443" on="1"/>
        <pt x="274" y="591" on="1"/>
      </contour>
    </TTGlyph>
    <TTGlyph name="fraction" xMin="-80" yMin="0" xMax="495" yMax="715">
      <contour>
        <pt x="-80" y="0" on="1"/>
        <pt x="434" y="715" on="1"/>
        <pt x="495" y="715" on="1"/>
        <pt x="-18" y="0" on="1"/>
      </contour>
    </TTGlyph>
    <TTGlyph name="g" xMin="-53" yMin="-308" xMax="503" yMax="507">
      <contour>
        <pt x="-53" y="-221" on="1"/>
        <pt x="-53" y="-173" on="0"/>
        <pt x="23" y="-132" on="1"/>
        <pt x="27" y="-142" on="0"/>
        <pt x="45" y="-193" on="0"/>
        <pt x="52" y="-210" on="0"/>
        <pt x="69" y="-242" on="0"/>
        <pt x="84" y="-253" on="0"/>
        <pt x="109" y="-264" on="0"/>
        <pt x="124" y="-264" on="1"/>
        <pt x="230" y="-264" on="0"/>
        <pt x="286" y="-43" on="1"/>
        <pt x="323" y="106" on="1"/>
        <pt x="237" y="-7" on="0"/>
        <pt x="135" y="-7" on="1"/>
        <pt x="87" y="-7" on="0"/>
        <pt x="24" y="63" on="0"/>
        <pt x="24" y="137" on="1"/>
        <pt x="24" y="291" on="0"/>
        <pt x="209" y="507" on="0"/>
        <pt x="340" y="507" on="1"/>
        <pt x="433" y="507" on="0"/>
        <pt x="503" y="461" on="1"/>
        <pt x="371" y="-68" on="1"/>
        <pt x="337" y="-204" on="0"/>
        <pt x="200" y="-308" on="0"/>
        <pt x="103" y="-308" on="1"/>
        <pt x="34" y="-308" on="0"/>
        <pt x="-53" y="-259" on="0"/>
      </contour>
      <contour>
        <pt x="122" y="159" on="1"/>
        <pt x="122" y="62" on="0"/>
        <pt x="184" y="62" on="1"/>
        <pt x="220" y="62" on="0"/>
        <pt x="312" y="142" on="0"/>
        <pt x="346" y="196" on="1"/>
        <pt x="412" y="456" on="1"/>
        <pt x="391" y="463" on="0"/>
        <pt x="362" y="463" on="1"/>
        <pt x="292" y="463" on="0"/>
        <pt x="179" y="368" on="0"/>
        <pt x="122" y="231" on="0"/>
      </contour>
    </TTGlyph>
    <TTGlyph name="germandbls" xMin="9" yMin="-7" xMax="605" yMax="807">
      <contour>
        <pt x="9" y="-7" on="1"/>
        <pt x="160" y="573" on="1"/>
        <pt x="221" y="807" on="0"/>
        <pt x="438" y="807" on="1"/>
        <pt x="519" y="807" on="0"/>
        <pt x="605" y="732" on="0"/>
        <pt x="605" y="676" on="1"/>
        <pt x="605" y="618" on="0"/>
        <pt x="556" y="547" on="0"/>
        <pt x="487" y="517" on="0"/>
        <pt x="418" y="494" on="0"/>
        <pt x="369" y="448" on="0"/>
        <pt x="369" y="409" on="1"/>
        <pt x="369" y="386" on="0"/>
        <pt x="397" y="343" on="0"/>
        <pt x="426" y="317" on="0"/>
        <pt x="458" y="293" on="1"/>
        <pt x="511" y="253" on="0"/>
        <pt x="556" y="188" on="0"/>
        <pt x="556" y="141" on="1"/>
        <pt x="556" y="73" on="0"/>
        <pt x="453" y="-7" on="0"/>
        <pt x="364" y="-7" on="1"/>
        <pt x="281" y="-7" on="0"/>
        <pt x="185" y="43" on="0"/>
        <pt x="185" y="80" on="1"/>
        <pt x="185" y="108" on="0"/>
        <pt x="218" y="144" on="0"/>
        <pt x="252" y="164" on="1"/>
        <pt x="285" y="106" on="1"/>
        <pt x="290" y="98" on="0"/>
        <pt x="309" y="69" on="0"/>
        <pt x="323" y="56" on="0"/>
        <pt x="343" y="41" on="0"/>
        <pt x="364" y="35" on="0"/>
        <pt x="377" y="35" on="1"/>
        <pt x="413" y="35" on="0"/>
        <pt x="470" y="74" on="0"/>
        <pt x="470" y="111" on="1"/>
        <pt x="470" y="143" on="0"/>
        <pt x="432" y="195" on="0"/>
        <pt x="405" y="214" on="1"/>
        <pt x="350" y="254" on="1"/>
        <pt x="323" y="274" on="0"/>
        <pt x="285" y="339" on="0"/>
        <pt x="285" y="380" on="1"/>
        <pt x="285" y="422" on="0"/>
        <pt x="319" y="480" on="0"/>
        <pt x="344" y="494" on="1"/>
        <pt x="454" y="552" on="1"/>
        <pt x="480" y="566" on="0"/>
        <pt x="514" y="622" on="0"/>
        <pt x="514" y="663" on="1"/>
        <pt x="514" y="707" on="0"/>
        <pt x="467" y="763" on="0"/>
        <pt x="422" y="763" on="1"/>
        <pt x="402" y="763" on="0"/>
        <pt x="359" y="746" on="0"/>
        <pt x="309" y="703" on="0"/>
        <pt x="262" y="612" on="0"/>
        <pt x="245" y="548" on="1"/>
        <pt x="103" y="0" on="1"/>
      </contour>
    </TTGlyph>
    <TTGlyph name="grave" xMin="-39" yMin="564" xMax="156" yMax="767">
      <contour>
        <pt x="-39" y="715" on="1"/>
        <pt x="-4" y="757" on="0"/>
        <pt x="55" y="767" on="1"/>
        <pt x="156" y="591" on="1"/>
        <pt x="121" y="564" on="1"/>
      </contour>
    </TTGlyph>
    <TTGlyph name="grave.case" xMin="-7" yMin="740" xMax="209" yMax="890">
      <contour>
        <pt x="-7" y="811" on="1"/>
        <pt x="6" y="837" on="0"/>
        <pt x="50" y="881" on="0"/>
        <pt x="75" y="890" on="1"/>
        <pt x="209" y="771" on="1"/>
        <pt x="182" y="740" on="1"/>
      </contour>
    </TTGlyph>
    <TTGlyph name="greater" xMin="122" yMin="100" xMax="551" yMax="616">
      <contour>
        <pt x="122" y="100" on="1"/>
        <pt x="122" y="177" on="1"/>
        <pt x="458" y="357" on="1"/>
        <pt x="122" y="539" on="1"/>
        <pt x="122" y="616" on="1"/>
        <pt x="551" y="385" on="1"/>
        <pt x="551" y="330" on="1"/>
      </contour>
    </TTGlyph>
    <TTGlyph name="guillemotleft" xMin="40" yMin="80" xMax="421" yMax="460">
      <contour>
        <pt x="40" y="254" on="1"/>
        <pt x="48" y="286" on="1"/>
        <pt x="236" y="460" on="1"/>
        <pt x="283" y="460" on="1"/>
        <pt x="140" y="270" on="1"/>
        <pt x="188" y="80" on="1"/>
        <pt x="141" y="80" on="1"/>
      </contour>
      <contour>
        <pt x="222" y="256" on="1"/>
        <pt x="229" y="284" on="1"/>
        <pt x="379" y="431" on="1"/>
        <pt x="421" y="431" on="1"/>
        <pt x="317" y="270" on="1"/>
        <pt x="335" y="99" on="1"/>
        <pt x="293" y="99" on="1"/>
      </contour>
    </TTGlyph>
    <TTGlyph name="guillemotright" xMin="26" yMin="80" xMax="407" yMax="460">
      <contour>
        <pt x="26" y="109" on="1"/>
        <pt x="130" y="270" on="1"/>
        <pt x="112" y="441" on="1"/>
        <pt x="154" y="441" on="1"/>
        <pt x="225" y="284" on="1"/>
        <pt x="218" y="256" on="1"/>
        <pt x="68" y="109" on="1"/>
      </contour>
      <contour>
        <pt x="164" y="80" on="1"/>
        <pt x="307" y="270" on="1"/>
        <pt x="259" y="460" on="1"/>
        <pt x="306" y="460" on="1"/>
        <pt x="407" y="286" on="1"/>
        <pt x="399" y="254" on="1"/>
        <pt x="211" y="80" on="1"/>
      </contour>
    </TTGlyph>
    <TTGlyph name="guilsinglleft" xMin="40" yMin="80" xMax="283" yMax="460">
      <contour>
        <pt x="40" y="254" on="1"/>
        <pt x="48" y="286" on="1"/>
        <pt x="236" y="460" on="1"/>
        <pt x="283" y="460" on="1"/>
        <pt x="140" y="270" on="1"/>
        <pt x="188" y="80" on="1"/>
        <pt x="141" y="80" on="1"/>
      </contour>
    </TTGlyph>
    <TTGlyph name="guilsinglright" xMin="5" yMin="80" xMax="248" yMax="460">
      <contour>
        <pt x="5" y="80" on="1"/>
        <pt x="148" y="270" on="1"/>
        <pt x="100" y="460" on="1"/>
        <pt x="147" y="460" on="1"/>
        <pt x="248" y="286" on="1"/>
        <pt x="240" y="254" on="1"/>
        <pt x="52" y="80" on="1"/>
      </contour>
    </TTGlyph>
    <TTGlyph name="h" xMin="12" yMin="-7" xMax="507" yMax="807">
      <contour>
        <pt x="12" y="-7" on="1"/>
        <pt x="196" y="731" on="1"/>
        <pt x="96" y="731" on="1"/>
        <pt x="96" y="763" on="1"/>
        <pt x="170" y="786" on="0"/>
        <pt x="247" y="807" on="0"/>
        <pt x="261" y="807" on="1"/>
        <pt x="296" y="807" on="0"/>
        <pt x="296" y="777" on="1"/>
        <pt x="296" y="762" on="0"/>
        <pt x="289" y="736" on="1"/>
        <pt x="197" y="373" on="1"/>
        <pt x="296" y="507" on="0"/>
        <pt x="399" y="507" on="1"/>
        <pt x="492" y="507" on="0"/>
        <pt x="492" y="409" on="1"/>
        <pt x="492" y="362" on="0"/>
        <pt x="467" y="276" on="1"/>
        <pt x="407" y="69" on="1"/>
        <pt x="507" y="69" on="1"/>
        <pt x="507" y="37" on="1"/>
        <pt x="433" y="14" on="0"/>
        <pt x="356" y="-7" on="0"/>
        <pt x="342" y="-7" on="1"/>
        <pt x="307" y="-7" on="0"/>
        <pt x="307" y="23" on="1"/>
        <pt x="307" y="38" on="0"/>
        <pt x="314" y="64" on="1"/>
        <pt x="385" y="310" on="1"/>
        <pt x="398" y="360" on="0"/>
        <pt x="399" y="378" on="0"/>
        <pt x="399" y="386" on="1"/>
        <pt x="399" y="434" on="0"/>
        <pt x="362" y="434" on="1"/>
        <pt x="324" y="434" on="0"/>
        <pt x="212" y="344" on="0"/>
        <pt x="175" y="284" on="1"/>
        <pt x="104" y="0" on="1"/>
      </contour>
    </TTGlyph>
    <TTGlyph name="hyphen" xMin="70" yMin="235" xMax="289" yMax="312">
      <contour>
        <pt x="70" y="235" on="1"/>
        <pt x="70" y="312" on="1"/>
        <pt x="289" y="312" on="1"/>
        <pt x="289" y="235" on="1"/>
      </contour>
    </TTGlyph>
    <TTGlyph name="i" xMin="44" yMin="-7" xMax="295" yMax="708">
      <contour>
        <pt x="45" y="22" on="1"/>
        <pt x="44" y="30" on="0"/>
        <pt x="49" y="50" on="0"/>
        <pt x="52" y="63" on="1"/>
        <pt x="146" y="432" on="1"/>
        <pt x="45" y="432" on="1"/>
        <pt x="45" y="463" on="1"/>
        <pt x="183" y="507" on="0"/>
        <pt x="210" y="507" on="1"/>
        <pt x="246" y="507" on="0"/>
        <pt x="246" y="478" on="1"/>
        <pt x="246" y="467" on="0"/>
        <pt x="238" y="437" on="1"/>
        <pt x="146" y="68" on="1"/>
        <pt x="246" y="68" on="1"/>
        <pt x="246" y="37" on="1"/>
        <pt x="114" y="-7" on="0"/>
        <pt x="81" y="-7" on="1"/>
        <pt x="45" y="-7" on="0"/>
      </contour>
      <contour>
        <pt x="166" y="644" on="1"/>
        <pt x="166" y="671" on="0"/>
        <pt x="204" y="708" on="0"/>
        <pt x="231" y="708" on="1"/>
        <pt x="258" y="708" on="0"/>
        <pt x="295" y="671" on="0"/>
        <pt x="295" y="644" on="1"/>
        <pt x="295" y="616" on="0"/>
        <pt x="258" y="579" on="0"/>
        <pt x="231" y="579" on="1"/>
        <pt x="204" y="579" on="0"/>
        <pt x="166" y="616" on="0"/>
      </contour>
    </TTGlyph>
    <TTGlyph name="iacute" xMin="45" yMin="-7" xMax="338" yMax="767">
      <component glyphName="dotlessi" x="0" y="0" flags="0x204"/>
      <component glyphName="acute" x="133" y="0" flags="0x4"/>
    </TTGlyph>
    <TTGlyph name="icircumflex" xMin="23" yMin="-7" xMax="324" yMax="771">
      <component glyphName="dotlessi" x="0" y="0" flags="0x204"/>
      <component glyphName="circumflex" x="30" y="0" flags="0x4"/>
    </TTGlyph>
    <TTGlyph name="idieresis" xMin="45" yMin="-7" xMax="382" yMax="758">
      <component glyphName="dotlessi" x="0" y="0" flags="0x204"/>
      <component glyphName="dieresis" x="21" y="0" flags="0x4"/>
    </TTGlyph>
    <TTGlyph name="igrave" xMin="41" yMin="-7" xMax="246" yMax="767">
      <component glyphName="dotlessi" x="0" y="0" flags="0x204"/>
      <component glyphName="grave" x="80" y="0" flags="0x4"/>
    </TTGlyph>
    <TTGlyph name="j" xMin="-302" yMin="-308" xMax="310" yMax="708">
      <contour>
        <pt x="-302" y="-221" on="1"/>
        <pt x="-302" y="-173" on="0"/>
        <pt x="-226" y="-132" on="1"/>
        <pt x="-222" y="-142" on="0"/>
        <pt x="-204" y="-193" on="0"/>
        <pt x="-197" y="-210" on="0"/>
        <pt x="-180" y="-242" on="0"/>
        <pt x="-165" y="-253" on="0"/>
        <pt x="-141" y="-264" on="0"/>
        <pt x="-126" y="-264" on="1"/>
        <pt x="-82" y="-264" on="0"/>
        <pt x="8" y="-168" on="0"/>
        <pt x="38" y="-43" on="1"/>
        <pt x="153" y="431" on="1"/>
        <pt x="53" y="431" on="1"/>
        <pt x="53" y="463" on="1"/>
        <pt x="127" y="486" on="0"/>
        <pt x="204" y="507" on="0"/>
        <pt x="218" y="507" on="1"/>
        <pt x="253" y="507" on="0"/>
        <pt x="253" y="477" on="1"/>
        <pt x="253" y="463" on="0"/>
        <pt x="246" y="436" on="1"/>
        <pt x="121" y="-68" on="1"/>
        <pt x="62" y="-308" on="0"/>
        <pt x="-145" y="-308" on="1"/>
        <pt x="-215" y="-308" on="0"/>
        <pt x="-302" y="-259" on="0"/>
      </contour>
      <contour>
        <pt x="181" y="644" on="1"/>
        <pt x="181" y="671" on="0"/>
        <pt x="219" y="708" on="0"/>
        <pt x="246" y="708" on="1"/>
        <pt x="273" y="708" on="0"/>
        <pt x="310" y="671" on="0"/>
        <pt x="310" y="644" on="1"/>
        <pt x="310" y="616" on="0"/>
        <pt x="273" y="579" on="0"/>
        <pt x="246" y="579" on="1"/>
        <pt x="219" y="579" on="0"/>
        <pt x="181" y="616" on="0"/>
      </contour>
    </TTGlyph>
    <TTGlyph name="k" xMin="12" yMin="-7" xMax="483" yMax="807">
      <contour>
        <pt x="12" y="-7" on="1"/>
        <pt x="195" y="731" on="1"/>
        <pt x="95" y="731" on="1"/>
        <pt x="95" y="763" on="1"/>
        <pt x="169" y="786" on="0"/>
        <pt x="246" y="807" on="0"/>
        <pt x="260" y="807" on="1"/>
        <pt x="295" y="807" on="0"/>
        <pt x="295" y="777" on="1"/>
        <pt x="295" y="767" on="0"/>
        <pt x="288" y="736" on="1"/>
        <pt x="104" y="0" on="1"/>
      </contour>
      <contour>
        <pt x="187" y="260" on="1"/>
        <pt x="382" y="349" on="0"/>
        <pt x="382" y="406" on="1"/>
        <pt x="382" y="433" on="0"/>
        <pt x="345" y="481" on="1"/>
        <pt x="377" y="507" on="0"/>
        <pt x="418" y="507" on="1"/>
        <pt x="483" y="507" on="0"/>
        <pt x="483" y="447" on="1"/>
        <pt x="483" y="356" on="0"/>
        <pt x="290" y="259" on="1"/>
        <pt x="342" y="163" on="1"/>
        <pt x="380" y="94" on="0"/>
        <pt x="428" y="42" on="0"/>
        <pt x="476" y="27" on="1"/>
        <pt x="468" y="-7" on="1"/>
        <pt x="391" y="-7" on="0"/>
        <pt x="311" y="35" on="0"/>
        <pt x="273" y="104" on="1"/>
      </contour>
    </TTGlyph>
    <TTGlyph name="l" xMin="29" yMin="-7" xMax="303" yMax="807">
      <contour>
        <pt x="29" y="22" on="1"/>
        <pt x="29" y="35" on="0"/>
        <pt x="37" y="63" on="1"/>
        <pt x="203" y="731" on="1"/>
        <pt x="103" y="731" on="1"/>
        <pt x="103" y="763" on="1"/>
        <pt x="176" y="786" on="0"/>
        <pt x="252" y="807" on="0"/>
        <pt x="268" y="807" on="1"/>
        <pt x="303" y="807" on="0"/>
        <pt x="303" y="777" on="1"/>
        <pt x="303" y="765" on="0"/>
        <pt x="295" y="736" on="1"/>
        <pt x="129" y="68" on="1"/>
        <pt x="229" y="68" on="1"/>
        <pt x="229" y="37" on="1"/>
        <pt x="97" y="-7" on="0"/>
        <pt x="64" y="-7" on="1"/>
        <pt x="29" y="-7" on="0"/>
      </contour>
    </TTGlyph>
    <TTGlyph name="less" xMin="60" yMin="100" xMax="489" yMax="616">
      <contour>
        <pt x="60" y="330" on="1"/>
        <pt x="60" y="385" on="1"/>
        <pt x="489" y="616" on="1"/>
        <pt x="489" y="539" on="1"/>
        <pt x="153" y="357" on="1"/>
        <pt x="489" y="177" on="1"/>
        <pt x="489" y="100" on="1"/>
      </contour>
    </TTGlyph>
    <TTGlyph name="logicalnot" xMin="70" yMin="123" xMax="498" yMax="390">
      <contour>
        <pt x="70" y="326" on="1"/>
        <pt x="70" y="390" on="1"/>
        <pt x="498" y="390" on="1"/>
        <pt x="498" y="123" on="1"/>
        <pt x="434" y="123" on="1"/>
        <pt x="434" y="326" on="1"/>
      </contour>
    </TTGlyph>
    <TTGlyph name="m" xMin="36" yMin="-7" xMax="802" yMax="507">
      <contour>
        <pt x="36" y="-7" on="1"/>
        <pt x="146" y="431" on="1"/>
        <pt x="46" y="431" on="1"/>
        <pt x="46" y="463" on="1"/>
        <pt x="121" y="486" on="0"/>
        <pt x="197" y="507" on="0"/>
        <pt x="211" y="507" on="1"/>
        <pt x="246" y="507" on="0"/>
        <pt x="246" y="477" on="1"/>
        <pt x="246" y="469" on="0"/>
        <pt x="242" y="449" on="0"/>
        <pt x="239" y="436" on="1"/>
        <pt x="226" y="386" on="1"/>
        <pt x="314" y="507" on="0"/>
        <pt x="413" y="507" on="1"/>
        <pt x="507" y="507" on="0"/>
        <pt x="507" y="407" on="1"/>
        <pt x="507" y="404" on="0"/>
        <pt x="506" y="392" on="0"/>
        <pt x="505" y="383" on="1"/>
        <pt x="595" y="507" on="0"/>
        <pt x="694" y="507" on="1"/>
        <pt x="788" y="507" on="0"/>
        <pt x="788" y="407" on="1"/>
        <pt x="788" y="344" on="0"/>
        <pt x="702" y="69" on="1"/>
        <pt x="802" y="69" on="1"/>
        <pt x="802" y="37" on="1"/>
        <pt x="728" y="14" on="0"/>
        <pt x="654" y="-7" on="0"/>
        <pt x="637" y="-7" on="1"/>
        <pt x="602" y="-7" on="0"/>
        <pt x="602" y="23" on="1"/>
        <pt x="602" y="40" on="0"/>
        <pt x="609" y="64" on="1"/>
        <pt x="693" y="350" on="0"/>
        <pt x="693" y="387" on="1"/>
        <pt x="693" y="433" on="0"/>
        <pt x="657" y="433" on="1"/>
        <pt x="639" y="433" on="0"/>
        <pt x="594" y="410" on="0"/>
        <pt x="548" y="372" on="0"/>
        <pt x="504" y="322" on="0"/>
        <pt x="486" y="294" on="1"/>
        <pt x="407" y="0" on="1"/>
        <pt x="312" y="-7" on="1"/>
        <pt x="388" y="273" on="1"/>
        <pt x="412" y="361" on="0"/>
        <pt x="412" y="387" on="1"/>
        <pt x="412" y="433" on="0"/>
        <pt x="376" y="433" on="1"/>
        <pt x="358" y="433" on="0"/>
        <pt x="313" y="409" on="0"/>
        <pt x="265" y="370" on="0"/>
        <pt x="219" y="317" on="0"/>
        <pt x="201" y="289" on="1"/>
        <pt x="128" y="0" on="1"/>
      </contour>
    </TTGlyph>
    <TTGlyph name="minus" xMin="96" yMin="323" xMax="546" yMax="391">
      <contour>
        <pt x="96" y="323" on="1"/>
        <pt x="96" y="391" on="1"/>
        <pt x="546" y="391" on="1"/>
        <pt x="546" y="323" on="1"/>
      </contour>
    </TTGlyph>
    <TTGlyph name="mu" xMin="-22" yMin="-248" xMax="563" yMax="500">
      <contour>
        <pt x="-22" y="-211" on="1"/>
        <pt x="-22" y="-204" on="0"/>
        <pt x="-18" y="-186" on="1"/>
        <pt x="153" y="500" on="1"/>
        <pt x="248" y="500" on="1"/>
        <pt x="162" y="155" on="1"/>
        <pt x="157" y="133" on="0"/>
        <pt x="157" y="119" on="1"/>
        <pt x="157" y="86" on="0"/>
        <pt x="194" y="50" on="0"/>
        <pt x="228" y="50" on="1"/>
        <pt x="289" y="50" on="0"/>
        <pt x="369" y="101" on="1"/>
        <pt x="468" y="500" on="1"/>
        <pt x="563" y="500" on="1"/>
        <pt x="473" y="138" on="1"/>
        <pt x="469" y="122" on="0"/>
        <pt x="469" y="106" on="1"/>
        <pt x="469" y="59" on="0"/>
        <pt x="515" y="59" on="1"/>
        <pt x="527" y="59" on="1"/>
        <pt x="520" y="32" on="1"/>
        <pt x="465" y="-15" on="0"/>
        <pt x="413" y="-15" on="1"/>
        <pt x="390" y="-15" on="0"/>
        <pt x="362" y="10" on="0"/>
        <pt x="356" y="33" on="0"/>
        <pt x="356" y="45" on="1"/>
        <pt x="356" y="50" on="1"/>
        <pt x="272" y="-15" on="0"/>
        <pt x="192" y="-15" on="1"/>
        <pt x="126" y="-15" on="0"/>
        <pt x="102" y="32" on="1"/>
        <pt x="78" y="-49" on="0"/>
        <pt x="78" y="-116" on="1"/>
        <pt x="78" y="-172" on="0"/>
        <pt x="99" y="-187" on="1"/>
        <pt x="98" y="-189" on="0"/>
        <pt x="95" y="-198" on="0"/>
        <pt x="81" y="-219" on="0"/>
        <pt x="64" y="-235" on="0"/>
        <pt x="36" y="-248" on="0"/>
        <pt x="19" y="-248" on="1"/>
        <pt x="-22" y="-248" on="0"/>
      </contour>
    </TTGlyph>
    <TTGlyph name="multiply" xMin="99" yMin="142" xMax="530" yMax="573">
      <contour>
        <pt x="99" y="190" on="1"/>
        <pt x="267" y="357" on="1"/>
        <pt x="99" y="525" on="1"/>
        <pt x="147" y="572" on="1"/>
        <pt x="314" y="405" on="1"/>
        <pt x="483" y="573" on="1"/>
        <pt x="530" y="525" on="1"/>
        <pt x="362" y="357" on="1"/>
        <pt x="530" y="189" on="1"/>
        <pt x="483" y="142" on="1"/>
        <pt x="315" y="310" on="1"/>
        <pt x="147" y="143" on="1"/>
      </contour>
    </TTGlyph>
    <TTGlyph name="n" xMin="37" yMin="-7" xMax="532" yMax="507">
      <contour>
        <pt x="37" y="-7" on="1"/>
        <pt x="146" y="431" on="1"/>
        <pt x="46" y="431" on="1"/>
        <pt x="46" y="463" on="1"/>
        <pt x="121" y="486" on="0"/>
        <pt x="197" y="507" on="0"/>
        <pt x="211" y="507" on="1"/>
        <pt x="246" y="507" on="0"/>
        <pt x="246" y="477" on="1"/>
        <pt x="246" y="469" on="0"/>
        <pt x="242" y="449" on="0"/>
        <pt x="239" y="436" on="1"/>
        <pt x="223" y="374" on="1"/>
        <pt x="323" y="507" on="0"/>
        <pt x="424" y="507" on="1"/>
        <pt x="517" y="507" on="0"/>
        <pt x="517" y="409" on="1"/>
        <pt x="517" y="359" on="0"/>
        <pt x="492" y="276" on="1"/>
        <pt x="432" y="69" on="1"/>
        <pt x="532" y="69" on="1"/>
        <pt x="532" y="37" on="1"/>
        <pt x="457" y="14" on="0"/>
        <pt x="381" y="-7" on="0"/>
        <pt x="367" y="-7" on="1"/>
        <pt x="332" y="-7" on="0"/>
        <pt x="332" y="23" on="1"/>
        <pt x="332" y="40" on="0"/>
        <pt x="339" y="64" on="1"/>
        <pt x="415" y="327" on="0"/>
        <pt x="424" y="370" on="0"/>
        <pt x="424" y="386" on="1"/>
        <pt x="424" y="433" on="0"/>
        <pt x="387" y="433" on="1"/>
        <pt x="369" y="433" on="0"/>
        <pt x="320" y="408" on="0"/>
        <pt x="268" y="367" on="0"/>
        <pt x="219" y="313" on="0"/>
        <pt x="201" y="285" on="1"/>
        <pt x="129" y="0" on="1"/>
      </contour>
    </TTGlyph>
    <TTGlyph name="nine" xMin="50" yMin="-8" xMax="525" yMax="707">
      <contour>
        <pt x="50" y="39" on="1"/>
        <pt x="176" y="63" on="0"/>
        <pt x="362" y="222" on="0"/>
        <pt x="406" y="335" on="1"/>
        <pt x="325" y="272" on="0"/>
        <pt x="234" y="272" on="1"/>
        <pt x="158" y="272" on="0"/>
        <pt x="79" y="365" on="0"/>
        <pt x="79" y="436" on="1"/>
        <pt x="79" y="551" on="0"/>
        <pt x="226" y="707" on="0"/>
        <pt x="346" y="707" on="1"/>
        <pt x="433" y="707" on="0"/>
        <pt x="525" y="594" on="0"/>
        <pt x="525" y="503" on="1"/>
        <pt x="525" y="378" on="0"/>
        <pt x="412" y="158" on="0"/>
        <pt x="195" y="8" on="0"/>
        <pt x="56" y="-8" on="1"/>
      </contour>
      <contour>
        <pt x="183" y="454" on="1"/>
        <pt x="183" y="406" on="0"/>
        <pt x="231" y="343" on="0"/>
        <pt x="280" y="343" on="1"/>
        <pt x="349" y="343" on="0"/>
        <pt x="424" y="391" on="1"/>
        <pt x="438" y="444" on="0"/>
        <pt x="438" y="501" on="1"/>
        <pt x="438" y="572" on="0"/>
        <pt x="382" y="658" on="0"/>
        <pt x="332" y="658" on="1"/>
        <pt x="272" y="658" on="0"/>
        <pt x="183" y="534" on="0"/>
      </contour>
    </TTGlyph>
    <TTGlyph name="nonbreakingspace" xMin="0" yMin="0" xMax="0" yMax="0">
      <component glyphName="space" x="0" y="0" flags="0x204"/>
    </TTGlyph>
    <TTGlyph name="ntilde" xMin="37" yMin="-7" xMax="544" yMax="753">
      <component glyphName="n" x="0" y="0" flags="0x204"/>
      <component glyphName="tilde" x="170" y="0" flags="0x4"/>
    </TTGlyph>
    <TTGlyph name="numbersign" xMin="23" yMin="0" xMax="557" yMax="700">
      <contour>
        <pt x="23" y="0" on="1"/>
        <pt x="101" y="201" on="1"/>
        <pt x="27" y="201" on="1"/>
        <pt x="42" y="265" on="1"/>
        <pt x="126" y="265" on="1"/>
        <pt x="201" y="456" on="1"/>
        <pt x="108" y="456" on="1"/>
        <pt x="123" y="520" on="1"/>
        <pt x="226" y="520" on="1"/>
        <pt x="297" y="700" on="1"/>
        <pt x="361" y="700" on="1"/>
        <pt x="290" y="520" on="1"/>
        <pt x="411" y="520" on="1"/>
        <pt x="482" y="700" on="1"/>
        <pt x="546" y="700" on="1"/>
        <pt x="474" y="520" on="1"/>
        <pt x="557" y="520" on="1"/>
        <pt x="543" y="456" on="1"/>
        <pt x="450" y="456" on="1"/>
        <pt x="374" y="265" on="1"/>
        <pt x="476" y="265" on="1"/>
        <pt x="461" y="201" on="1"/>
        <pt x="349" y="201" on="1"/>
        <pt x="271" y="0" on="1"/>
        <pt x="207" y="0" on="1"/>
        <pt x="285" y="201" on="1"/>
        <pt x="164" y="201" on="1"/>
        <pt x="86" y="0" on="1"/>
      </contour>
      <contour>
        <pt x="189" y="265" on="1"/>
        <pt x="311" y="265" on="1"/>
        <pt x="386" y="456" on="1"/>
        <pt x="265" y="456" on="1"/>
      </contour>
    </TTGlyph>
    <TTGlyph name="o" xMin="26" yMin="-7" xMax="490" yMax="507">
      <contour>
        <pt x="26" y="176" on="1"/>
        <pt x="26" y="258" on="0"/>
        <pt x="97" y="407" on="0"/>
        <pt x="236" y="507" on="0"/>
        <pt x="324" y="507" on="1"/>
        <pt x="406" y="507" on="0"/>
        <pt x="490" y="409" on="0"/>
        <pt x="490" y="323" on="1"/>
        <pt x="490" y="242" on="0"/>
        <pt x="419" y="92" on="0"/>
        <pt x="279" y="-7" on="0"/>
        <pt x="191" y="-7" on="1"/>
        <pt x="109" y="-7" on="0"/>
        <pt x="26" y="90" on="0"/>
      </contour>
      <contour>
        <pt x="127" y="158" on="1"/>
        <pt x="127" y="33" on="0"/>
        <pt x="203" y="33" on="1"/>
        <pt x="249" y="33" on="0"/>
        <pt x="323" y="98" on="0"/>
        <pt x="366" y="196" on="0"/>
        <pt x="388" y="297" on="0"/>
        <pt x="388" y="341" on="1"/>
        <pt x="388" y="467" on="0"/>
        <pt x="312" y="467" on="1"/>
        <pt x="267" y="467" on="0"/>
        <pt x="192" y="402" on="0"/>
        <pt x="150" y="304" on="0"/>
        <pt x="127" y="202" on="0"/>
      </contour>
    </TTGlyph>
    <TTGlyph name="oacute" xMin="26" yMin="-7" xMax="511" yMax="767">
      <component glyphName="o" x="0" y="0" flags="0x204"/>
      <component glyphName="acute" x="306" y="0" flags="0x4"/>
    </TTGlyph>
    <TTGlyph name="ocircumflex" xMin="26" yMin="-7" xMax="501" yMax="762">
      <component glyphName="o" x="0" y="0" flags="0x204"/>
      <component glyphName="circumflex" x="207" y="-9" flags="0x4"/>
    </TTGlyph>
    <TTGlyph name="odieresis" xMin="26" yMin="-7" xMax="501" yMax="758">
      <component glyphName="o" x="0" y="0" flags="0x204"/>
      <component glyphName="dieresis" x="140" y="0" flags="0x4"/>
    </TTGlyph>
    <TTGlyph name="oe" xMin="26" yMin="-7" xMax="806" yMax="507">
      <contour>
        <pt x="26" y="176" on="1"/>
        <pt x="26" y="258" on="0"/>
        <pt x="97" y="407" on="0"/>
        <pt x="236" y="507" on="0"/>
        <pt x="324" y="507" on="1"/>
        <pt x="406" y="507" on="0"/>
        <pt x="448" y="458" on="1"/>
        <pt x="463" y="439" on="0"/>
        <pt x="473" y="416" on="1"/>
        <pt x="524" y="465" on="0"/>
        <pt x="624" y="507" on="0"/>
        <pt x="681" y="507" on="1"/>
        <pt x="737" y="507" on="0"/>
        <pt x="806" y="456" on="0"/>
        <pt x="806" y="407" on="1"/>
        <pt x="806" y="370" on="0"/>
        <pt x="763" y="309" on="0"/>
        <pt x="701" y="267" on="0"/>
        <pt x="605" y="231" on="0"/>
        <pt x="526" y="210" on="0"/>
        <pt x="474" y="199" on="1"/>
        <pt x="473" y="190" on="0"/>
        <pt x="473" y="172" on="1"/>
        <pt x="473" y="42" on="0"/>
        <pt x="586" y="42" on="1"/>
        <pt x="638" y="42" on="0"/>
        <pt x="709" y="69" on="1"/>
        <pt x="719" y="38" on="1"/>
        <pt x="629" y="-7" on="0"/>
        <pt x="535" y="-7" on="1"/>
        <pt x="422" y="-7" on="0"/>
        <pt x="388" y="74" on="1"/>
        <pt x="370" y="57" on="0"/>
        <pt x="349" y="42" on="1"/>
        <pt x="279" y="-7" on="0"/>
        <pt x="191" y="-7" on="1"/>
        <pt x="109" y="-7" on="0"/>
        <pt x="26" y="90" on="0"/>
      </contour>
      <contour>
        <pt x="127" y="158" on="1"/>
        <pt x="127" y="33" on="0"/>
        <pt x="203" y="33" on="1"/>
        <pt x="249" y="33" on="0"/>
        <pt x="323" y="98" on="0"/>
        <pt x="366" y="196" on="0"/>
        <pt x="388" y="297" on="0"/>
        <pt x="388" y="341" on="1"/>
        <pt x="388" y="467" on="0"/>
        <pt x="312" y="467" on="1"/>
        <pt x="267" y="467" on="0"/>
        <pt x="192" y="402" on="0"/>
        <pt x="150" y="304" on="0"/>
        <pt x="127" y="202" on="0"/>
      </contour>
      <contour>
        <pt x="479" y="238" on="1"/>
        <pt x="708" y="321" on="0"/>
        <pt x="708" y="417" on="1"/>
        <pt x="708" y="469" on="0"/>
        <pt x="661" y="469" on="1"/>
        <pt x="601" y="469" on="0"/>
        <pt x="548" y="400" on="1"/>
        <pt x="506" y="344" on="0"/>
        <pt x="486" y="272" on="1"/>
        <pt x="484" y="255" on="0"/>
      </contour>
    </TTGlyph>
    <TTGlyph name="ograve" xMin="26" yMin="-7" xMax="490" yMax="767">
      <component glyphName="o" x="0" y="0" flags="0x204"/>
      <component glyphName="grave" x="209" y="0" flags="0x4"/>
    </TTGlyph>
    <TTGlyph name="one" xMin="68" yMin="0" xMax="344" yMax="707">
      <contour>
        <pt x="68" y="0" on="1"/>
        <pt x="224" y="611" on="1"/>
        <pt x="99" y="560" on="1"/>
        <pt x="93" y="596" on="1"/>
        <pt x="319" y="707" on="1"/>
        <pt x="344" y="707" on="1"/>
        <pt x="167" y="0" on="1"/>
      </contour>
    </TTGlyph>
    <TTGlyph name="onehalf" xMin="80" yMin="0" xMax="720" yMax="709">
      <component glyphName="slash" x="115" y="0" flags="0x4"/>
      <component glyphName="onesuperior" x="22" y="0" flags="0x4"/>
      <component glyphName="twosuperior" x="347" y="-283" flags="0x4"/>
    </TTGlyph>
    <TTGlyph name="onequarter" xMin="79" yMin="0" xMax="671" yMax="709">
      <component glyphName="slash" x="114" y="0" flags="0x4"/>
      <component glyphName="onesuperior" x="21" y="0" flags="0x4"/>
      <component glyphName="foursuperior" x="301" y="-285" flags="0x4"/>
    </TTGlyph>
    <TTGlyph name="onesuperior" xMin="92" yMin="285" xMax="271" yMax="709">
      <contour>
        <pt x="92" y="285" on="1"/>
        <pt x="182" y="640" on="1"/>
        <pt x="115" y="612" on="1"/>
        <pt x="107" y="644" on="1"/>
        <pt x="241" y="709" on="1"/>
        <pt x="271" y="709" on="1"/>
        <pt x="166" y="285" on="1"/>
      </contour>
    </TTGlyph>
    <TTGlyph name="ordfeminine" xMin="97" yMin="387" xMax="406" yMax="708">
      <contour>
        <pt x="97" y="477" on="1"/>
        <pt x="97" y="573" on="0"/>
        <pt x="217" y="708" on="0"/>
        <pt x="300" y="708" on="1"/>
        <pt x="364" y="708" on="0"/>
        <pt x="406" y="679" on="1"/>
        <pt x="344" y="438" on="1"/>
        <pt x="406" y="438" on="1"/>
        <pt x="406" y="415" on="1"/>
        <pt x="358" y="400" on="0"/>
        <pt x="331" y="393" on="1"/>
        <pt x="313" y="387" on="0"/>
        <pt x="292" y="387" on="1"/>
        <pt x="272" y="387" on="0"/>
        <pt x="272" y="405" on="1"/>
        <pt x="272" y="412" on="0"/>
        <pt x="276" y="431" on="1"/>
        <pt x="282" y="454" on="1"/>
        <pt x="230" y="387" on="0"/>
        <pt x="167" y="387" on="1"/>
        <pt x="135" y="387" on="0"/>
        <pt x="97" y="435" on="0"/>
      </contour>
      <contour>
        <pt x="173" y="491" on="1"/>
        <pt x="173" y="438" on="0"/>
        <pt x="207" y="438" on="1"/>
        <pt x="229" y="438" on="0"/>
        <pt x="280" y="483" on="0"/>
        <pt x="298" y="518" on="1"/>
        <pt x="339" y="671" on="1"/>
        <pt x="327" y="675" on="0"/>
        <pt x="313" y="675" on="1"/>
        <pt x="248" y="675" on="0"/>
        <pt x="173" y="563" on="0"/>
      </contour>
    </TTGlyph>
    <TTGlyph name="ordmasculine" xMin="97" yMin="387" xMax="419" yMax="708">
      <contour>
        <pt x="97" y="500" on="1"/>
        <pt x="97" y="585" on="0"/>
        <pt x="215" y="708" on="0"/>
        <pt x="297" y="708" on="1"/>
        <pt x="356" y="708" on="0"/>
        <pt x="419" y="646" on="0"/>
        <pt x="419" y="595" on="1"/>
        <pt x="419" y="511" on="0"/>
        <pt x="302" y="387" on="0"/>
        <pt x="218" y="387" on="1"/>
        <pt x="158" y="387" on="0"/>
        <pt x="97" y="448" on="0"/>
      </contour>
      <contour>
        <pt x="180" y="486" on="1"/>
        <pt x="180" y="421" on="0"/>
        <pt x="226" y="421" on="1"/>
        <pt x="270" y="421" on="0"/>
        <pt x="336" y="546" on="0"/>
        <pt x="336" y="609" on="1"/>
        <pt x="336" y="674" on="0"/>
        <pt x="289" y="674" on="1"/>
        <pt x="245" y="674" on="0"/>
        <pt x="180" y="550" on="0"/>
      </contour>
    </TTGlyph>
    <TTGlyph name="oslash" xMin="26" yMin="-71" xMax="490" yMax="569">
      <contour>
        <pt x="49" y="-71" on="1"/>
        <pt x="96" y="16" on="1"/>
        <pt x="80" y="26" on="0"/>
        <pt x="67" y="41" on="1"/>
        <pt x="26" y="90" on="0"/>
        <pt x="26" y="176" on="1"/>
        <pt x="26" y="258" on="0"/>
        <pt x="97" y="407" on="0"/>
        <pt x="236" y="507" on="0"/>
        <pt x="324" y="507" on="1"/>
        <pt x="345" y="507" on="0"/>
        <pt x="364" y="504" on="1"/>
        <pt x="400" y="569" on="1"/>
        <pt x="456" y="569" on="1"/>
        <pt x="411" y="487" on="1"/>
        <pt x="432" y="476" on="0"/>
        <pt x="448" y="458" on="1"/>
        <pt x="490" y="409" on="0"/>
        <pt x="490" y="323" on="1"/>
        <pt x="490" y="242" on="0"/>
        <pt x="419" y="92" on="0"/>
        <pt x="279" y="-7" on="0"/>
        <pt x="191" y="-7" on="1"/>
        <pt x="165" y="-7" on="0"/>
        <pt x="143" y="-2" on="1"/>
        <pt x="106" y="-71" on="1"/>
      </contour>
      <contour>
        <pt x="203" y="33" on="1"/>
        <pt x="249" y="33" on="0"/>
        <pt x="323" y="98" on="0"/>
        <pt x="366" y="196" on="0"/>
        <pt x="388" y="297" on="0"/>
        <pt x="388" y="341" on="1"/>
        <pt x="388" y="392" on="0"/>
        <pt x="375" y="422" on="1"/>
        <pt x="168" y="42" on="1"/>
        <pt x="183" y="33" on="0"/>
      </contour>
      <contour>
        <pt x="127" y="158" on="1"/>
        <pt x="127" y="115" on="0"/>
        <pt x="135" y="87" on="1"/>
        <pt x="341" y="461" on="1"/>
        <pt x="328" y="467" on="0"/>
        <pt x="312" y="467" on="1"/>
        <pt x="267" y="467" on="0"/>
        <pt x="192" y="402" on="0"/>
        <pt x="150" y="304" on="0"/>
        <pt x="127" y="202" on="0"/>
      </contour>
    </TTGlyph>
    <TTGlyph name="otilde" xMin="26" yMin="-7" xMax="511" yMax="734">
      <component glyphName="o" x="0" y="0" flags="0x204"/>
      <component glyphName="tilde" x="137" y="-19" flags="0x4"/>
    </TTGlyph>
    <TTGlyph name="p" xMin="-39" yMin="-300" xMax="526" yMax="507">
      <contour>
        <pt x="-39" y="-300" on="1"/>
        <pt x="147" y="431" on="1"/>
        <pt x="47" y="431" on="1"/>
        <pt x="47" y="463" on="1"/>
        <pt x="121" y="486" on="0"/>
        <pt x="195" y="507" on="0"/>
        <pt x="212" y="507" on="1"/>
        <pt x="247" y="507" on="0"/>
        <pt x="247" y="477" on="1"/>
        <pt x="247" y="467" on="0"/>
        <pt x="240" y="436" on="1"/>
        <pt x="231" y="400" on="1"/>
        <pt x="315" y="507" on="0"/>
        <pt x="415" y="507" on="1"/>
        <pt x="463" y="507" on="0"/>
        <pt x="526" y="437" on="0"/>
        <pt x="526" y="363" on="1"/>
        <pt x="526" y="209" on="0"/>
        <pt x="341" y="-7" on="0"/>
        <pt x="210" y="-7" on="1"/>
        <pt x="170" y="-7" on="0"/>
        <pt x="129" y="2" on="1"/>
        <pt x="56" y="-285" on="1"/>
      </contour>
      <contour>
        <pt x="140" y="43" on="1"/>
        <pt x="157" y="37" on="0"/>
        <pt x="188" y="37" on="1"/>
        <pt x="258" y="37" on="0"/>
        <pt x="371" y="132" on="0"/>
        <pt x="428" y="269" on="0"/>
        <pt x="428" y="341" on="1"/>
        <pt x="428" y="438" on="0"/>
        <pt x="366" y="438" on="1"/>
        <pt x="331" y="438" on="0"/>
        <pt x="242" y="362" on="0"/>
        <pt x="208" y="310" on="1"/>
      </contour>
    </TTGlyph>
    <TTGlyph name="paragraph" xMin="101" yMin="-112" xMax="658" yMax="760">
      <contour>
        <pt x="101" y="517" on="1"/>
        <pt x="101" y="616" on="0"/>
        <pt x="241" y="760" on="0"/>
        <pt x="366" y="760" on="1"/>
        <pt x="658" y="760" on="1"/>
        <pt x="649" y="722" on="1"/>
        <pt x="564" y="702" on="1"/>
        <pt x="361" y="-112" on="1"/>
        <pt x="303" y="-112" on="1"/>
        <pt x="504" y="697" on="1"/>
        <pt x="415" y="697" on="1"/>
        <pt x="214" y="-112" on="1"/>
        <pt x="156" y="-112" on="1"/>
        <pt x="280" y="386" on="1"/>
        <pt x="271" y="386" on="1"/>
        <pt x="101" y="386" on="0"/>
      </contour>
    </TTGlyph>
    <TTGlyph name="parenleft" xMin="8" yMin="-299" xMax="421" yMax="799">
      <contour>
        <pt x="8" y="81" on="1"/>
        <pt x="8" y="289" on="0"/>
        <pt x="218" y="674" on="0"/>
        <pt x="399" y="799" on="1"/>
        <pt x="421" y="770" on="1"/>
        <pt x="268" y="636" on="0"/>
        <pt x="94" y="264" on="0"/>
        <pt x="94" y="52" on="1"/>
        <pt x="94" y="-150" on="0"/>
        <pt x="180" y="-270" on="1"/>
        <pt x="152" y="-299" on="1"/>
        <pt x="8" y="-152" on="0"/>
      </contour>
    </TTGlyph>
    <TTGlyph name="parenright" xMin="-124" yMin="-299" xMax="288" yMax="799">
      <contour>
        <pt x="-124" y="-270" on="1"/>
        <pt x="28" y="-136" on="0"/>
        <pt x="203" y="236" on="0"/>
        <pt x="203" y="448" on="1"/>
        <pt x="203" y="651" on="0"/>
        <pt x="116" y="770" on="1"/>
        <pt x="144" y="799" on="1"/>
        <pt x="288" y="653" on="0"/>
        <pt x="288" y="419" on="1"/>
        <pt x="288" y="211" on="0"/>
        <pt x="78" y="-174" on="0"/>
        <pt x="-102" y="-299" on="1"/>
      </contour>
    </TTGlyph>
    <TTGlyph name="percent" xMin="94" yMin="-7" xMax="664" yMax="708">
      <contour>
        <pt x="94" y="0" on="1"/>
        <pt x="599" y="701" on="1"/>
        <pt x="664" y="701" on="1"/>
        <pt x="161" y="0" on="1"/>
      </contour>
      <contour>
        <pt x="97" y="472" on="1"/>
        <pt x="97" y="569" on="0"/>
        <pt x="195" y="708" on="0"/>
        <pt x="278" y="708" on="1"/>
        <pt x="323" y="708" on="0"/>
        <pt x="376" y="655" on="0"/>
        <pt x="376" y="605" on="1"/>
        <pt x="376" y="508" on="0"/>
        <pt x="278" y="369" on="0"/>
        <pt x="195" y="369" on="1"/>
        <pt x="150" y="369" on="0"/>
        <pt x="97" y="422" on="0"/>
      </contour>
      <contour>
        <pt x="170" y="471" on="1"/>
        <pt x="170" y="400" on="0"/>
        <pt x="207" y="400" on="1"/>
        <pt x="246" y="400" on="0"/>
        <pt x="304" y="538" on="0"/>
        <pt x="304" y="606" on="1"/>
        <pt x="304" y="676" on="0"/>
        <pt x="267" y="676" on="1"/>
        <pt x="227" y="676" on="0"/>
        <pt x="170" y="545" on="0"/>
      </contour>
      <contour>
        <pt x="377" y="95" on="1"/>
        <pt x="377" y="192" on="0"/>
        <pt x="475" y="331" on="0"/>
        <pt x="558" y="331" on="1"/>
        <pt x="603" y="331" on="0"/>
        <pt x="657" y="278" on="0"/>
        <pt x="657" y="229" on="1"/>
        <pt x="657" y="132" on="0"/>
        <pt x="558" y="-7" on="0"/>
        <pt x="475" y="-7" on="1"/>
        <pt x="430" y="-7" on="0"/>
        <pt x="377" y="45" on="0"/>
      </contour>
      <contour>
        <pt x="450" y="95" on="1"/>
        <pt x="450" y="24" on="0"/>
        <pt x="487" y="24" on="1"/>
        <pt x="526" y="24" on="0"/>
        <pt x="584" y="162" on="0"/>
        <pt x="584" y="229" on="1"/>
        <pt x="584" y="300" on="0"/>
        <pt x="547" y="300" on="1"/>
        <pt x="507" y="300" on="0"/>
        <pt x="450" y="169" on="0"/>
      </contour>
    </TTGlyph>
    <TTGlyph name="period" xMin="-5" yMin="-7" xMax="129" yMax="127">
      <contour>
        <pt x="-5" y="61" on="1"/>
        <pt x="-5" y="88" on="0"/>
        <pt x="35" y="127" on="0"/>
        <pt x="63" y="127" on="1"/>
        <pt x="90" y="127" on="0"/>
        <pt x="129" y="88" on="0"/>
        <pt x="129" y="61" on="1"/>
        <pt x="129" y="32" on="0"/>
        <pt x="90" y="-7" on="0"/>
        <pt x="63" y="-7" on="1"/>
        <pt x="35" y="-7" on="0"/>
        <pt x="-5" y="32" on="0"/>
      </contour>
    </TTGlyph>
    <TTGlyph name="periodcentered" xMin="54" yMin="222" xMax="208" yMax="376">
      <contour>
        <pt x="54" y="300" on="1"/>
        <pt x="54" y="331" on="0"/>
        <pt x="100" y="376" on="0"/>
        <pt x="132" y="376" on="1"/>
        <pt x="163" y="376" on="0"/>
        <pt x="208" y="331" on="0"/>
        <pt x="208" y="300" on="1"/>
        <pt x="208" y="267" on="0"/>
        <pt x="163" y="222" on="0"/>
        <pt x="132" y="222" on="1"/>
        <pt x="100" y="222" on="0"/>
        <pt x="54" y="267" on="0"/>
      </contour>
    </TTGlyph>
    <TTGlyph name="plus" xMin="64" yMin="127" xMax="523" yMax="585">
      <contour>
        <pt x="64" y="323" on="1"/>
        <pt x="64" y="390" on="1"/>
        <pt x="259" y="390" on="1"/>
        <pt x="259" y="585" on="1"/>
        <pt x="326" y="585" on="1"/>
        <pt x="326" y="390" on="1"/>
        <pt x="523" y="390" on="1"/>
        <pt x="523" y="323" on="1"/>
        <pt x="326" y="323" on="1"/>
        <pt x="326" y="127" on="1"/>
        <pt x="259" y="127" on="1"/>
        <pt x="259" y="323" on="1"/>
      </contour>
    </TTGlyph>
    <TTGlyph name="plusminus" xMin="72" yMin="0" xMax="521" yMax="585">
      <contour>
        <pt x="72" y="0" on="1"/>
        <pt x="72" y="67" on="1"/>
        <pt x="521" y="67" on="1"/>
        <pt x="521" y="0" on="1"/>
      </contour>
      <contour>
        <pt x="72" y="323" on="1"/>
        <pt x="72" y="390" on="1"/>
        <pt x="257" y="390" on="1"/>
        <pt x="257" y="585" on="1"/>
        <pt x="324" y="585" on="1"/>
        <pt x="324" y="390" on="1"/>
        <pt x="521" y="390" on="1"/>
        <pt x="521" y="323" on="1"/>
        <pt x="324" y="323" on="1"/>
        <pt x="324" y="127" on="1"/>
        <pt x="257" y="127" on="1"/>
        <pt x="257" y="323" on="1"/>
      </contour>
    </TTGlyph>
    <TTGlyph name="q" xMin="24" yMin="-307" xMax="503" yMax="507">
      <contour>
        <pt x="24" y="137" on="1"/>
        <pt x="24" y="291" on="0"/>
        <pt x="209" y="507" on="0"/>
        <pt x="340" y="507" on="1"/>
        <pt x="433" y="507" on="0"/>
        <pt x="503" y="461" on="1"/>
        <pt x="308" y="-294" on="1"/>
        <pt x="214" y="-307" on="1"/>
        <pt x="320" y="101" on="1"/>
        <pt x="233" y="-7" on="0"/>
        <pt x="135" y="-7" on="1"/>
        <pt x="87" y="-7" on="0"/>
        <pt x="24" y="63" on="0"/>
      </contour>
      <contour>
        <pt x="122" y="159" on="1"/>
        <pt x="122" y="62" on="0"/>
        <pt x="184" y="62" on="1"/>
        <pt x="219" y="62" on="0"/>
        <pt x="309" y="139" on="0"/>
        <pt x="343" y="192" on="1"/>
        <pt x="412" y="456" on="1"/>
        <pt x="391" y="463" on="0"/>
        <pt x="362" y="463" on="1"/>
        <pt x="292" y="463" on="0"/>
        <pt x="179" y="368" on="0"/>
        <pt x="122" y="231" on="0"/>
      </contour>
    </TTGlyph>
    <TTGlyph name="question" xMin="113" yMin="-7" xMax="485" yMax="708">
      <contour>
        <pt x="118" y="590" on="1"/>
        <pt x="118" y="641" on="0"/>
        <pt x="222" y="708" on="0"/>
        <pt x="314" y="708" on="1"/>
        <pt x="389" y="708" on="0"/>
        <pt x="485" y="640" on="0"/>
        <pt x="485" y="581" on="1"/>
        <pt x="485" y="528" on="0"/>
        <pt x="425" y="450" on="0"/>
        <pt x="340" y="405" on="0"/>
        <pt x="254" y="367" on="0"/>
        <pt x="194" y="314" on="0"/>
        <pt x="194" y="280" on="1"/>
        <pt x="194" y="258" on="0"/>
        <pt x="219" y="231" on="0"/>
        <pt x="238" y="231" on="1"/>
        <pt x="262" y="231" on="0"/>
        <pt x="287" y="250" on="1"/>
        <pt x="311" y="219" on="1"/>
        <pt x="278" y="187" on="0"/>
        <pt x="227" y="187" on="1"/>
        <pt x="190" y="187" on="0"/>
        <pt x="131" y="237" on="0"/>
        <pt x="131" y="279" on="1"/>
        <pt x="131" y="324" on="0"/>
        <pt x="183" y="394" on="0"/>
        <pt x="220" y="417" on="1"/>
        <pt x="295" y="462" on="1"/>
        <pt x="332" y="484" on="0"/>
        <pt x="384" y="547" on="0"/>
        <pt x="384" y="588" on="1"/>
        <pt x="384" y="625" on="0"/>
        <pt x="339" y="666" on="0"/>
        <pt x="302" y="666" on="1"/>
        <pt x="262" y="666" on="0"/>
        <pt x="215" y="610" on="0"/>
        <pt x="215" y="565" on="1"/>
        <pt x="215" y="546" on="0"/>
        <pt x="222" y="515" on="1"/>
        <pt x="175" y="515" on="0"/>
        <pt x="118" y="553" on="0"/>
      </contour>
      <contour>
        <pt x="113" y="61" on="1"/>
        <pt x="113" y="88" on="0"/>
        <pt x="153" y="127" on="0"/>
        <pt x="181" y="127" on="1"/>
        <pt x="208" y="127" on="0"/>
        <pt x="247" y="88" on="0"/>
        <pt x="247" y="61" on="1"/>
        <pt x="247" y="32" on="0"/>
        <pt x="208" y="-7" on="0"/>
        <pt x="181" y="-7" on="1"/>
        <pt x="153" y="-7" on="0"/>
        <pt x="113" y="32" on="0"/>
      </contour>
    </TTGlyph>
    <TTGlyph name="questiondown" xMin="-46" yMin="-208" xMax="326" yMax="506">
      <component glyphName="question" x="439" y="500" scale="-0.999938964844" flags="0x4"/>
    </TTGlyph>
    <TTGlyph name="quotedbl" xMin="116" yMin="473" xMax="418" yMax="708">
      <contour>
        <pt x="116" y="473" on="1"/>
        <pt x="142" y="708" on="1"/>
        <pt x="246" y="708" on="1"/>
        <pt x="167" y="473" on="1"/>
      </contour>
      <contour>
        <pt x="288" y="473" on="1"/>
        <pt x="314" y="708" on="1"/>
        <pt x="418" y="708" on="1"/>
        <pt x="339" y="473" on="1"/>
      </contour>
    </TTGlyph>
    <TTGlyph name="quotedblbase" xMin="-82" yMin="-171" xMax="308" yMax="117">
      <contour>
        <pt x="-82" y="-142" on="1"/>
        <pt x="-11" y="-82" on="0"/>
        <pt x="35" y="-2" on="1"/>
        <pt x="-13" y="45" on="1"/>
        <pt x="-5" y="77" on="0"/>
        <pt x="38" y="117" on="0"/>
        <pt x="67" y="117" on="1"/>
        <pt x="94" y="117" on="0"/>
        <pt x="128" y="87" on="0"/>
        <pt x="128" y="60" on="1"/>
        <pt x="128" y="-29" on="0"/>
        <pt x="-58" y="-171" on="1"/>
      </contour>
      <contour>
        <pt x="98" y="-142" on="1"/>
        <pt x="169" y="-82" on="0"/>
        <pt x="215" y="-2" on="1"/>
        <pt x="167" y="45" on="1"/>
        <pt x="175" y="77" on="0"/>
        <pt x="218" y="117" on="0"/>
        <pt x="247" y="117" on="1"/>
        <pt x="274" y="117" on="0"/>
        <pt x="308" y="87" on="0"/>
        <pt x="308" y="60" on="1"/>
        <pt x="308" y="-29" on="0"/>
        <pt x="122" y="-171" on="1"/>
      </contour>
    </TTGlyph>
    <TTGlyph name="quotedblleft" xMin="97" yMin="454" xMax="476" yMax="742">
      <contour>
        <pt x="307" y="713" on="1"/>
        <pt x="236" y="653" on="0"/>
        <pt x="190" y="573" on="1"/>
        <pt x="238" y="526" on="1"/>
        <pt x="230" y="494" on="0"/>
        <pt x="187" y="454" on="0"/>
        <pt x="158" y="454" on="1"/>
        <pt x="131" y="454" on="0"/>
        <pt x="97" y="484" on="0"/>
        <pt x="97" y="511" on="1"/>
        <pt x="97" y="600" on="0"/>
        <pt x="283" y="742" on="1"/>
      </contour>
      <contour>
        <pt x="476" y="713" on="1"/>
        <pt x="405" y="653" on="0"/>
        <pt x="359" y="573" on="1"/>
        <pt x="407" y="526" on="1"/>
        <pt x="399" y="494" on="0"/>
        <pt x="356" y="454" on="0"/>
        <pt x="327" y="454" on="1"/>
        <pt x="300" y="454" on="0"/>
        <pt x="266" y="484" on="0"/>
        <pt x="266" y="511" on="1"/>
        <pt x="266" y="600" on="0"/>
        <pt x="452" y="742" on="1"/>
      </contour>
    </TTGlyph>
    <TTGlyph name="quotedblright" xMin="79" yMin="425" xMax="458" yMax="713">
      <contour>
        <pt x="79" y="454" on="1"/>
        <pt x="150" y="514" on="0"/>
        <pt x="196" y="594" on="1"/>
        <pt x="148" y="641" on="1"/>
        <pt x="156" y="673" on="0"/>
        <pt x="199" y="713" on="0"/>
        <pt x="228" y="713" on="1"/>
        <pt x="255" y="713" on="0"/>
        <pt x="289" y="683" on="0"/>
        <pt x="289" y="656" on="1"/>
        <pt x="289" y="567" on="0"/>
        <pt x="103" y="425" on="1"/>
      </contour>
      <contour>
        <pt x="248" y="454" on="1"/>
        <pt x="319" y="514" on="0"/>
        <pt x="365" y="594" on="1"/>
        <pt x="317" y="641" on="1"/>
        <pt x="325" y="673" on="0"/>
        <pt x="368" y="713" on="0"/>
        <pt x="397" y="713" on="1"/>
        <pt x="424" y="713" on="0"/>
        <pt x="458" y="683" on="0"/>
        <pt x="458" y="656" on="1"/>
        <pt x="458" y="567" on="0"/>
        <pt x="272" y="425" on="1"/>
      </contour>
    </TTGlyph>
    <TTGlyph name="quoteleft" xMin="96" yMin="452" xMax="306" yMax="740">
      <contour>
        <pt x="306" y="711" on="1"/>
        <pt x="235" y="651" on="0"/>
        <pt x="189" y="571" on="1"/>
        <pt x="237" y="524" on="1"/>
        <pt x="229" y="492" on="0"/>
        <pt x="186" y="452" on="0"/>
        <pt x="157" y="452" on="1"/>
        <pt x="130" y="452" on="0"/>
        <pt x="96" y="482" on="0"/>
        <pt x="96" y="509" on="1"/>
        <pt x="96" y="598" on="0"/>
        <pt x="282" y="740" on="1"/>
      </contour>
    </TTGlyph>
    <TTGlyph name="quoteright" xMin="79" yMin="425" xMax="289" yMax="713">
      <contour>
        <pt x="79" y="454" on="1"/>
        <pt x="150" y="514" on="0"/>
        <pt x="196" y="594" on="1"/>
        <pt x="148" y="641" on="1"/>
        <pt x="156" y="673" on="0"/>
        <pt x="199" y="713" on="0"/>
        <pt x="228" y="713" on="1"/>
        <pt x="255" y="713" on="0"/>
        <pt x="289" y="683" on="0"/>
        <pt x="289" y="656" on="1"/>
        <pt x="289" y="567" on="0"/>
        <pt x="103" y="425" on="1"/>
      </contour>
    </TTGlyph>
    <TTGlyph name="quotesinglbase" xMin="-82" yMin="-171" xMax="128" yMax="117">
      <contour>
        <pt x="-82" y="-142" on="1"/>
        <pt x="-11" y="-82" on="0"/>
        <pt x="35" y="-2" on="1"/>
        <pt x="-13" y="45" on="1"/>
        <pt x="-5" y="77" on="0"/>
        <pt x="38" y="117" on="0"/>
        <pt x="67" y="117" on="1"/>
        <pt x="94" y="117" on="0"/>
        <pt x="128" y="87" on="0"/>
        <pt x="128" y="60" on="1"/>
        <pt x="128" y="-29" on="0"/>
        <pt x="-58" y="-171" on="1"/>
      </contour>
    </TTGlyph>
    <TTGlyph name="quotesingle" xMin="116" yMin="473" xMax="246" yMax="708">
      <contour>
        <pt x="116" y="473" on="1"/>
        <pt x="142" y="708" on="1"/>
        <pt x="246" y="708" on="1"/>
        <pt x="167" y="473" on="1"/>
      </contour>
    </TTGlyph>
    <TTGlyph name="r" xMin="36" yMin="-7" xMax="467" yMax="507">
      <contour>
        <pt x="36" y="-7" on="1"/>
        <pt x="146" y="432" on="1"/>
        <pt x="46" y="432" on="1"/>
        <pt x="46" y="463" on="1"/>
        <pt x="180" y="507" on="0"/>
        <pt x="211" y="507" on="1"/>
        <pt x="246" y="507" on="0"/>
        <pt x="246" y="478" on="1"/>
        <pt x="246" y="462" on="0"/>
        <pt x="239" y="437" on="1"/>
        <pt x="223" y="376" on="1"/>
        <pt x="321" y="507" on="0"/>
        <pt x="402" y="507" on="1"/>
        <pt x="432" y="507" on="0"/>
        <pt x="467" y="471" on="0"/>
        <pt x="467" y="444" on="1"/>
        <pt x="467" y="415" on="0"/>
        <pt x="447" y="384" on="1"/>
        <pt x="379" y="415" on="0"/>
        <pt x="354" y="415" on="1"/>
        <pt x="333" y="415" on="0"/>
        <pt x="292" y="394" on="0"/>
        <pt x="248" y="346" on="0"/>
        <pt x="223" y="314" on="0"/>
        <pt x="199" y="280" on="1"/>
        <pt x="129" y="0" on="1"/>
      </contour>
    </TTGlyph>
    <TTGlyph name="registered" xMin="78" yMin="-7" xMax="813" yMax="728">
      <contour>
        <pt x="185" y="100" on="1"/>
        <pt x="78" y="207" on="0"/>
        <pt x="78" y="359" on="1"/>
        <pt x="78" y="435" on="0"/>
        <pt x="136" y="569" on="0"/>
        <pt x="237" y="669" on="0"/>
        <pt x="370" y="728" on="0"/>
        <pt x="445" y="728" on="1"/>
        <pt x="520" y="728" on="0"/>
        <pt x="654" y="669" on="0"/>
        <pt x="754" y="569" on="0"/>
        <pt x="813" y="434" on="0"/>
        <pt x="813" y="359" on="1"/>
        <pt x="813" y="284" on="0"/>
        <pt x="755" y="150" on="0"/>
        <pt x="654" y="51" on="0"/>
        <pt x="520" y="-7" on="0"/>
        <pt x="445" y="-7" on="1"/>
        <pt x="294" y="-7" on="0"/>
      </contour>
      <contour>
        <pt x="227" y="577" on="1"/>
        <pt x="137" y="487" on="0"/>
        <pt x="137" y="359" on="1"/>
        <pt x="137" y="296" on="0"/>
        <pt x="186" y="184" on="0"/>
        <pt x="270" y="100" on="0"/>
        <pt x="382" y="51" on="0"/>
        <pt x="445" y="51" on="1"/>
        <pt x="508" y="51" on="0"/>
        <pt x="620" y="100" on="0"/>
        <pt x="704" y="184" on="0"/>
        <pt x="753" y="296" on="0"/>
        <pt x="753" y="359" on="1"/>
        <pt x="753" y="422" on="0"/>
        <pt x="704" y="535" on="0"/>
        <pt x="620" y="619" on="0"/>
        <pt x="508" y="668" on="0"/>
        <pt x="445" y="668" on="1"/>
        <pt x="317" y="668" on="0"/>
      </contour>
      <contour>
        <pt x="257" y="152" on="1"/>
        <pt x="257" y="180" on="1"/>
        <pt x="313" y="193" on="1"/>
        <pt x="313" y="531" on="1"/>
        <pt x="257" y="544" on="1"/>
        <pt x="257" y="572" on="1"/>
        <pt x="427" y="572" on="1"/>
        <pt x="594" y="572" on="0"/>
        <pt x="594" y="457" on="1"/>
        <pt x="594" y="412" on="0"/>
        <pt x="543" y="354" on="0"/>
        <pt x="497" y="344" on="1"/>
        <pt x="590" y="192" on="1"/>
        <pt x="643" y="179" on="1"/>
        <pt x="643" y="152" on="1"/>
        <pt x="530" y="152" on="1"/>
        <pt x="425" y="338" on="1"/>
        <pt x="386" y="338" on="1"/>
        <pt x="386" y="193" on="1"/>
        <pt x="442" y="180" on="1"/>
        <pt x="442" y="152" on="1"/>
      </contour>
      <contour>
        <pt x="386" y="374" on="1"/>
        <pt x="421" y="374" on="1"/>
        <pt x="466" y="374" on="0"/>
        <pt x="518" y="417" on="0"/>
        <pt x="518" y="457" on="1"/>
        <pt x="518" y="494" on="0"/>
        <pt x="466" y="534" on="0"/>
        <pt x="421" y="534" on="1"/>
        <pt x="386" y="534" on="1"/>
      </contour>
    </TTGlyph>
    <TTGlyph name="ring" xMin="40" yMin="591" xMax="257" yMax="809">
      <contour>
        <pt x="148" y="591" on="1"/>
        <pt x="104" y="591" on="0"/>
        <pt x="40" y="654" on="0"/>
        <pt x="40" y="700" on="1"/>
        <pt x="40" y="747" on="0"/>
        <pt x="105" y="809" on="0"/>
        <pt x="148" y="809" on="1"/>
        <pt x="191" y="809" on="0"/>
        <pt x="257" y="747" on="0"/>
        <pt x="257" y="700" on="1"/>
        <pt x="257" y="654" on="0"/>
        <pt x="193" y="591" on="0"/>
      </contour>
      <contour>
        <pt x="148" y="645" on="1"/>
        <pt x="171" y="645" on="0"/>
        <pt x="204" y="678" on="0"/>
        <pt x="204" y="700" on="1"/>
        <pt x="204" y="722" on="0"/>
        <pt x="170" y="755" on="0"/>
        <pt x="148" y="755" on="1"/>
        <pt x="126" y="755" on="0"/>
        <pt x="93" y="722" on="0"/>
        <pt x="93" y="700" on="1"/>
        <pt x="93" y="678" on="0"/>
        <pt x="126" y="645" on="0"/>
      </contour>
    </TTGlyph>
    <TTGlyph name="ring.case" xMin="17" yMin="742" xMax="234" yMax="960">
      <contour>
        <pt x="125" y="742" on="1"/>
        <pt x="81" y="742" on="0"/>
        <pt x="17" y="805" on="0"/>
        <pt x="17" y="851" on="1"/>
        <pt x="17" y="898" on="0"/>
        <pt x="82" y="960" on="0"/>
        <pt x="125" y="960" on="1"/>
        <pt x="168" y="960" on="0"/>
        <pt x="234" y="898" on="0"/>
        <pt x="234" y="851" on="1"/>
        <pt x="234" y="805" on="0"/>
        <pt x="170" y="742" on="0"/>
      </contour>
      <contour>
        <pt x="125" y="796" on="1"/>
        <pt x="148" y="796" on="0"/>
        <pt x="181" y="829" on="0"/>
        <pt x="181" y="851" on="1"/>
        <pt x="181" y="873" on="0"/>
        <pt x="147" y="906" on="0"/>
        <pt x="125" y="906" on="1"/>
        <pt x="103" y="906" on="0"/>
        <pt x="70" y="873" on="0"/>
        <pt x="70" y="851" on="1"/>
        <pt x="70" y="829" on="0"/>
        <pt x="103" y="796" on="0"/>
      </contour>
    </TTGlyph>
    <TTGlyph name="s" xMin="-11" yMin="-7" xMax="422" yMax="507">
      <contour>
        <pt x="-11" y="79" on="1"/>
        <pt x="-11" y="94" on="0"/>
        <pt x="0" y="117" on="0"/>
        <pt x="27" y="139" on="0"/>
        <pt x="45" y="150" on="0"/>
        <pt x="65" y="161" on="1"/>
        <pt x="86" y="102" on="0"/>
        <pt x="141" y="35" on="0"/>
        <pt x="192" y="35" on="1"/>
        <pt x="225" y="35" on="0"/>
        <pt x="269" y="74" on="0"/>
        <pt x="269" y="106" on="1"/>
        <pt x="269" y="136" on="0"/>
        <pt x="250" y="161" on="1"/>
        <pt x="232" y="186" on="0"/>
        <pt x="149" y="246" on="1"/>
        <pt x="122" y="266" on="0"/>
        <pt x="84" y="332" on="0"/>
        <pt x="84" y="373" on="1"/>
        <pt x="84" y="437" on="0"/>
        <pt x="181" y="507" on="0"/>
        <pt x="264" y="507" on="1"/>
        <pt x="335" y="507" on="0"/>
        <pt x="422" y="465" on="0"/>
        <pt x="422" y="429" on="1"/>
        <pt x="422" y="386" on="0"/>
        <pt x="342" y="361" on="1"/>
        <pt x="310" y="463" on="0"/>
        <pt x="239" y="463" on="1"/>
        <pt x="208" y="463" on="0"/>
        <pt x="168" y="430" on="0"/>
        <pt x="168" y="401" on="1"/>
        <pt x="168" y="379" on="0"/>
        <pt x="196" y="337" on="0"/>
        <pt x="226" y="312" on="0"/>
        <pt x="257" y="289" on="1"/>
        <pt x="355" y="218" on="0"/>
        <pt x="355" y="136" on="1"/>
        <pt x="355" y="70" on="0"/>
        <pt x="255" y="-7" on="0"/>
        <pt x="163" y="-7" on="1"/>
        <pt x="80" y="-7" on="0"/>
        <pt x="-11" y="41" on="0"/>
      </contour>
    </TTGlyph>
    <TTGlyph name="section" xMin="0" yMin="-83" xMax="518" yMax="759">
      <contour>
        <pt x="0" y="-43" on="1"/>
        <pt x="39" y="113" on="1"/>
        <pt x="72" y="113" on="1"/>
        <pt x="80" y="-19" on="1"/>
        <pt x="111" y="-31" on="0"/>
        <pt x="157" y="-31" on="1"/>
        <pt x="225" y="-31" on="0"/>
        <pt x="308" y="23" on="0"/>
        <pt x="308" y="75" on="1"/>
        <pt x="308" y="92" on="0"/>
        <pt x="298" y="116" on="0"/>
        <pt x="291" y="124" on="1"/>
        <pt x="275" y="144" on="0"/>
        <pt x="146" y="220" on="0"/>
        <pt x="101" y="267" on="0"/>
        <pt x="80" y="312" on="0"/>
        <pt x="80" y="339" on="1"/>
        <pt x="80" y="426" on="0"/>
        <pt x="190" y="478" on="1"/>
        <pt x="148" y="520" on="0"/>
        <pt x="148" y="578" on="1"/>
        <pt x="148" y="662" on="0"/>
        <pt x="279" y="759" on="0"/>
        <pt x="372" y="759" on="1"/>
        <pt x="454" y="759" on="0"/>
        <pt x="518" y="733" on="1"/>
        <pt x="479" y="576" on="1"/>
        <pt x="446" y="576" on="1"/>
        <pt x="439" y="703" on="1"/>
        <pt x="406" y="710" on="0"/>
        <pt x="376" y="710" on="1"/>
        <pt x="319" y="710" on="0"/>
        <pt x="229" y="660" on="0"/>
        <pt x="229" y="608" on="1"/>
        <pt x="229" y="590" on="0"/>
        <pt x="242" y="561" on="0"/>
        <pt x="272" y="535" on="0"/>
        <pt x="286" y="526" on="1"/>
        <pt x="357" y="485" on="0"/>
        <pt x="390" y="463" on="0"/>
        <pt x="441" y="421" on="0"/>
        <pt x="464" y="372" on="0"/>
        <pt x="464" y="343" on="1"/>
        <pt x="464" y="247" on="0"/>
        <pt x="361" y="190" on="1"/>
        <pt x="398" y="150" on="0"/>
        <pt x="398" y="94" on="1"/>
        <pt x="398" y="8" on="0"/>
        <pt x="266" y="-83" on="0"/>
        <pt x="168" y="-83" on="1"/>
        <pt x="67" y="-83" on="0"/>
      </contour>
      <contour>
        <pt x="161" y="364" on="1"/>
        <pt x="161" y="356" on="0"/>
        <pt x="164" y="343" on="0"/>
        <pt x="171" y="330" on="0"/>
        <pt x="178" y="320" on="0"/>
        <pt x="192" y="307" on="0"/>
        <pt x="201" y="300" on="0"/>
        <pt x="257" y="264" on="1"/>
        <pt x="305" y="236" on="0"/>
        <pt x="326" y="220" on="1"/>
        <pt x="374" y="256" on="0"/>
        <pt x="374" y="312" on="1"/>
        <pt x="374" y="371" on="0"/>
        <pt x="274" y="422" on="1"/>
        <pt x="244" y="436" on="0"/>
        <pt x="225" y="450" on="1"/>
        <pt x="161" y="417" on="0"/>
      </contour>
    </TTGlyph>
    <TTGlyph name="semicolon" xMin="-65" yMin="-162" xMax="232" yMax="460">
      <contour>
        <pt x="98" y="394" on="1"/>
        <pt x="98" y="421" on="0"/>
        <pt x="138" y="460" on="0"/>
        <pt x="166" y="460" on="1"/>
        <pt x="193" y="460" on="0"/>
        <pt x="232" y="421" on="0"/>
        <pt x="232" y="394" on="1"/>
        <pt x="232" y="365" on="0"/>
        <pt x="193" y="326" on="0"/>
        <pt x="166" y="326" on="1"/>
        <pt x="138" y="326" on="0"/>
        <pt x="98" y="365" on="0"/>
      </contour>
      <contour>
        <pt x="-65" y="-133" on="1"/>
        <pt x="13" y="-70" on="0"/>
        <pt x="57" y="12" on="1"/>
        <pt x="9" y="62" on="1"/>
        <pt x="9" y="90" on="0"/>
        <pt x="49" y="129" on="0"/>
        <pt x="77" y="129" on="1"/>
        <pt x="105" y="129" on="0"/>
        <pt x="144" y="91" on="0"/>
        <pt x="144" y="62" on="1"/>
        <pt x="144" y="33" on="0"/>
        <pt x="108" y="-32" on="0"/>
        <pt x="53" y="-94" on="0"/>
        <pt x="-13" y="-146" on="0"/>
        <pt x="-42" y="-162" on="1"/>
      </contour>
    </TTGlyph>
    <TTGlyph name="seven" xMin="71" yMin="0" xMax="534" yMax="700">
      <contour>
        <pt x="71" y="0" on="1"/>
        <pt x="127" y="152" on="0"/>
        <pt x="333" y="493" on="0"/>
        <pt x="440" y="613" on="1"/>
        <pt x="186" y="613" on="1"/>
        <pt x="116" y="510" on="1"/>
        <pt x="76" y="510" on="1"/>
        <pt x="141" y="700" on="1"/>
        <pt x="534" y="700" on="1"/>
        <pt x="520" y="637" on="1"/>
        <pt x="274" y="315" on="0"/>
        <pt x="175" y="0" on="1"/>
      </contour>
    </TTGlyph>
    <TTGlyph name="six" xMin="43" yMin="-7" xMax="518" yMax="708">
      <contour>
        <pt x="43" y="197" on="1"/>
        <pt x="43" y="322" on="0"/>
        <pt x="156" y="542" on="0"/>
        <pt x="373" y="692" on="0"/>
        <pt x="512" y="708" on="1"/>
        <pt x="518" y="661" on="1"/>
        <pt x="392" y="637" on="0"/>
        <pt x="206" y="478" on="0"/>
        <pt x="162" y="365" on="1"/>
        <pt x="243" y="428" on="0"/>
        <pt x="334" y="428" on="1"/>
        <pt x="410" y="428" on="0"/>
        <pt x="489" y="335" on="0"/>
        <pt x="489" y="264" on="1"/>
        <pt x="489" y="149" on="0"/>
        <pt x="342" y="-7" on="0"/>
        <pt x="222" y="-7" on="1"/>
        <pt x="135" y="-7" on="0"/>
        <pt x="43" y="106" on="0"/>
      </contour>
      <contour>
        <pt x="130" y="199" on="1"/>
        <pt x="130" y="128" on="0"/>
        <pt x="186" y="42" on="0"/>
        <pt x="236" y="42" on="1"/>
        <pt x="296" y="42" on="0"/>
        <pt x="385" y="166" on="0"/>
        <pt x="385" y="246" on="1"/>
        <pt x="385" y="294" on="0"/>
        <pt x="337" y="357" on="0"/>
        <pt x="288" y="357" on="1"/>
        <pt x="219" y="357" on="0"/>
        <pt x="144" y="309" on="1"/>
        <pt x="130" y="256" on="0"/>
      </contour>
    </TTGlyph>
    <TTGlyph name="slash" xMin="-35" yMin="0" xMax="497" yMax="700">
      <contour>
        <pt x="-35" y="0" on="1"/>
        <pt x="431" y="700" on="1"/>
        <pt x="497" y="700" on="1"/>
        <pt x="31" y="0" on="1"/>
      </contour>
    </TTGlyph>
    <TTGlyph name="sterling" xMin="-12" yMin="0" xMax="571" yMax="708">
      <contour>
        <pt x="-12" y="36" on="1"/>
        <pt x="188" y="172" on="0"/>
        <pt x="188" y="312" on="1"/>
        <pt x="188" y="326" on="0"/>
        <pt x="187" y="333" on="1"/>
        <pt x="64" y="333" on="1"/>
        <pt x="74" y="375" on="1"/>
        <pt x="179" y="382" on="1"/>
        <pt x="160" y="459" on="0"/>
        <pt x="155" y="503" on="0"/>
        <pt x="155" y="519" on="1"/>
        <pt x="155" y="604" on="0"/>
        <pt x="281" y="708" on="0"/>
        <pt x="376" y="708" on="1"/>
        <pt x="465" y="708" on="0"/>
        <pt x="571" y="641" on="0"/>
        <pt x="571" y="585" on="1"/>
        <pt x="571" y="550" on="0"/>
        <pt x="519" y="514" on="0"/>
        <pt x="481" y="514" on="1"/>
        <pt x="467" y="514" on="1"/>
        <pt x="473" y="538" on="0"/>
        <pt x="473" y="560" on="1"/>
        <pt x="473" y="607" on="0"/>
        <pt x="421" y="665" on="0"/>
        <pt x="379" y="665" on="1"/>
        <pt x="319" y="665" on="0"/>
        <pt x="251" y="578" on="0"/>
        <pt x="251" y="509" on="1"/>
        <pt x="252" y="467" on="0"/>
        <pt x="268" y="389" on="1"/>
        <pt x="415" y="400" on="1"/>
        <pt x="389" y="333" on="1"/>
        <pt x="273" y="333" on="1"/>
        <pt x="273" y="210" on="0"/>
        <pt x="139" y="97" on="1"/>
        <pt x="404" y="97" on="1"/>
        <pt x="478" y="205" on="1"/>
        <pt x="517" y="205" on="1"/>
        <pt x="446" y="0" on="1"/>
        <pt x="-5" y="0" on="1"/>
      </contour>
    </TTGlyph>
    <TTGlyph name="t" xMin="54" yMin="-7" xMax="382" yMax="591">
      <contour>
        <pt x="54" y="53" on="1"/>
        <pt x="54" y="68" on="0"/>
        <pt x="59" y="90" on="1"/>
        <pt x="150" y="452" on="1"/>
        <pt x="67" y="452" on="1"/>
        <pt x="75" y="482" on="1"/>
        <pt x="160" y="489" on="1"/>
        <pt x="182" y="576" on="1"/>
        <pt x="275" y="591" on="1"/>
        <pt x="251" y="496" on="1"/>
        <pt x="382" y="507" on="1"/>
        <pt x="368" y="452" on="1"/>
        <pt x="240" y="452" on="1"/>
        <pt x="156" y="109" on="1"/>
        <pt x="154" y="99" on="0"/>
        <pt x="154" y="97" on="1"/>
        <pt x="154" y="75" on="0"/>
        <pt x="177" y="75" on="1"/>
        <pt x="203" y="75" on="0"/>
        <pt x="283" y="101" on="0"/>
        <pt x="311" y="110" on="1"/>
        <pt x="321" y="78" on="1"/>
        <pt x="302" y="67" on="0"/>
        <pt x="148" y="-7" on="0"/>
        <pt x="107" y="-7" on="1"/>
        <pt x="54" y="-7" on="0"/>
      </contour>
    </TTGlyph>
    <TTGlyph name="thorn" xMin="-64" yMin="-279" xMax="501" yMax="807">
      <contour>
        <pt x="-64" y="-279" on="1"/>
        <pt x="21" y="36" on="1"/>
        <pt x="200" y="731" on="1"/>
        <pt x="100" y="731" on="1"/>
        <pt x="100" y="763" on="1"/>
        <pt x="174" y="786" on="0"/>
        <pt x="251" y="807" on="0"/>
        <pt x="264" y="807" on="1"/>
        <pt x="299" y="807" on="0"/>
        <pt x="299" y="777" on="1"/>
        <pt x="299" y="762" on="0"/>
        <pt x="292" y="736" on="1"/>
        <pt x="204" y="398" on="1"/>
        <pt x="292" y="507" on="0"/>
        <pt x="390" y="507" on="1"/>
        <pt x="438" y="507" on="0"/>
        <pt x="501" y="437" on="0"/>
        <pt x="501" y="363" on="1"/>
        <pt x="501" y="209" on="0"/>
        <pt x="316" y="-7" on="0"/>
        <pt x="185" y="-7" on="1"/>
        <pt x="141" y="-7" on="0"/>
        <pt x="102" y="3" on="1"/>
        <pt x="32" y="-264" on="1"/>
      </contour>
      <contour>
        <pt x="113" y="44" on="1"/>
        <pt x="134" y="37" on="0"/>
        <pt x="163" y="37" on="1"/>
        <pt x="233" y="37" on="0"/>
        <pt x="346" y="132" on="0"/>
        <pt x="403" y="269" on="0"/>
        <pt x="403" y="341" on="1"/>
        <pt x="403" y="438" on="0"/>
        <pt x="341" y="438" on="1"/>
        <pt x="306" y="438" on="0"/>
        <pt x="215" y="360" on="0"/>
        <pt x="181" y="307" on="1"/>
      </contour>
    </TTGlyph>
    <TTGlyph name="three" xMin="-13" yMin="-7" xMax="491" yMax="708">
      <contour>
        <pt x="-13" y="56" on="1"/>
        <pt x="7" y="95" on="1"/>
        <pt x="86" y="46" on="0"/>
        <pt x="171" y="46" on="1"/>
        <pt x="210" y="46" on="0"/>
        <pt x="278" y="68" on="0"/>
        <pt x="329" y="109" on="0"/>
        <pt x="359" y="168" on="0"/>
        <pt x="359" y="204" on="1"/>
        <pt x="359" y="273" on="0"/>
        <pt x="281" y="344" on="0"/>
        <pt x="193" y="345" on="1"/>
        <pt x="205" y="395" on="1"/>
        <pt x="244" y="396" on="0"/>
        <pt x="313" y="422" on="0"/>
        <pt x="364" y="470" on="0"/>
        <pt x="393" y="537" on="0"/>
        <pt x="393" y="578" on="1"/>
        <pt x="393" y="617" on="0"/>
        <pt x="347" y="667" on="0"/>
        <pt x="307" y="667" on="1"/>
        <pt x="257" y="667" on="0"/>
        <pt x="203" y="611" on="0"/>
        <pt x="203" y="563" on="1"/>
        <pt x="203" y="538" on="0"/>
        <pt x="210" y="514" on="1"/>
        <pt x="198" y="511" on="0"/>
        <pt x="188" y="511" on="1"/>
        <pt x="159" y="511" on="0"/>
        <pt x="116" y="549" on="0"/>
        <pt x="116" y="582" on="1"/>
        <pt x="116" y="612" on="0"/>
        <pt x="147" y="659" on="0"/>
        <pt x="198" y="691" on="0"/>
        <pt x="265" y="708" on="0"/>
        <pt x="301" y="708" on="1"/>
        <pt x="340" y="708" on="0"/>
        <pt x="409" y="690" on="0"/>
        <pt x="461" y="655" on="0"/>
        <pt x="491" y="601" on="0"/>
        <pt x="491" y="565" on="1"/>
        <pt x="491" y="493" on="0"/>
        <pt x="396" y="394" on="0"/>
        <pt x="315" y="370" on="1"/>
        <pt x="315" y="368" on="1"/>
        <pt x="385" y="357" on="0"/>
        <pt x="461" y="279" on="0"/>
        <pt x="461" y="219" on="1"/>
        <pt x="461" y="167" on="0"/>
        <pt x="421" y="84" on="0"/>
        <pt x="352" y="25" on="0"/>
        <pt x="259" y="-7" on="0"/>
        <pt x="207" y="-7" on="1"/>
        <pt x="87" y="-7" on="0"/>
      </contour>
    </TTGlyph>
    <TTGlyph name="threequarters" xMin="59" yMin="0" xMax="720" yMax="708">
      <component glyphName="slash" x="213" y="0" flags="0x4"/>
      <component glyphName="foursuperior" x="350" y="-285" flags="0x4"/>
      <component glyphName="threesuperior" x="0" y="0" flags="0x4"/>
    </TTGlyph>
    <TTGlyph name="threesuperior" xMin="59" yMin="276" xMax="368" yMax="708">
      <contour>
        <pt x="59" y="311" on="1"/>
        <pt x="72" y="342" on="1"/>
        <pt x="118" y="313" on="0"/>
        <pt x="167" y="313" on="1"/>
        <pt x="214" y="313" on="0"/>
        <pt x="270" y="361" on="0"/>
        <pt x="270" y="403" on="1"/>
        <pt x="270" y="440" on="0"/>
        <pt x="229" y="483" on="0"/>
        <pt x="179" y="487" on="1"/>
        <pt x="186" y="522" on="1"/>
        <pt x="230" y="523" on="0"/>
        <pt x="290" y="590" on="0"/>
        <pt x="290" y="633" on="1"/>
        <pt x="290" y="656" on="0"/>
        <pt x="266" y="681" on="0"/>
        <pt x="249" y="681" on="1"/>
        <pt x="194" y="681" on="0"/>
        <pt x="194" y="612" on="1"/>
        <pt x="194" y="595" on="0"/>
        <pt x="197" y="580" on="1"/>
        <pt x="168" y="580" on="0"/>
        <pt x="129" y="607" on="0"/>
        <pt x="129" y="632" on="1"/>
        <pt x="129" y="665" on="0"/>
        <pt x="198" y="708" on="0"/>
        <pt x="255" y="708" on="1"/>
        <pt x="306" y="708" on="0"/>
        <pt x="368" y="664" on="0"/>
        <pt x="368" y="619" on="1"/>
        <pt x="368" y="576" on="0"/>
        <pt x="301" y="513" on="0"/>
        <pt x="254" y="505" on="1"/>
        <pt x="254" y="504" on="1"/>
        <pt x="299" y="500" on="0"/>
        <pt x="351" y="446" on="0"/>
        <pt x="351" y="407" on="1"/>
        <pt x="351" y="344" on="0"/>
        <pt x="259" y="276" on="0"/>
        <pt x="193" y="276" on="1"/>
        <pt x="122" y="276" on="0"/>
      </contour>
    </TTGlyph>
    <TTGlyph name="tilde" xMin="14" yMin="625" xMax="374" yMax="753">
      <contour>
        <pt x="14" y="677" on="1"/>
        <pt x="34" y="702" on="0"/>
        <pt x="105" y="753" on="0"/>
        <pt x="139" y="753" on="1"/>
        <pt x="176" y="753" on="0"/>
        <pt x="244" y="690" on="0"/>
        <pt x="271" y="690" on="1"/>
        <pt x="309" y="690" on="0"/>
        <pt x="358" y="730" on="1"/>
        <pt x="374" y="701" on="1"/>
        <pt x="361" y="684" on="0"/>
        <pt x="281" y="625" on="0"/>
        <pt x="244" y="625" on="1"/>
        <pt x="205" y="625" on="0"/>
        <pt x="137" y="688" on="0"/>
        <pt x="112" y="688" on="1"/>
        <pt x="92" y="688" on="0"/>
        <pt x="63" y="673" on="0"/>
        <pt x="30" y="649" on="1"/>
      </contour>
    </TTGlyph>
    <TTGlyph name="tilde.case" xMin="14" yMin="776" xMax="389" yMax="904">
      <contour>
        <pt x="14" y="828" on="1"/>
        <pt x="45" y="864" on="0"/>
        <pt x="111" y="904" on="0"/>
        <pt x="140" y="904" on="1"/>
        <pt x="177" y="904" on="0"/>
        <pt x="259" y="841" on="0"/>
        <pt x="286" y="841" on="1"/>
        <pt x="325" y="841" on="0"/>
        <pt x="369" y="878" on="1"/>
        <pt x="389" y="852" on="1"/>
        <pt x="378" y="837" on="0"/>
        <pt x="297" y="776" on="0"/>
        <pt x="259" y="776" on="1"/>
        <pt x="218" y="776" on="0"/>
        <pt x="141" y="839" on="0"/>
        <pt x="113" y="839" on="1"/>
        <pt x="94" y="839" on="0"/>
        <pt x="70" y="827" on="0"/>
        <pt x="36" y="802" on="1"/>
      </contour>
    </TTGlyph>
    <TTGlyph name="two" xMin="-18" yMin="0" xMax="488" yMax="708">
      <contour>
        <pt x="-18" y="0" on="1"/>
        <pt x="-5" y="60" on="1"/>
        <pt x="297" y="379" on="1"/>
        <pt x="336" y="423" on="0"/>
        <pt x="367" y="474" on="0"/>
        <pt x="389" y="532" on="0"/>
        <pt x="389" y="560" on="1"/>
        <pt x="389" y="606" on="0"/>
        <pt x="343" y="666" on="0"/>
        <pt x="297" y="666" on="1"/>
        <pt x="254" y="666" on="0"/>
        <pt x="203" y="607" on="0"/>
        <pt x="203" y="561" on="1"/>
        <pt x="203" y="535" on="0"/>
        <pt x="210" y="510" on="1"/>
        <pt x="196" y="508" on="0"/>
        <pt x="191" y="508" on="1"/>
        <pt x="156" y="508" on="0"/>
        <pt x="111" y="546" on="0"/>
        <pt x="111" y="581" on="1"/>
        <pt x="111" y="637" on="0"/>
        <pt x="214" y="708" on="0"/>
        <pt x="301" y="708" on="1"/>
        <pt x="386" y="708" on="0"/>
        <pt x="488" y="631" on="0"/>
        <pt x="488" y="562" on="1"/>
        <pt x="488" y="521" on="0"/>
        <pt x="460" y="452" on="0"/>
        <pt x="388" y="369" on="0"/>
        <pt x="350" y="332" on="1"/>
        <pt x="100" y="87" on="1"/>
        <pt x="354" y="87" on="1"/>
        <pt x="427" y="195" on="1"/>
        <pt x="467" y="195" on="1"/>
        <pt x="399" y="0" on="1"/>
      </contour>
    </TTGlyph>
    <TTGlyph name="twosuperior" xMin="63" yMin="285" xMax="373" yMax="710">
      <contour>
        <pt x="63" y="285" on="1"/>
        <pt x="70" y="321" on="1"/>
        <pt x="227" y="490" on="1"/>
        <pt x="250" y="517" on="0"/>
        <pt x="268" y="542" on="0"/>
        <pt x="288" y="578" on="0"/>
        <pt x="294" y="607" on="0"/>
        <pt x="294" y="623" on="1"/>
        <pt x="294" y="649" on="0"/>
        <pt x="269" y="680" on="0"/>
        <pt x="247" y="680" on="1"/>
        <pt x="223" y="680" on="0"/>
        <pt x="196" y="645" on="0"/>
        <pt x="196" y="616" on="1"/>
        <pt x="196" y="604" on="0"/>
        <pt x="198" y="578" on="1"/>
        <pt x="169" y="578" on="0"/>
        <pt x="127" y="607" on="0"/>
        <pt x="127" y="632" on="1"/>
        <pt x="127" y="667" on="0"/>
        <pt x="195" y="710" on="0"/>
        <pt x="253" y="710" on="1"/>
        <pt x="308" y="710" on="0"/>
        <pt x="373" y="664" on="0"/>
        <pt x="373" y="618" on="1"/>
        <pt x="373" y="595" on="0"/>
        <pt x="358" y="555" on="0"/>
        <pt x="316" y="507" on="0"/>
        <pt x="296" y="488" on="1"/>
        <pt x="157" y="357" on="1"/>
        <pt x="296" y="357" on="1"/>
        <pt x="336" y="418" on="1"/>
        <pt x="364" y="418" on="1"/>
        <pt x="316" y="285" on="1"/>
      </contour>
    </TTGlyph>
    <TTGlyph name="u" xMin="44" yMin="-7" xMax="539" yMax="507">
      <contour>
        <pt x="44" y="431" on="1"/>
        <pt x="44" y="463" on="1"/>
        <pt x="119" y="486" on="0"/>
        <pt x="195" y="507" on="0"/>
        <pt x="209" y="507" on="1"/>
        <pt x="244" y="507" on="0"/>
        <pt x="244" y="477" on="1"/>
        <pt x="244" y="469" on="0"/>
        <pt x="230" y="416" on="0"/>
        <pt x="210" y="343" on="0"/>
        <pt x="186" y="259" on="0"/>
        <pt x="166" y="184" on="0"/>
        <pt x="152" y="125" on="0"/>
        <pt x="152" y="114" on="1"/>
        <pt x="152" y="67" on="0"/>
        <pt x="189" y="67" on="1"/>
        <pt x="208" y="67" on="0"/>
        <pt x="257" y="92" on="0"/>
        <pt x="308" y="134" on="0"/>
        <pt x="357" y="187" on="0"/>
        <pt x="375" y="215" on="1"/>
        <pt x="447" y="500" on="1"/>
        <pt x="539" y="507" on="1"/>
        <pt x="430" y="69" on="1"/>
        <pt x="530" y="69" on="1"/>
        <pt x="530" y="37" on="1"/>
        <pt x="455" y="14" on="0"/>
        <pt x="379" y="-7" on="0"/>
        <pt x="365" y="-7" on="1"/>
        <pt x="330" y="-7" on="0"/>
        <pt x="330" y="23" on="1"/>
        <pt x="329" y="36" on="0"/>
        <pt x="337" y="64" on="1"/>
        <pt x="353" y="126" on="1"/>
        <pt x="253" y="-7" on="0"/>
        <pt x="152" y="-7" on="1"/>
        <pt x="59" y="-7" on="0"/>
        <pt x="59" y="91" on="1"/>
        <pt x="59" y="140" on="0"/>
        <pt x="84" y="224" on="1"/>
        <pt x="144" y="431" on="1"/>
      </contour>
    </TTGlyph>
    <TTGlyph name="uacute" xMin="44" yMin="-7" xMax="539" yMax="767">
      <component glyphName="u" x="0" y="0" flags="0x204"/>
      <component glyphName="acute" x="297" y="0" flags="0x4"/>
    </TTGlyph>
    <TTGlyph name="ucircumflex" xMin="44" yMin="-7" xMax="539" yMax="771">
      <component glyphName="u" x="0" y="0" flags="0x204"/>
      <component glyphName="circumflex" x="212" y="0" flags="0x4"/>
    </TTGlyph>
    <TTGlyph name="udieresis" xMin="44" yMin="-7" xMax="539" yMax="758">
      <component glyphName="u" x="0" y="0" flags="0x204"/>
      <component glyphName="dieresis" x="160" y="0" flags="0x4"/>
    </TTGlyph>
    <TTGlyph name="ugrave" xMin="44" yMin="-7" xMax="539" yMax="767">
      <component glyphName="u" x="0" y="0" flags="0x204"/>
      <component glyphName="grave" x="243" y="0" flags="0x4"/>
    </TTGlyph>
    <TTGlyph name="underscore" xMin="56" yMin="-142" xMax="515" yMax="-78">
      <contour>
        <pt x="56" y="-78" on="1"/>
        <pt x="515" y="-78" on="1"/>
        <pt x="515" y="-142" on="1"/>
        <pt x="56" y="-142" on="1"/>
      </contour>
    </TTGlyph>
    <TTGlyph name="uni00AD" xMin="84" yMin="317" xMax="344" yMax="397">
      <contour>
        <pt x="84" y="317" on="1"/>
        <pt x="84" y="397" on="1"/>
        <pt x="344" y="397" on="1"/>
        <pt x="344" y="317" on="1"/>
      </contour>
    </TTGlyph>
    <TTGlyph name="v" xMin="19" yMin="-7" xMax="520" yMax="507">
      <contour>
        <pt x="19" y="431" on="1"/>
        <pt x="19" y="463" on="1"/>
        <pt x="131" y="507" on="0"/>
        <pt x="161" y="507" on="1"/>
        <pt x="193" y="507" on="0"/>
        <pt x="199" y="477" on="1"/>
        <pt x="274" y="74" on="1"/>
        <pt x="324" y="138" on="0"/>
        <pt x="377" y="213" on="0"/>
        <pt x="433" y="330" on="0"/>
        <pt x="433" y="374" on="1"/>
        <pt x="433" y="401" on="0"/>
        <pt x="400" y="437" on="0"/>
        <pt x="361" y="464" on="1"/>
        <pt x="398" y="507" on="0"/>
        <pt x="450" y="507" on="1"/>
        <pt x="479" y="507" on="0"/>
        <pt x="520" y="473" on="0"/>
        <pt x="520" y="437" on="1"/>
        <pt x="520" y="374" on="0"/>
        <pt x="416" y="184" on="0"/>
        <pt x="271" y="0" on="1"/>
        <pt x="196" y="-7" on="1"/>
        <pt x="119" y="431" on="1"/>
      </contour>
    </TTGlyph>
    <TTGlyph name="w" xMin="19" yMin="-7" xMax="781" yMax="507">
      <contour>
        <pt x="19" y="431" on="1"/>
        <pt x="19" y="463" on="1"/>
        <pt x="137" y="507" on="0"/>
        <pt x="165" y="507" on="1"/>
        <pt x="198" y="507" on="0"/>
        <pt x="203" y="477" on="1"/>
        <pt x="273" y="73" on="1"/>
        <pt x="400" y="234" on="0"/>
        <pt x="412" y="357" on="1"/>
        <pt x="387" y="500" on="1"/>
        <pt x="476" y="507" on="1"/>
        <pt x="556" y="76" on="1"/>
        <pt x="694" y="252" on="0"/>
        <pt x="694" y="374" on="1"/>
        <pt x="694" y="401" on="0"/>
        <pt x="661" y="437" on="0"/>
        <pt x="622" y="464" on="1"/>
        <pt x="659" y="507" on="0"/>
        <pt x="711" y="507" on="1"/>
        <pt x="739" y="507" on="0"/>
        <pt x="781" y="473" on="0"/>
        <pt x="781" y="437" on="1"/>
        <pt x="781" y="367" on="0"/>
        <pt x="692" y="176" on="0"/>
        <pt x="552" y="0" on="1"/>
        <pt x="475" y="-7" on="1"/>
        <pt x="431" y="248" on="1"/>
        <pt x="423" y="236" on="0"/>
        <pt x="367" y="136" on="0"/>
        <pt x="310" y="48" on="0"/>
        <pt x="272" y="0" on="1"/>
        <pt x="196" y="-7" on="1"/>
        <pt x="119" y="431" on="1"/>
      </contour>
    </TTGlyph>
    <TTGlyph name="x" xMin="-30" yMin="-7" xMax="556" yMax="507">
      <contour>
        <pt x="-30" y="54" on="1"/>
        <pt x="-30" y="78" on="0"/>
        <pt x="-17" y="112" on="1"/>
        <pt x="36" y="95" on="0"/>
        <pt x="67" y="95" on="1"/>
        <pt x="100" y="95" on="0"/>
        <pt x="144" y="132" on="0"/>
        <pt x="168" y="166" on="1"/>
        <pt x="224" y="244" on="1"/>
        <pt x="168" y="431" on="1"/>
        <pt x="67" y="431" on="1"/>
        <pt x="67" y="463" on="1"/>
        <pt x="175" y="507" on="0"/>
        <pt x="202" y="507" on="1"/>
        <pt x="236" y="507" on="0"/>
        <pt x="245" y="477" on="1"/>
        <pt x="292" y="318" on="1"/>
        <pt x="373" y="426" on="0"/>
        <pt x="455" y="507" on="0"/>
        <pt x="494" y="507" on="1"/>
        <pt x="522" y="507" on="0"/>
        <pt x="556" y="472" on="0"/>
        <pt x="556" y="445" on="1"/>
        <pt x="556" y="424" on="0"/>
        <pt x="542" y="387" on="1"/>
        <pt x="488" y="404" on="0"/>
        <pt x="458" y="404" on="1"/>
        <pt x="430" y="404" on="0"/>
        <pt x="387" y="374" on="0"/>
        <pt x="356" y="331" on="1"/>
        <pt x="309" y="265" on="1"/>
        <pt x="369" y="69" on="1"/>
        <pt x="470" y="69" on="1"/>
        <pt x="470" y="37" on="1"/>
        <pt x="367" y="-7" on="0"/>
        <pt x="335" y="-7" on="1"/>
        <pt x="301" y="-7" on="0"/>
        <pt x="292" y="23" on="1"/>
        <pt x="241" y="192" on="1"/>
        <pt x="158" y="80" on="0"/>
        <pt x="71" y="-7" on="0"/>
        <pt x="32" y="-7" on="1"/>
        <pt x="4" y="-7" on="0"/>
        <pt x="-30" y="27" on="0"/>
      </contour>
    </TTGlyph>
    <TTGlyph name="y" xMin="0" yMin="-300" xMax="521" yMax="507">
      <contour>
        <pt x="0" y="-245" on="1"/>
        <pt x="0" y="-222" on="0"/>
        <pt x="31" y="-172" on="0"/>
        <pt x="52" y="-152" on="1"/>
        <pt x="118" y="-88" on="1"/>
        <pt x="163" y="-44" on="0"/>
        <pt x="198" y="-7" on="1"/>
        <pt x="120" y="431" on="1"/>
        <pt x="20" y="431" on="1"/>
        <pt x="20" y="463" on="1"/>
        <pt x="134" y="507" on="0"/>
        <pt x="162" y="507" on="1"/>
        <pt x="195" y="507" on="0"/>
        <pt x="200" y="477" on="1"/>
        <pt x="273" y="77" on="1"/>
        <pt x="281" y="86" on="1"/>
        <pt x="368" y="191" on="0"/>
        <pt x="434" y="323" on="0"/>
        <pt x="434" y="374" on="1"/>
        <pt x="434" y="391" on="0"/>
        <pt x="415" y="421" on="0"/>
        <pt x="391" y="442" on="0"/>
        <pt x="362" y="464" on="1"/>
        <pt x="399" y="507" on="0"/>
        <pt x="451" y="507" on="1"/>
        <pt x="479" y="507" on="0"/>
        <pt x="521" y="473" on="0"/>
        <pt x="521" y="437" on="1"/>
        <pt x="521" y="304" on="0"/>
        <pt x="314" y="54" on="1"/>
        <pt x="174" y="-108" on="1"/>
        <pt x="154" y="-129" on="0"/>
        <pt x="121" y="-170" on="0"/>
        <pt x="111" y="-194" on="0"/>
        <pt x="111" y="-207" on="1"/>
        <pt x="111" y="-234" on="0"/>
        <pt x="136" y="-261" on="1"/>
        <pt x="101" y="-300" on="0"/>
        <pt x="58" y="-300" on="1"/>
        <pt x="35" y="-300" on="0"/>
        <pt x="0" y="-273" on="0"/>
      </contour>
    </TTGlyph>
    <TTGlyph name="yacute" xMin="0" yMin="-300" xMax="521" yMax="767">
      <component glyphName="y" x="0" y="0" flags="0x204"/>
      <component glyphName="acute" x="259" y="0" flags="0x4"/>
    </TTGlyph>
    <TTGlyph name="ydieresis" xMin="0" yMin="-300" xMax="521" yMax="758">
      <component glyphName="y" x="0" y="0" flags="0x204"/>
      <component glyphName="dieresis" x="156" y="0" flags="0x4"/>
    </TTGlyph>
    <TTGlyph name="yen" xMin="122" yMin="0" xMax="759" yMax="700">
      <contour>
        <pt x="126" y="196" on="1"/>
        <pt x="137" y="238" on="1"/>
        <pt x="299" y="247" on="1"/>
        <pt x="315" y="312" on="1"/>
        <pt x="155" y="312" on="1"/>
        <pt x="166" y="354" on="1"/>
        <pt x="298" y="361" on="1"/>
        <pt x="196" y="639" on="1"/>
        <pt x="122" y="659" on="1"/>
        <pt x="132" y="700" on="1"/>
        <pt x="369" y="700" on="1"/>
        <pt x="359" y="659" on="1"/>
        <pt x="295" y="646" on="1"/>
        <pt x="388" y="385" on="1"/>
        <pt x="592" y="639" on="1"/>
        <pt x="518" y="659" on="1"/>
        <pt x="528" y="700" on="1"/>
        <pt x="759" y="700" on="1"/>
        <pt x="749" y="659" on="1"/>
        <pt x="673" y="637" on="1"/>
        <pt x="457" y="370" on="1"/>
        <pt x="601" y="379" on="1"/>
        <pt x="575" y="312" on="1"/>
        <pt x="412" y="312" on="1"/>
        <pt x="398" y="253" on="1"/>
        <pt x="572" y="263" on="1"/>
        <pt x="546" y="196" on="1"/>
        <pt x="384" y="196" on="1"/>
        <pt x="351" y="63" on="1"/>
        <pt x="439" y="41" on="1"/>
        <pt x="429" y="0" on="1"/>
        <pt x="160" y="0" on="1"/>
        <pt x="170" y="41" on="1"/>
        <pt x="254" y="63" on="1"/>
        <pt x="287" y="196" on="1"/>
      </contour>
    </TTGlyph>
    <TTGlyph name="z" xMin="6" yMin="-72" xMax="482" yMax="507">
      <contour>
        <pt x="6" y="26" on="1"/>
        <pt x="377" y="432" on="1"/>
        <pt x="350" y="416" on="0"/>
        <pt x="263" y="416" on="1"/>
        <pt x="207" y="416" on="1"/>
        <pt x="156" y="416" on="0"/>
        <pt x="96" y="388" on="0"/>
        <pt x="81" y="347" on="1"/>
        <pt x="48" y="355" on="1"/>
        <pt x="71" y="450" on="0"/>
        <pt x="106" y="507" on="0"/>
        <pt x="131" y="507" on="1"/>
        <pt x="153" y="507" on="0"/>
        <pt x="302" y="500" on="0"/>
        <pt x="335" y="500" on="1"/>
        <pt x="410" y="500" on="0"/>
        <pt x="465" y="507" on="1"/>
        <pt x="482" y="478" on="1"/>
        <pt x="98" y="55" on="1"/>
        <pt x="188" y="70" on="0"/>
        <pt x="279" y="70" on="1"/>
        <pt x="453" y="70" on="0"/>
        <pt x="453" y="-12" on="1"/>
        <pt x="453" y="-72" on="0"/>
        <pt x="371" y="-72" on="1"/>
        <pt x="353" y="-71" on="1"/>
        <pt x="353" y="-65" on="1"/>
        <pt x="353" y="-29" on="0"/>
        <pt x="269" y="13" on="0"/>
        <pt x="198" y="13" on="1"/>
        <pt x="140" y="13" on="0"/>
        <pt x="27" y="0" on="1"/>
      </contour>
    </TTGlyph>
    <TTGlyph name="zero" xMin="55" yMin="-7" xMax="584" yMax="708">
      <contour>
        <pt x="55" y="209" on="1"/>
        <pt x="55" y="299" on="0"/>
        <pt x="106" y="477" on="0"/>
        <pt x="195" y="619" on="0"/>
        <pt x="329" y="708" on="0"/>
        <pt x="406" y="708" on="1"/>
        <pt x="495" y="708" on="0"/>
        <pt x="584" y="595" on="0"/>
        <pt x="584" y="493" on="1"/>
        <pt x="584" y="366" on="0"/>
        <pt x="499" y="139" on="0"/>
        <pt x="336" y="-7" on="0"/>
        <pt x="233" y="-7" on="1"/>
        <pt x="143" y="-7" on="0"/>
        <pt x="55" y="111" on="0"/>
      </contour>
      <contour>
        <pt x="156" y="202" on="1"/>
        <pt x="156" y="131" on="0"/>
        <pt x="201" y="44" on="0"/>
        <pt x="246" y="44" on="1"/>
        <pt x="310" y="44" on="0"/>
        <pt x="423" y="197" on="0"/>
        <pt x="483" y="406" on="0"/>
        <pt x="483" y="499" on="1"/>
        <pt x="483" y="570" on="0"/>
        <pt x="438" y="655" on="0"/>
        <pt x="392" y="655" on="1"/>
        <pt x="328" y="655" on="0"/>
        <pt x="216" y="512" on="0"/>
        <pt x="156" y="305" on="0"/>
      </contour>
    </TTGlyph>
</ttFont>
